{"glyphs":{"0":{"ha":625,"x_min":160,"x_max":746,"o":"m 613 606 q 574 621 601 621 q 524 604 547 621 q 502 603 514 599 q 490 614 490 607 q 476 616 490 631 q 422 553 461 601 q 381 503 400 531 q 363 473 363 476 q 350 438 363 469 q 324 384 340 422 q 303 329 307 346 l 303 238 q 311 196 303 208 q 353 139 321 179 q 372 128 367 128 q 385 133 376 129 q 404 138 394 136 q 457 157 438 138 q 543 265 513 194 q 596 388 563 293 q 615 470 615 417 q 622 549 615 524 q 621 590 622 582 q 613 606 619 597 m 518 749 q 590 754 538 754 q 694 730 642 754 q 746 685 746 706 l 746 675 q 740 661 746 658 q 732 661 738 661 l 718 661 l 732 619 q 746 558 746 589 q 732 457 746 528 q 710 368 718 386 q 703 332 703 350 q 684 292 699 324 q 667 254 669 260 q 660 235 653 242 q 646 202 660 228 q 626 176 632 176 q 619 171 619 176 q 557 93 619 156 q 481 37 535 69 q 408 4 428 4 q 342 19 389 4 q 276 51 296 35 q 188 339 160 151 q 252 516 203 428 q 373 667 301 604 q 518 749 444 731 z "},"1":{"ha":625,"x_min":235,"x_max":753,"o":"m 539 718 q 628 768 586 747 q 678 788 671 789 q 714 766 685 786 q 744 735 743 746 q 738 694 753 725 q 691 568 724 664 q 644 423 658 472 q 614 328 631 374 q 588 246 597 283 q 536 69 560 181 q 517 7 525 36 q 502 -26 508 -22 q 466 -24 496 -31 q 424 -5 436 -17 q 409 19 411 7 q 417 99 407 31 l 453 232 q 494 340 464 238 q 540 494 524 443 q 585 607 565 569 q 447 517 515 569 q 368 458 379 464 q 331 431 357 451 q 297 411 304 410 q 285 415 289 413 q 250 461 265 432 q 243 504 235 490 q 299 544 247 506 q 358 585 351 582 q 369 592 364 588 q 384 603 375 596 q 400 615 393 611 q 424 635 404 621 q 478 674 443 649 q 539 718 514 700 z "},"2":{"ha":625,"x_min":160,"x_max":736,"o":"m 521 744 l 561 738 q 617 711 579 739 q 667 656 654 683 q 643 476 714 582 q 558 381 628 458 q 474 293 488 304 q 426 252 463 288 q 361 183 390 217 q 332 147 332 150 q 353 152 333 144 q 396 167 374 160 q 485 185 418 175 q 561 188 551 194 l 568 185 q 603 190 574 193 q 664 178 632 188 q 696 154 696 168 q 711 132 700 144 q 711 92 736 111 q 635 82 686 72 q 586 80 599 82 q 517 74 574 78 q 426 61 476 79 q 307 25 376 43 q 227 10 238 7 q 193 40 217 14 q 165 75 169 65 q 165 103 160 85 q 175 122 169 122 q 193 144 181 117 q 207 176 206 172 q 226 193 208 181 q 248 219 226 194 q 286 260 269 244 q 436 425 431 399 q 458 443 443 433 q 492 471 474 453 q 529 525 496 492 q 560 583 553 560 q 561 610 567 606 q 522 624 556 614 q 460 628 489 636 q 382 586 431 619 q 358 578 372 583 q 322 569 328 568 q 313 576 317 571 q 302 588 308 581 q 292 600 296 596 l 278 660 l 321 683 q 521 744 450 767 z "},"3":{"ha":625,"x_min":199,"x_max":743,"o":"m 504 657 l 499 657 q 445 651 489 661 q 400 637 401 642 q 365 622 399 632 q 325 613 332 613 q 301 649 315 615 q 291 692 288 682 q 328 722 294 701 q 389 756 361 743 q 485 770 418 763 q 578 776 553 778 q 731 663 710 761 q 671 535 743 600 q 635 511 654 524 q 541 454 568 465 q 497 437 514 443 q 479 428 479 431 q 667 308 588 415 q 652 167 694 246 q 535 44 610 89 q 339 1 475 11 q 243 28 288 1 q 201 81 199 54 q 261 124 204 132 q 405 124 332 108 q 516 177 478 139 q 555 240 554 215 q 522 288 556 265 q 446 325 489 311 q 378 337 403 339 q 308 358 354 335 q 292 391 300 367 q 283 418 285 415 q 311 449 281 428 q 463 535 342 469 q 603 618 583 601 q 617 647 621 636 q 581 664 614 657 q 504 657 504 671 z "},"4":{"ha":625,"x_min":221,"x_max":769,"o":"m 222 421 q 271 528 271 518 q 351 649 282 553 q 443 765 421 744 q 501 786 485 786 q 534 759 518 786 q 550 721 550 732 q 497 650 542 701 q 349 400 349 442 q 372 386 349 386 q 507 419 463 401 q 526 438 515 424 q 539 458 536 451 q 551 489 542 465 q 578 554 560 513 q 628 650 596 596 q 696 744 683 744 q 736 716 703 744 q 769 682 769 688 q 744 615 769 657 q 688 512 719 574 q 611 338 657 450 q 524 78 524 118 q 531 53 524 67 q 507 5 531 26 q 460 -17 483 -17 q 426 10 442 -17 q 411 51 411 38 q 418 108 411 65 q 439 197 425 150 q 463 270 453 243 q 472 300 472 297 q 443 294 471 300 q 333 275 360 275 q 261 318 290 275 q 236 357 251 326 q 221 400 221 388 q 222 415 221 413 l 222 421 z "},"5":{"ha":603,"x_min":185,"x_max":713,"o":"m 385 697 q 403 716 385 697 q 478 758 421 735 q 599 780 536 782 q 692 738 661 778 q 686 667 713 692 q 658 663 674 654 q 535 658 622 685 q 517 651 528 656 q 501 645 506 647 q 488 640 496 643 q 476 633 481 636 q 463 617 468 628 q 456 611 458 614 q 447 606 453 606 q 439 590 439 597 q 428 576 439 590 q 422 581 425 576 q 421 565 422 574 q 426 553 419 557 q 477 544 433 550 q 565 511 521 539 q 636 406 618 481 q 644 263 654 331 q 610 157 635 196 q 423 24 546 68 q 238 22 300 -19 q 213 53 213 40 q 200 61 207 61 q 188 92 192 57 q 186 132 185 126 q 224 152 193 147 q 257 142 254 157 q 328 118 261 115 q 508 213 438 119 q 535 306 532 268 q 533 346 539 343 q 524 378 531 361 q 493 418 518 396 q 444 450 468 440 q 381 449 421 454 q 324 447 329 442 q 285 474 313 450 q 258 508 258 499 q 306 594 263 529 q 385 697 349 660 z "},"6":{"ha":654,"x_min":182,"x_max":733,"o":"m 608 383 q 602 385 607 383 q 590 388 597 386 q 569 392 582 389 q 429 371 544 399 q 410 364 424 369 q 388 357 396 358 q 360 341 379 346 q 331 315 340 336 q 308 235 322 294 q 303 154 296 165 q 328 131 307 136 q 363 126 349 125 q 404 138 376 126 q 436 144 432 146 q 493 182 464 163 q 589 268 556 219 q 615 351 622 317 q 608 383 617 358 m 383 614 q 418 646 403 626 q 507 708 433 665 q 642 760 581 751 q 660 753 663 763 q 700 721 685 724 q 717 697 701 721 q 672 631 721 676 q 632 619 642 608 q 618 630 632 626 q 563 613 604 633 q 493 563 521 593 q 458 524 463 535 l 413 471 q 432 467 417 464 q 450 476 447 471 q 481 491 450 482 q 544 503 513 500 q 603 499 560 508 q 657 485 646 490 q 683 460 668 479 q 731 336 733 413 q 707 263 731 292 q 613 138 646 158 l 597 128 q 525 72 594 113 q 256 44 339 -35 q 192 140 200 86 q 183 187 182 175 q 196 258 183 199 q 217 342 208 317 q 249 401 225 368 q 296 499 275 475 q 346 564 326 544 l 383 614 z "},"7":{"ha":619,"x_min":250,"x_max":740,"o":"m 293 435 l 386 429 q 426 427 411 429 q 447 430 440 425 q 475 463 453 435 q 503 504 481 472 q 540 563 526 536 q 586 675 615 667 q 466 647 561 683 q 346 625 371 611 q 329 656 335 626 q 328 704 324 686 q 510 774 333 729 q 621 780 557 782 q 693 763 685 778 q 706 756 704 761 q 726 718 717 735 q 738 692 736 701 q 738 661 740 683 q 708 611 728 628 q 672 568 690 586 q 665 556 671 564 q 660 544 660 547 l 588 435 q 567 404 561 411 q 586 392 574 397 q 646 336 635 369 q 635 299 647 304 q 612 285 628 289 q 592 286 596 281 q 560 308 586 297 q 526 318 535 318 q 469 235 508 307 q 426 156 431 164 q 416 139 422 149 q 404 117 410 129 q 394 76 399 106 q 397 44 390 46 q 421 26 414 49 q 411 0 428 17 q 369 -28 394 -17 q 328 -36 344 -39 q 290 -12 313 -33 q 260 28 268 8 q 357 275 250 74 q 387 337 392 332 q 360 342 382 342 q 300 360 303 356 q 274 392 268 376 q 287 399 276 397 q 301 415 297 401 q 293 435 306 429 m 293 435 q 290 436 292 436 q 293 435 292 436 z "},"8":{"ha":625,"x_min":149,"x_max":768,"o":"m 479 236 q 442 308 451 293 q 417 331 432 322 q 397 297 406 317 q 371 260 378 274 l 340 229 q 313 165 340 218 q 272 58 269 93 q 285 40 274 42 q 344 56 304 39 q 417 97 383 74 q 479 236 506 168 m 394 614 q 397 531 379 567 q 418 507 413 525 q 429 494 418 494 q 456 478 432 478 q 500 493 479 479 q 571 513 554 542 q 603 524 576 504 q 650 572 656 558 q 643 602 643 585 q 637 628 643 619 q 568 660 631 638 q 394 614 429 708 m 432 799 q 614 762 574 779 q 699 712 654 744 q 746 668 743 679 q 750 658 746 665 q 765 585 768 633 q 750 517 763 536 q 707 474 715 478 q 692 464 699 471 q 665 447 675 449 q 640 424 647 424 q 624 424 624 435 q 586 402 622 418 q 543 389 550 386 q 525 385 536 392 q 546 340 507 388 q 589 142 626 193 q 532 43 563 82 q 483 7 501 4 q 464 -6 472 0 q 436 -21 458 -24 q 395 -34 424 -15 q 317 -63 367 -53 q 253 -65 268 -74 q 168 -8 226 -61 q 154 69 149 33 q 171 144 154 118 q 240 271 188 192 q 321 384 293 350 q 347 432 349 418 q 318 482 344 446 q 308 503 314 493 q 304 513 301 513 q 293 532 299 518 q 273 592 272 553 q 293 671 274 632 q 353 758 315 722 q 432 799 390 793 z "},"9":{"ha":608,"x_min":264,"x_max":746,"o":"m 581 618 q 584 624 581 618 q 591 635 588 629 q 610 658 594 640 q 625 683 626 675 q 616 700 624 690 q 598 711 608 710 q 554 700 588 713 q 513 681 533 696 q 479 657 492 665 q 461 650 471 649 q 451 644 451 651 q 435 613 458 632 q 393 513 368 542 q 472 503 424 479 q 565 596 521 526 q 581 618 575 607 m 368 15 l 371 63 q 440 324 376 139 q 458 385 461 374 q 422 393 456 396 q 312 431 360 382 q 268 544 264 481 q 308 636 269 578 q 415 750 346 694 q 639 808 539 847 q 708 743 669 796 q 740 667 746 690 q 688 554 725 594 q 607 431 656 526 q 535 267 558 335 q 504 163 511 199 q 497 105 497 126 q 504 82 497 83 l 543 74 q 489 -19 561 44 q 434 -58 444 -60 q 401 -41 424 -57 q 378 -19 378 -25 q 378 -13 379 -14 q 372 -12 378 -12 l 368 15 z "},"\u0000":{"ha":0,"x_min":0,"x_max":0,"o":""},"\r":{"ha":336,"x_min":0,"x_max":0,"o":""}," ":{"ha":336,"x_min":0,"x_max":0,"o":""},"!":{"ha":292,"x_min":56,"x_max":564,"o":"m 142 128 q 182 147 168 146 q 222 136 196 147 q 264 72 269 107 q 203 8 258 36 q 111 17 149 -12 q 142 128 56 71 m 318 644 l 336 693 q 408 850 361 735 q 458 981 456 965 q 465 1005 460 997 q 482 1011 471 1013 q 515 1017 489 1017 q 551 995 538 1010 q 564 953 564 981 q 560 915 564 926 q 554 897 557 904 q 544 874 551 889 q 533 853 536 860 q 504 801 526 839 q 464 722 464 724 q 446 678 464 719 q 423 628 435 660 q 411 589 411 596 q 400 567 404 571 q 393 556 393 567 l 393 551 q 367 478 393 532 q 315 292 319 343 q 276 224 311 240 q 215 256 233 215 q 218 396 197 297 q 238 454 238 435 q 285 571 254 514 q 297 581 290 571 q 303 611 303 590 q 318 644 303 632 z "},"\"":{"ha":329,"x_min":214,"x_max":608,"o":"m 504 904 q 506 912 504 904 q 515 931 508 919 q 526 941 521 943 q 542 933 531 939 q 561 924 554 928 q 578 915 568 921 q 594 903 588 908 q 605 864 608 890 q 571 736 601 838 q 493 613 557 685 q 480 604 493 607 q 460 599 467 601 q 403 610 424 592 q 419 667 396 633 q 480 775 472 753 q 492 814 488 797 q 501 871 501 853 q 504 904 500 889 m 322 904 q 324 912 322 904 q 333 931 326 919 q 344 941 339 943 q 360 933 349 939 q 379 924 372 928 q 396 915 386 921 q 411 903 406 908 q 423 864 426 890 q 389 736 419 838 q 311 613 375 685 q 298 604 311 607 q 278 599 285 601 q 219 610 240 592 q 238 667 214 633 q 298 775 290 753 q 310 814 306 797 q 319 871 319 853 q 322 904 318 889 z "},"#":{"ha":776,"x_min":71,"x_max":985,"o":"m 393 378 q 386 367 386 378 l 386 363 q 379 333 386 357 l 601 338 l 617 378 q 631 408 631 378 q 646 451 631 439 l 660 504 l 668 524 q 450 521 529 521 q 400 399 400 414 q 393 378 400 385 m 301 451 l 315 504 l 322 519 l 279 519 q 231 526 251 519 q 181 551 194 526 q 226 597 156 585 q 360 608 308 607 q 518 1032 518 1000 q 533 1055 518 1043 q 560 1067 547 1067 q 582 1074 567 1074 l 604 1051 q 640 988 640 1018 q 632 944 640 963 q 619 915 624 925 q 603 880 615 906 q 540 736 590 854 q 486 613 489 618 q 708 618 549 615 q 863 1032 863 1000 q 877 1055 863 1043 q 904 1067 892 1067 q 926 1074 911 1074 l 949 1051 q 985 988 985 1018 q 976 944 985 963 q 964 915 968 925 q 947 881 960 906 q 832 619 929 842 l 883 619 q 930 615 917 619 q 962 591 943 610 q 969 550 981 572 q 926 533 957 528 l 822 525 l 796 525 q 744 397 744 410 q 738 378 744 385 q 731 367 731 378 l 731 363 q 725 340 731 356 l 797 340 q 844 335 831 340 q 876 312 857 331 q 883 271 894 293 q 842 254 872 249 l 764 247 l 753 247 l 694 246 q 593 -145 593 -101 q 558 -206 593 -189 q 494 -166 518 -217 q 486 -39 469 -115 q 501 19 501 1 q 571 243 507 50 l 349 242 q 249 -144 249 -100 q 214 -206 249 -189 q 149 -166 174 -217 q 142 -39 125 -115 q 157 19 157 1 q 225 240 164 54 l 194 240 q 146 247 167 240 q 94 274 110 247 q 135 317 71 306 q 254 328 182 325 q 272 378 267 369 q 286 408 286 378 q 301 451 286 439 z "},"$":{"ha":625,"x_min":63,"x_max":793,"o":"m 425 593 q 429 582 426 592 q 449 546 436 558 l 469 522 q 568 722 514 608 q 492 679 522 714 q 425 593 425 638 m 494 249 q 504 270 504 263 q 506 292 504 278 q 506 314 507 306 q 469 375 504 338 l 467 372 q 461 367 461 372 q 428 297 457 340 l 368 153 q 494 233 478 175 l 494 249 m 792 751 q 793 742 792 751 q 782 713 793 733 q 756 693 771 693 q 708 708 742 693 q 651 726 675 724 q 549 533 588 611 q 515 474 526 493 q 548 442 544 444 q 553 436 551 439 q 558 431 558 432 l 558 426 q 580 401 561 426 q 600 367 599 375 q 632 244 632 324 q 606 197 632 228 q 328 53 510 79 q 269 -115 274 -83 q 262 -162 268 -153 q 236 -172 256 -172 q 203 -131 203 -172 q 224 -15 203 -89 q 247 46 244 14 l 228 46 q 167 56 176 46 q 100 95 138 56 q 63 165 63 135 q 81 211 63 196 q 125 226 100 226 q 169 217 150 226 q 154 174 154 183 q 239 142 154 142 q 288 143 272 142 q 397 386 379 358 q 410 396 403 386 q 418 415 417 406 l 418 424 l 415 426 q 358 493 381 481 q 347 511 354 497 q 336 526 343 519 q 315 585 315 551 q 378 713 315 661 q 433 759 393 731 q 479 788 474 788 q 487 788 485 788 q 506 796 489 789 q 586 815 550 815 l 615 822 q 699 1014 696 993 q 719 1032 706 1032 l 726 1032 q 740 1035 729 1035 l 758 1025 q 761 918 793 974 q 738 880 756 908 q 704 821 721 851 q 766 790 740 810 q 792 751 792 769 z "},"%":{"ha":833,"x_min":133,"x_max":978,"o":"m 906 817 q 928 817 915 822 q 961 772 949 793 q 954 714 978 749 q 925 679 939 690 q 856 618 907 664 q 694 447 697 460 q 665 417 681 436 q 565 319 568 331 q 549 304 556 307 l 539 296 q 493 240 539 283 q 254 -63 267 -33 q 224 -108 242 -93 q 194 -126 207 -124 q 141 -83 149 -122 q 183 31 133 -44 q 215 72 211 61 q 438 329 240 107 q 450 334 443 328 q 464 358 457 340 q 489 379 471 376 q 497 391 490 383 q 505 402 504 399 q 511 410 506 406 q 518 419 517 415 q 712 620 553 449 q 878 806 871 792 q 906 817 883 824 m 728 192 q 722 221 728 217 q 663 206 692 235 q 572 67 624 175 q 579 1 551 17 q 665 50 607 -15 q 728 192 728 119 m 596 285 q 701 339 646 328 q 738 346 726 347 q 764 326 749 344 q 815 288 792 315 q 842 229 839 260 q 790 53 850 139 q 672 -68 731 -33 q 550 -112 607 -110 q 505 -90 528 -112 q 469 -41 482 -68 q 460 6 456 -14 l 461 31 q 463 44 456 38 q 465 63 469 44 q 513 171 461 82 q 596 285 564 260 m 374 519 q 467 572 406 504 q 525 708 528 639 q 519 738 525 733 q 461 722 490 751 q 369 583 421 692 q 374 519 349 533 m 260 561 q 263 580 267 561 q 310 689 258 599 q 393 803 363 779 q 499 856 442 844 q 535 863 524 864 q 561 843 546 861 q 613 804 589 832 q 639 747 636 776 q 581 560 647 657 q 347 406 472 411 q 303 428 325 406 q 257 522 249 481 l 258 547 q 257 557 254 554 q 260 561 260 560 z "},"&":{"ha":783,"x_min":74,"x_max":929,"o":"m 419 310 q 386 351 394 332 q 352 322 379 351 q 313 272 325 293 q 239 186 272 243 q 224 128 211 142 q 240 117 226 124 q 258 107 253 111 q 311 96 289 97 q 361 106 333 94 q 508 196 413 125 q 450 269 468 243 q 419 310 432 294 m 604 758 q 574 778 599 768 q 524 789 549 789 q 477 769 500 789 q 417 697 454 750 q 372 607 381 644 q 389 524 364 569 q 469 588 404 539 q 574 680 533 636 q 604 758 614 724 m 457 910 l 468 913 q 512 913 474 917 q 576 901 550 910 q 649 889 631 894 q 683 865 668 883 q 738 806 713 843 q 764 750 764 769 q 660 615 764 708 l 604 558 q 597 542 604 551 q 579 529 589 533 q 462 420 464 429 q 520 330 460 411 q 593 249 581 249 q 690 337 625 279 q 789 425 756 394 q 842 471 821 460 q 870 479 863 482 q 892 464 878 476 q 910 440 908 461 q 908 399 913 418 q 900 376 903 379 q 779 256 871 339 q 672 158 688 174 q 779 48 739 79 q 856 5 819 17 q 908 -25 893 -7 q 926 -75 924 -43 q 856 -102 929 -110 q 740 -69 782 -94 q 579 90 704 -60 q 430 13 464 26 q 358 -12 396 -1 q 190 6 267 -21 q 138 35 174 11 q 90 69 101 58 q 77 115 81 75 q 79 174 74 156 q 155 285 85 192 q 293 446 225 378 q 241 591 240 517 q 300 768 242 665 q 414 896 335 825 q 446 917 443 921 q 457 910 450 910 z "},"'":{"ha":163,"x_min":210,"x_max":424,"o":"m 318 904 q 320 912 318 904 q 329 931 322 919 q 341 941 336 943 q 358 933 346 939 q 376 924 369 928 q 393 915 383 921 q 408 903 403 908 q 421 867 424 890 q 385 736 418 844 q 308 613 371 683 q 295 604 308 607 q 275 599 282 601 q 217 610 238 592 q 233 667 210 633 q 294 775 286 753 q 306 814 301 797 q 315 871 315 853 q 318 904 314 889 z "},"(":{"ha":458,"x_min":190,"x_max":772,"o":"m 322 276 q 310 229 317 276 q 300 153 304 182 q 311 14 297 61 q 364 -75 325 -33 q 431 -104 396 -103 l 478 -133 q 445 -179 469 -164 q 394 -192 421 -194 q 283 -135 331 -183 q 217 -24 236 -87 q 191 128 190 35 q 214 299 192 222 q 239 411 236 376 q 291 535 244 429 q 354 685 338 640 q 459 858 383 749 q 564 991 535 967 q 601 1017 593 1015 q 623 1041 607 1031 q 653 1051 639 1051 q 721 1061 685 1071 q 768 1013 757 1051 q 768 988 772 993 q 738 969 764 982 q 672 932 689 951 q 621 881 642 893 q 596 858 596 871 q 546 778 581 822 q 508 714 535 760 q 463 636 481 668 q 431 588 444 604 q 410 533 431 567 q 381 460 401 503 q 341 356 360 417 q 322 276 322 296 z "},")":{"ha":458,"x_min":22,"x_max":539,"o":"m 326 260 q 333 293 333 267 q 353 342 356 304 q 358 358 353 343 q 379 432 376 399 q 408 557 401 503 q 419 682 415 611 q 425 782 424 753 q 426 822 426 811 l 426 850 q 413 904 426 883 q 390 949 399 949 q 381 969 381 949 q 385 1001 381 989 q 405 1014 383 1007 q 443 1020 426 1021 q 476 999 460 1019 q 494 978 482 1004 q 522 915 507 951 q 538 855 536 878 q 533 732 539 832 q 494 414 532 593 q 431 226 476 342 q 365 76 386 110 q 324 8 371 76 q 264 -82 276 -61 q 179 -162 231 -128 q 101 -188 128 -196 q 49 -158 74 -181 q 22 -114 24 -135 q 29 -75 22 -89 q 69 -78 40 -86 q 110 -73 96 -79 q 138 -51 125 -67 q 176 -4 150 -36 q 208 43 203 28 q 258 99 236 64 q 283 169 258 129 q 303 210 292 188 q 326 260 326 253 z "},"*":{"ha":504,"x_min":249,"x_max":735,"o":"m 583 638 q 592 643 583 643 q 615 624 601 643 q 625 603 629 606 l 625 594 q 618 581 629 593 q 592 556 607 568 q 575 544 578 544 q 542 552 561 536 q 515 585 524 568 q 503 611 506 601 q 483 665 492 643 l 481 717 q 350 597 475 722 q 278 549 294 546 q 262 556 272 549 q 250 565 251 563 q 249 592 249 567 q 254 628 250 618 q 329 709 268 646 q 401 781 390 772 q 413 796 413 792 q 401 810 413 800 q 393 828 392 824 q 388 833 394 832 q 379 857 379 846 l 368 892 q 367 919 361 899 q 381 947 374 940 q 393 940 385 947 q 442 886 403 940 q 456 865 451 867 q 464 863 460 863 q 471 864 468 864 q 494 926 490 893 q 521 965 508 946 l 551 1013 q 563 1028 556 1026 q 585 1046 571 1039 q 601 1050 599 1053 q 624 1022 618 1038 l 649 1001 q 580 894 597 933 q 565 856 563 856 q 606 869 586 865 q 640 883 624 878 q 674 896 654 883 q 707 896 694 903 q 726 865 717 886 q 735 835 735 843 q 717 822 725 828 q 700 811 710 817 q 617 778 674 794 q 558 751 561 761 q 558 728 542 751 q 563 690 561 719 q 570 660 567 675 q 578 629 574 644 q 583 638 583 629 z "},"+":{"ha":619,"x_min":111,"x_max":688,"o":"m 443 518 l 453 342 q 566 343 496 343 q 662 318 636 343 q 676 270 688 293 q 633 253 664 247 q 454 243 482 243 q 457 117 457 140 q 450 72 457 93 q 422 22 450 38 q 375 68 388 -4 q 358 240 364 142 q 258 239 307 239 q 188 246 208 239 q 138 274 153 246 q 183 321 111 308 l 208 324 q 354 338 256 333 q 353 451 353 381 q 377 547 353 522 q 425 560 401 572 q 443 518 449 549 z "},",":{"ha":275,"x_min":35,"x_max":250,"o":"m 180 -61 q 164 -81 180 -61 q 142 -100 147 -100 q 125 -110 136 -100 q 81 -119 114 -119 q 35 -96 47 -119 q 62 -57 35 -83 q 129 46 89 -31 q 151 128 136 67 q 158 163 151 156 q 242 108 224 224 q 218 -8 250 58 q 180 -61 213 -22 z "},"-":{"ha":453,"x_min":111,"x_max":521,"o":"m 383 343 q 426 343 383 343 q 495 318 469 343 q 509 270 521 293 q 467 253 497 247 q 240 239 272 239 q 188 246 208 239 q 138 274 153 246 q 183 321 111 308 l 208 324 q 383 343 296 343 z "},".":{"ha":275,"x_min":78,"x_max":292,"o":"m 164 193 q 204 210 190 210 q 244 200 218 211 q 286 135 292 171 q 225 72 281 100 q 133 81 171 53 q 164 193 78 133 z "},"/":{"ha":458,"x_min":35,"x_max":717,"o":"m 328 506 l 349 556 q 494 799 378 593 q 612 1025 610 1006 q 639 1040 614 1044 q 661 1044 649 1047 q 700 1003 686 1019 q 703 933 717 983 q 649 847 697 914 q 558 703 601 779 q 515 622 514 628 q 492 579 507 614 q 443 508 476 560 q 405 446 410 457 q 396 432 400 435 q 386 418 392 432 q 353 349 389 407 q 151 -79 157 -47 q 110 -160 138 -149 q 49 -118 64 -162 q 69 19 35 -74 q 94 75 93 64 q 190 261 104 99 q 285 439 275 424 q 304 465 297 436 q 328 506 313 499 z "},":":{"ha":275,"x_min":81,"x_max":390,"o":"m 264 485 q 304 502 290 501 q 344 492 318 503 q 385 427 390 463 q 324 364 379 392 q 232 372 271 344 q 264 485 178 425 m 167 193 q 207 210 193 210 q 247 200 221 211 q 288 135 293 171 q 226 72 282 100 q 135 81 174 53 q 167 193 81 133 z "},";":{"ha":275,"x_min":38,"x_max":390,"o":"m 264 485 q 304 502 290 501 q 344 492 318 503 q 385 427 390 463 q 324 364 379 392 q 232 372 271 344 q 264 485 178 425 m 183 -61 q 166 -81 183 -61 q 143 -100 150 -100 q 126 -110 136 -100 q 83 -119 117 -119 q 38 -96 50 -119 q 60 -61 38 -83 q 132 46 82 -39 q 154 128 139 67 q 161 163 154 156 q 244 108 226 224 q 221 -8 253 58 q 183 -61 215 -22 z "},"<":{"ha":619,"x_min":146,"x_max":650,"o":"m 631 522 q 613 488 626 500 q 567 458 599 475 q 410 374 456 401 q 344 335 364 346 q 319 322 325 325 q 303 313 313 319 q 297 301 294 306 q 297 285 299 297 q 532 168 349 225 q 627 124 604 146 q 646 74 650 103 q 581 48 635 54 q 483 60 528 42 q 379 92 406 75 q 341 116 353 108 q 309 135 329 124 q 283 151 289 147 q 263 164 276 154 q 242 181 249 174 q 207 219 221 199 l 161 275 l 146 349 q 224 390 164 351 q 342 463 283 429 q 507 559 485 536 q 550 582 529 582 q 600 551 565 586 q 610 545 604 549 q 618 540 615 542 q 624 536 621 538 q 631 522 626 533 z "},"=":{"ha":619,"x_min":139,"x_max":668,"o":"m 471 281 q 568 249 533 281 q 585 204 593 228 q 546 186 578 181 q 267 172 304 172 q 201 179 231 172 q 150 199 161 179 q 139 228 139 214 q 163 251 139 242 q 231 261 186 261 q 471 281 332 281 m 547 479 q 643 449 610 479 q 661 403 668 428 q 621 385 654 379 q 347 371 388 371 q 276 378 307 371 q 225 397 236 378 q 231 447 196 428 q 307 460 256 461 q 547 479 408 479 z "},">":{"ha":619,"x_min":175,"x_max":679,"o":"m 194 88 q 213 122 199 110 q 258 150 226 135 q 415 236 369 208 q 481 274 461 264 q 506 288 500 285 q 522 297 513 290 q 528 308 531 304 q 528 325 526 313 q 293 442 476 385 q 198 485 221 464 q 179 536 175 507 q 244 562 190 556 q 342 550 297 568 q 446 518 419 535 q 484 494 472 501 q 516 474 496 486 q 542 459 536 463 q 563 446 549 456 q 583 431 576 436 q 618 390 604 411 l 664 335 l 679 261 q 601 219 661 258 q 483 147 542 181 q 318 51 340 74 q 275 28 296 28 q 225 58 260 24 q 215 65 221 61 q 207 70 210 68 q 201 75 204 72 q 194 88 199 76 z "},"?":{"ha":519,"x_min":165,"x_max":775,"o":"m 250 128 q 291 147 278 146 q 332 136 304 147 q 372 72 378 107 q 311 8 367 36 q 219 17 257 -12 q 250 128 165 69 m 431 753 l 438 704 q 426 701 436 704 q 408 696 417 697 q 389 694 400 694 q 344 710 363 692 q 315 751 317 743 q 312 764 313 760 q 312 778 311 768 q 313 796 313 789 q 443 975 357 931 l 524 1017 q 569 1021 536 1017 q 582 1019 575 1019 q 599 1015 599 1022 l 639 1015 q 701 984 664 1008 q 754 943 739 960 q 749 771 775 881 q 668 601 722 661 q 618 556 667 600 q 551 492 569 511 q 470 416 507 467 q 414 310 433 365 q 343 254 388 254 q 312 271 322 256 q 301 306 301 286 q 300 357 294 343 q 313 388 306 371 q 325 417 321 404 q 372 478 340 443 q 426 531 403 514 l 450 547 q 469 568 450 553 q 503 590 489 583 q 549 625 535 613 q 606 706 592 669 q 638 832 619 742 q 634 890 639 878 q 611 917 629 903 q 436 807 494 938 q 431 753 425 774 z "},"@":{"ha":893,"x_min":89,"x_max":996,"o":"m 626 343 q 561 343 581 353 q 494 264 528 329 q 464 160 460 199 q 522 138 483 121 q 563 170 540 149 q 590 204 585 192 q 639 321 615 251 q 626 343 639 335 m 533 -133 l 535 -158 q 525 -176 535 -172 q 426 -194 482 -194 q 225 -115 325 -194 q 132 0 168 -64 q 111 186 89 60 q 138 272 122 243 l 143 294 q 175 360 143 314 q 261 472 235 439 q 424 628 329 558 q 529 686 463 658 q 625 718 596 714 q 704 719 654 722 q 865 654 806 710 q 988 468 963 576 q 992 376 996 439 q 976 288 989 314 q 878 143 947 224 q 779 54 810 63 q 723 64 757 54 q 683 81 689 74 q 647 104 676 88 q 608 66 632 88 q 539 26 585 44 q 475 13 493 8 q 416 33 432 24 q 372 81 400 43 q 349 160 349 142 q 363 224 349 178 q 428 357 376 283 q 565 467 479 431 q 614 475 582 475 q 701 437 665 475 q 744 379 736 399 q 747 331 750 349 q 723 222 729 233 q 717 209 717 210 q 718 199 718 208 q 732 183 718 190 q 756 176 746 176 q 808 222 767 176 q 858 285 850 268 q 874 318 867 301 q 876 365 876 340 q 746 581 876 528 q 659 592 718 592 q 549 569 600 592 q 461 511 515 558 q 232 133 261 339 q 245 38 225 78 q 333 -46 265 -3 q 506 -64 394 -71 q 520 -71 517 -67 q 523 -92 524 -75 q 533 -133 522 -110 z "},"A":{"ha":710,"x_min":54,"x_max":790,"o":"m 631 449 l 633 449 q 656 589 638 461 q 675 761 674 717 l 671 831 q 614 765 658 831 q 528 615 569 699 q 483 558 496 558 q 442 493 474 549 q 417 432 410 438 q 507 444 472 443 q 618 458 596 468 q 631 449 625 449 m 576 921 q 644 963 607 963 q 725 929 681 963 q 789 847 783 888 q 790 824 790 839 q 790 793 790 808 q 787 754 789 778 q 783 713 785 731 q 779 667 782 696 q 775 615 776 638 q 758 447 774 593 q 735 21 728 147 q 735 -4 736 11 q 733 -21 733 -19 q 669 -26 721 -35 q 614 1 618 -18 q 607 14 607 7 l 619 338 l 601 336 q 484 325 574 336 q 371 307 394 314 q 308 247 342 307 q 287 203 300 226 q 274 178 274 181 l 251 151 q 224 73 251 136 q 171 -31 197 10 l 133 -83 l 85 -46 q 58 -22 63 -35 q 66 20 54 -8 q 103 98 78 49 q 142 172 129 147 q 201 340 201 286 q 222 374 196 361 q 239 386 224 375 q 293 442 278 415 q 435 700 322 510 q 576 921 501 822 z "},"B":{"ha":724,"x_min":103,"x_max":818,"o":"m 683 796 q 626 824 665 817 q 550 821 586 831 q 514 786 514 811 q 492 739 514 761 q 475 711 489 728 q 467 694 475 708 q 421 596 436 638 q 379 476 379 497 q 494 504 465 493 q 542 536 531 525 q 664 683 629 618 q 698 756 694 732 q 683 796 701 779 m 531 935 q 544 936 532 935 q 606 938 578 939 q 761 881 704 929 q 817 740 818 833 q 776 642 814 704 q 685 531 739 579 q 607 471 631 482 q 658 451 608 469 q 794 299 767 411 q 764 136 808 238 l 743 106 q 718 63 742 100 q 676 4 694 26 q 525 -96 585 -74 q 392 -122 468 -121 q 279 -100 315 -124 q 208 -23 219 -62 q 236 40 197 17 q 269 41 244 46 q 306 25 294 36 q 456 1 358 -24 q 541 43 510 18 q 615 121 572 68 q 665 230 656 175 q 653 306 675 285 q 432 369 579 408 q 377 359 404 365 q 340 351 350 353 q 328 346 329 350 q 317 321 328 342 q 252 151 303 294 q 172 4 201 7 q 135 35 157 3 q 124 52 133 38 q 110 77 114 67 q 106 94 106 88 q 113 127 103 110 q 133 186 122 144 q 238 456 151 240 q 367 765 325 671 q 394 864 408 860 q 390 876 394 868 q 388 889 386 885 q 437 914 388 897 q 504 928 486 931 q 531 935 531 928 z "},"C":{"ha":682,"x_min":161,"x_max":863,"o":"m 363 35 q 368 36 363 35 q 380 36 372 36 q 399 40 388 36 q 420 47 411 44 q 444 56 429 50 q 468 65 460 61 q 494 78 476 69 q 625 149 592 118 q 683 175 661 175 q 712 164 701 181 q 722 123 722 147 q 696 72 722 99 q 633 24 669 44 q 565 -12 618 8 q 444 -76 514 -50 q 326 -92 375 -103 q 189 21 217 -51 q 164 196 161 93 q 207 431 164 319 q 226 477 208 433 q 251 535 244 521 q 335 675 275 589 q 455 837 413 793 q 592 946 497 881 q 670 975 624 969 q 764 958 717 981 q 832 883 811 935 q 829 719 863 828 q 738 556 796 610 q 640 579 696 529 q 626 611 624 610 q 632 613 629 613 q 669 672 644 628 q 699 735 693 715 q 708 769 704 754 q 713 793 711 785 q 715 810 714 801 q 717 824 717 819 q 717 833 718 828 q 707 850 717 840 q 658 839 697 860 q 496 682 590 810 q 346 435 375 524 l 331 399 q 314 335 335 376 q 297 156 290 238 q 347 38 304 54 q 363 35 354 35 z "},"D":{"ha":815,"x_min":65,"x_max":950,"o":"m 251 -8 q 250 -21 250 -14 q 293 -29 275 -32 q 343 -25 311 -26 q 439 -4 417 -22 q 585 106 515 46 q 614 122 588 113 q 656 166 621 129 q 697 207 692 203 q 702 226 699 214 q 706 243 706 238 q 756 330 722 261 q 801 449 789 399 q 711 788 851 667 q 616 842 682 813 q 542 869 550 871 q 511 805 535 867 q 444 622 488 743 q 382 446 401 500 q 365 392 376 424 q 340 311 340 318 q 281 100 300 249 q 274 74 278 88 q 269 50 271 60 q 265 31 267 40 q 260 14 263 21 q 257 1 258 7 q 251 -8 254 -8 m 278 939 q 362 974 281 956 q 513 987 443 993 q 689 943 583 981 q 838 838 761 915 q 935 674 914 760 q 947 596 943 643 q 940 530 950 549 q 943 507 931 511 q 931 471 940 501 q 918 429 922 440 q 885 306 914 379 q 832 190 857 233 q 822 185 824 189 q 807 158 822 178 q 790 138 803 156 q 771 117 776 121 q 763 101 769 107 q 750 94 756 94 q 746 89 750 90 q 647 -10 721 53 q 521 -94 572 -74 q 463 -124 514 -100 q 381 -138 454 -132 q 294 -147 308 -144 q 150 -131 242 -156 q 119 -115 129 -126 q 108 -102 110 -104 q 99 -91 106 -100 q 89 -78 93 -82 q 72 -6 65 -47 q 114 42 78 36 q 140 36 124 43 q 149 106 140 75 q 206 281 157 138 q 283 524 254 425 q 333 664 311 622 q 343 696 336 671 q 383 817 360 757 l 393 863 l 378 869 q 340 869 353 861 q 306 883 328 865 q 282 915 285 901 l 278 939 z "},"E":{"ha":774,"x_min":133,"x_max":949,"o":"m 372 72 l 428 68 q 486 79 461 68 q 639 129 594 97 q 652 139 646 132 q 664 146 658 146 q 663 142 663 143 q 689 165 663 142 q 747 194 715 188 q 797 197 778 201 q 817 185 815 192 q 786 108 829 163 q 364 -54 658 -50 q 292 -31 324 -50 q 251 -6 260 -11 q 223 14 243 0 q 199 31 203 28 q 142 153 157 72 q 149 263 133 189 q 183 378 164 336 q 318 614 214 451 l 326 625 q 367 711 326 635 q 386 769 401 749 q 439 835 376 782 q 497 875 467 858 q 562 903 529 900 q 599 890 594 907 q 645 894 611 886 q 690 903 679 901 q 783 925 700 915 l 881 928 q 909 915 890 931 q 938 876 928 900 q 922 833 949 851 q 825 806 896 814 q 698 785 754 797 q 620 769 642 774 q 592 764 599 765 q 572 758 586 763 q 551 747 558 753 q 514 703 529 726 q 458 608 501 694 q 415 549 449 594 q 388 496 381 504 q 432 488 425 488 q 499 503 443 493 q 715 556 688 551 q 753 554 733 569 q 785 506 774 539 q 772 458 797 474 q 653 422 747 443 q 508 386 560 400 q 428 365 457 372 q 375 357 399 358 q 340 361 351 356 q 331 381 329 367 q 296 346 315 388 q 261 196 261 272 q 265 164 261 175 q 372 72 289 96 z "},"F":{"ha":660,"x_min":103,"x_max":940,"o":"m 842 907 q 903 892 899 897 q 908 875 911 883 l 918 868 q 924 807 940 856 q 910 792 922 794 q 847 792 899 790 q 610 785 754 804 q 525 763 539 779 q 455 619 501 735 q 406 499 408 503 q 651 504 450 486 q 725 513 706 515 q 755 471 750 510 q 733 416 760 432 q 638 393 706 400 q 490 385 569 386 q 378 388 411 383 q 365 363 365 378 q 295 200 340 317 q 250 58 250 83 q 234 3 239 31 q 225 -26 229 -24 q 199 -47 221 -46 q 167 -35 176 -49 q 124 60 103 -6 q 165 203 135 110 q 212 330 194 296 q 238 394 229 364 q 249 431 246 425 q 248 451 246 446 q 260 468 250 456 q 301 533 279 485 l 371 732 q 378 776 383 776 q 337 772 376 776 q 296 767 297 767 q 260 786 260 761 q 277 833 264 811 q 310 857 290 856 l 364 869 q 439 868 403 878 q 457 888 456 879 q 508 938 468 929 q 558 917 547 946 q 561 894 563 906 q 567 882 560 882 q 650 897 582 882 q 774 899 750 906 q 803 903 786 901 q 842 907 836 904 z "},"G":{"ha":704,"x_min":163,"x_max":865,"o":"m 865 811 q 840 766 865 789 q 795 743 815 743 q 768 751 775 743 q 653 826 717 826 q 531 772 589 826 q 431 636 472 718 q 357 456 389 554 q 288 122 297 274 q 300 57 288 78 q 355 36 313 36 q 469 77 397 36 q 588 192 540 118 q 647 343 647 304 q 626 365 647 365 q 526 371 557 365 q 486 397 496 376 q 468 431 468 403 q 593 488 468 488 q 725 457 681 485 q 769 344 769 429 q 765 299 769 319 q 690 130 744 207 q 569 6 636 53 q 318 -92 429 -92 q 210 -35 257 -92 q 163 113 163 21 q 219 461 163 296 q 497 913 338 811 q 643 950 557 950 q 694 946 665 950 q 809 893 753 931 q 865 811 865 856 z "},"H":{"ha":796,"x_min":103,"x_max":1054,"o":"m 806 215 l 769 92 q 738 -92 738 -56 q 677 -80 699 -96 q 650 -62 656 -64 q 629 31 599 -33 q 668 172 632 36 q 692 244 676 196 q 731 367 726 363 l 731 381 q 640 387 731 388 q 472 376 549 386 l 353 376 q 313 255 346 361 q 260 53 279 149 q 213 -126 240 -42 q 144 -108 160 -108 q 113 -84 124 -103 q 108 -43 103 -65 q 119 10 119 -32 q 135 69 126 24 q 185 258 144 114 q 235 413 225 403 l 235 428 q 250 471 235 449 q 264 528 264 513 q 344 724 264 528 l 344 731 q 379 805 347 733 q 435 928 411 876 q 458 983 458 979 q 500 997 478 1006 q 558 940 535 983 l 572 918 l 521 818 q 467 710 467 722 q 433 613 444 650 q 410 549 421 575 q 392 510 399 524 q 386 494 386 497 q 456 500 386 499 q 706 506 679 501 l 778 513 q 874 816 851 749 q 922 912 897 883 q 967 940 947 940 q 995 924 972 940 q 1022 897 1018 908 q 1015 811 1054 868 q 976 721 993 772 q 953 658 958 669 q 943 619 953 629 q 919 576 933 610 q 906 524 906 542 q 892 493 906 507 q 806 215 829 276 z "},"I":{"ha":568,"x_min":57,"x_max":856,"o":"m 357 -34 q 344 -36 357 -34 q 332 -51 332 -37 q 319 -74 332 -65 q 287 -78 307 -82 q 251 -57 267 -74 q 146 -36 233 -32 q 87 -26 117 -40 q 63 6 57 -12 q 103 42 64 24 q 199 63 143 61 l 257 64 q 281 126 275 99 q 292 172 288 154 q 317 250 297 189 q 368 419 363 392 q 414 568 389 464 q 467 767 478 763 q 393 762 453 768 q 326 751 333 756 q 303 754 319 742 q 282 782 286 767 q 290 821 276 813 q 362 849 304 833 q 473 870 419 864 q 554 900 526 876 q 603 908 583 910 q 699 903 619 897 q 849 867 826 915 q 846 823 856 840 q 813 807 836 806 q 719 799 788 800 q 621 779 628 790 q 611 767 617 775 q 603 756 606 758 q 588 696 604 743 q 556 594 572 649 q 501 439 511 458 q 396 65 500 433 q 509 76 431 68 q 593 79 588 83 q 604 60 599 75 q 600 -3 632 22 q 492 -26 568 -28 q 357 -34 382 -31 z "},"J":{"ha":438,"x_min":-79,"x_max":643,"o":"m 478 418 l 392 160 q 374 114 392 132 q 285 -97 296 -79 q 265 -135 265 -129 q 258 -142 265 -142 q 250 -156 250 -147 q 197 -222 243 -172 q 128 -283 150 -271 q 21 -296 76 -308 q -69 -244 -35 -283 q -78 -203 -79 -231 q -69 -153 -76 -176 q -51 -131 -62 -131 q -17 -157 -36 -131 q 142 -94 58 -224 q 178 -12 149 -78 q 260 174 254 154 q 272 201 265 193 q 279 224 272 203 q 290 263 286 244 l 349 428 q 376 523 363 492 q 425 663 389 554 q 478 850 482 844 l 400 836 q 332 832 336 811 q 332 839 331 835 l 332 854 q 319 860 328 851 q 303 901 303 879 q 336 927 303 913 q 400 946 369 942 q 477 955 431 950 q 536 961 524 960 q 581 951 543 967 q 629 924 618 935 q 637 869 643 896 q 604 770 631 843 q 569 672 578 697 q 539 586 560 646 q 478 418 492 453 z "},"K":{"ha":699,"x_min":92,"x_max":956,"o":"m 110 60 q 119 74 119 60 q 124 103 119 89 q 133 139 128 117 q 156 201 144 174 q 176 263 176 251 q 194 301 176 274 q 208 369 208 339 q 240 445 236 431 q 256 490 244 460 q 278 552 267 519 q 298 606 289 585 q 322 664 307 626 q 361 739 354 739 l 361 754 q 366 768 361 758 q 379 795 371 778 q 394 825 388 813 q 418 882 411 851 q 433 904 426 897 q 493 925 468 928 q 525 907 518 922 q 533 824 553 851 q 404 536 440 629 l 414 543 q 529 639 450 579 l 700 778 q 776 828 728 792 q 893 904 885 906 q 932 876 908 911 q 953 822 956 840 q 947 798 956 808 q 891 764 938 788 q 836 725 844 740 q 744 657 797 694 q 599 540 626 581 q 588 536 594 540 q 578 533 582 532 q 551 513 558 521 q 517 482 538 481 q 444 431 496 471 q 497 260 457 333 q 579 129 538 171 q 674 61 642 61 q 708 42 686 57 q 733 15 731 26 q 731 -24 736 3 q 706 -65 726 -51 q 635 -62 683 -85 q 558 -21 613 -64 q 475 58 504 22 q 369 254 390 178 q 351 319 363 285 q 338 363 339 353 l 333 351 q 325 331 333 350 q 271 158 303 274 q 192 -67 207 -44 q 144 -67 175 -89 q 103 6 92 -35 q 110 60 103 15 z "},"L":{"ha":592,"x_min":122,"x_max":650,"o":"m 299 353 l 299 349 q 294 339 296 349 q 289 325 292 329 q 279 285 279 317 q 254 190 264 247 q 247 106 244 133 q 288 41 253 58 q 340 24 324 24 q 468 43 372 17 q 504 50 483 47 q 570 67 525 53 q 622 75 615 81 q 642 26 650 51 q 585 -26 636 14 q 499 -75 533 -65 q 379 -95 458 -93 q 269 -85 300 -97 q 125 78 172 -61 q 125 159 122 104 q 133 218 128 214 q 137 233 138 222 q 147 276 136 244 q 153 325 157 307 q 167 347 160 340 q 174 372 176 358 q 185 404 171 385 l 197 425 q 219 487 199 435 q 246 550 239 539 l 246 553 q 261 582 251 567 q 349 765 269 638 q 461 924 428 892 q 554 953 518 989 q 575 906 569 936 q 565 872 581 875 q 426 643 546 860 l 372 531 q 310 378 339 460 q 299 353 299 367 z "},"M":{"ha":1013,"x_min":51,"x_max":1167,"o":"m 969 -50 q 957 -59 961 -60 q 949 -58 953 -58 q 938 -65 944 -58 q 921 -71 932 -71 q 876 -46 886 -71 q 865 13 865 -21 q 868 72 865 47 q 947 401 871 97 q 1022 719 1022 706 q 989 661 1015 710 q 933 563 963 613 l 836 381 q 802 322 821 360 q 707 182 783 285 q 624 91 693 154 q 515 28 554 28 q 447 64 476 28 q 417 144 417 100 q 431 276 417 189 q 501 567 486 521 q 517 625 517 613 q 514 640 517 638 q 506 631 510 638 q 344 318 435 515 q 117 -81 146 -47 q 74 -53 96 -81 q 51 10 51 -26 q 70 83 51 46 q 108 149 89 121 q 133 189 126 178 q 143 221 140 200 q 194 311 163 246 q 297 486 236 376 q 465 776 426 722 q 472 791 468 782 q 487 823 475 800 q 510 864 499 846 q 558 910 539 910 q 624 876 589 910 q 658 785 658 842 q 643 664 658 768 q 588 405 625 578 q 550 213 550 232 q 560 193 550 193 q 576 206 565 193 q 599 237 579 207 q 643 302 618 267 q 690 372 668 338 q 915 756 760 481 q 958 822 929 776 q 1032 931 1017 919 q 1074 942 1047 943 q 1134 910 1101 942 q 1167 840 1167 878 q 1147 713 1167 801 q 1100 540 1126 624 q 1058 376 1094 511 q 1022 199 1022 240 l 1022 188 q 1001 38 1001 149 q 969 -50 993 -25 z "},"N":{"ha":799,"x_min":42,"x_max":1011,"o":"m 643 88 q 779 486 681 88 q 815 669 803 565 q 860 856 860 838 l 860 886 q 872 904 865 886 q 878 950 878 922 q 897 997 878 978 q 960 1022 919 1035 q 1006 978 1000 1010 q 968 764 1011 947 q 951 672 968 747 q 928 564 933 596 q 903 476 914 474 q 757 29 846 232 q 672 -69 722 -50 q 575 -33 621 -89 q 514 77 533 21 q 482 239 494 133 q 456 557 453 424 q 444 692 458 690 q 408 621 432 692 q 348 462 383 550 q 311 368 313 374 q 274 267 286 318 q 193 24 218 119 q 158 -97 168 -71 q 138 -129 149 -122 q 90 -117 126 -136 q 48 -61 54 -99 q 56 15 42 -24 q 92 116 65 53 q 129 236 118 179 q 206 438 176 346 q 275 593 207 444 q 408 865 328 743 q 485 901 433 907 q 550 854 536 896 q 581 579 578 790 q 582 493 581 519 q 586 425 583 467 q 604 299 589 357 q 614 219 607 279 q 643 88 631 88 z "},"O":{"ha":701,"x_min":138,"x_max":875,"o":"m 325 53 q 384 44 351 39 q 440 66 417 49 q 535 165 464 83 q 635 295 607 247 q 691 447 663 343 q 721 565 719 550 q 721 678 722 581 q 697 768 718 744 q 592 797 651 817 q 474 690 551 781 q 397 574 396 600 q 390 553 397 563 q 317 389 354 514 q 275 133 269 228 q 325 53 276 78 m 557 901 q 647 931 622 940 q 851 714 818 893 q 856 507 875 600 q 749 268 838 414 q 495 -31 640 54 q 260 -49 350 -117 q 146 85 150 32 q 165 300 138 161 q 172 322 174 308 q 175 349 171 335 q 188 390 179 363 q 201 444 196 417 q 356 754 264 633 q 557 901 450 851 z "},"P":{"ha":656,"x_min":111,"x_max":871,"o":"m 361 419 l 360 392 q 363 383 360 389 q 399 383 365 378 q 583 458 485 397 q 656 532 614 479 q 719 718 733 661 q 639 814 706 790 q 544 818 578 824 q 513 799 522 811 q 488 746 504 788 q 429 624 443 661 q 380 469 399 517 q 361 419 361 421 m 174 257 l 181 303 q 211 360 197 303 q 218 386 214 372 q 228 419 226 414 q 265 510 239 456 q 343 743 307 664 q 355 772 349 757 q 364 795 361 788 q 369 810 367 803 q 367 826 372 821 q 358 862 354 832 q 383 911 361 892 q 540 942 418 951 q 629 940 557 940 q 658 928 638 936 q 707 904 707 910 q 724 892 707 893 q 781 853 742 890 q 856 679 871 768 q 839 610 850 624 q 817 580 817 593 q 776 503 817 567 q 619 336 707 392 q 488 290 561 310 q 378 272 415 271 q 348 268 375 272 q 314 253 321 264 q 288 172 288 190 q 253 79 279 157 q 218 -40 228 1 q 196 -69 213 -58 q 164 -79 179 -79 q 138 -61 149 -79 q 117 -35 124 -49 q 115 25 111 -22 q 143 144 118 72 q 158 200 150 174 q 174 257 174 249 z "},"Q":{"ha":681,"x_min":138,"x_max":844,"o":"m 361 196 q 392 228 369 215 q 439 235 415 242 q 497 168 469 235 q 510 135 497 163 q 638 417 572 231 q 667 485 639 422 q 718 693 718 606 q 714 775 726 751 q 665 815 701 799 q 521 780 594 840 q 390 578 447 719 q 279 283 306 396 q 274 76 253 171 q 294 11 276 32 q 344 0 311 -10 q 428 38 385 4 l 358 168 q 361 196 347 179 m 758 393 q 750 385 750 393 q 715 267 760 353 q 574 13 661 118 q 590 -17 585 -10 q 608 -50 593 -26 q 628 -87 624 -74 q 653 -157 658 -137 q 616 -176 647 -176 q 556 -165 585 -176 q 524 -136 528 -154 q 514 -119 515 -128 q 511 -110 513 -111 q 482 -71 493 -103 q 324 -119 401 -128 q 243 -78 292 -114 q 181 -12 194 -43 q 142 138 146 57 q 163 332 138 218 q 208 478 176 385 q 246 572 240 572 q 250 594 250 576 q 293 679 250 611 q 369 776 336 747 q 503 901 440 869 q 555 920 514 908 q 618 933 596 932 q 804 832 750 942 q 832 782 828 804 q 839 732 836 760 q 843 696 842 704 q 815 505 844 617 q 758 393 785 393 z "},"R":{"ha":692,"x_min":43,"x_max":861,"o":"m 656 810 q 545 825 572 831 q 508 779 518 819 q 497 754 508 776 q 439 624 460 679 q 356 449 357 458 q 360 435 356 439 q 511 485 396 438 q 731 706 738 590 q 706 767 731 733 q 656 810 682 801 m 465 928 q 729 899 611 961 q 826 812 792 861 q 860 717 860 763 q 849 631 861 672 q 736 499 826 575 q 568 390 646 424 q 383 321 449 332 q 600 67 451 194 q 729 -25 675 1 q 729 -72 740 -37 q 710 -110 718 -107 q 615 -90 668 -125 q 356 136 485 -12 q 324 182 335 160 q 308 211 313 204 q 282 274 294 238 q 158 -83 240 133 q 121 -98 154 -99 q 65 -79 88 -97 q 43 -46 43 -57 q 82 53 43 -35 q 122 168 90 103 q 231 441 129 192 q 376 783 333 690 q 372 813 382 799 q 339 828 361 828 q 323 860 324 844 q 338 885 322 876 l 465 928 z "},"S":{"ha":688,"x_min":182,"x_max":1010,"o":"m 810 975 q 911 936 864 972 q 933 729 1010 860 q 836 625 890 656 q 769 621 797 610 q 743 658 742 632 q 794 740 744 685 q 821 864 871 853 q 733 853 799 868 q 667 831 667 838 l 661 824 q 583 778 656 825 q 507 724 510 731 q 475 696 504 708 q 430 654 450 681 q 378 571 410 628 q 344 503 354 539 q 376 404 328 440 q 468 346 424 368 q 596 260 539 306 q 665 189 653 215 q 676 29 706 132 q 644 -20 664 3 q 610 -42 625 -43 q 584 -52 597 -44 q 562 -65 571 -60 q 484 -81 553 -71 q 369 -90 415 -92 l 314 -74 q 311 -61 317 -67 q 292 -54 306 -56 q 229 8 263 -36 q 190 67 196 51 q 183 89 183 83 q 185 98 182 94 q 192 103 189 101 q 203 108 196 104 q 215 113 211 111 q 276 111 261 143 q 373 39 304 60 q 519 47 442 18 q 535 153 583 75 q 505 186 529 167 q 460 225 481 206 q 390 258 429 239 q 307 315 350 278 q 247 383 264 351 q 217 478 215 417 q 247 594 218 540 q 328 710 264 632 q 422 807 392 788 l 467 849 q 482 856 468 850 q 549 899 517 869 q 810 975 707 975 z "},"T":{"ha":636,"x_min":226,"x_max":922,"o":"m 694 778 q 640 774 661 774 q 613 706 629 738 q 603 672 608 690 q 589 626 589 632 q 542 495 581 615 q 500 368 503 375 l 433 186 q 385 60 406 133 q 353 -38 365 -12 q 333 -68 340 -64 q 306 -74 325 -72 q 270 -51 288 -75 q 254 -2 253 -28 q 277 96 256 24 q 317 208 299 168 q 327 248 321 228 q 333 271 333 268 q 356 326 349 289 q 457 654 364 364 q 481 707 469 675 q 492 736 492 714 l 501 757 q 508 758 504 760 q 517 763 511 757 l 515 763 l 324 743 q 249 756 271 739 q 232 799 226 774 q 311 847 240 833 q 442 867 339 854 q 713 892 532 879 q 772 885 725 892 q 839 872 819 879 q 915 806 901 858 q 900 765 922 776 q 869 756 890 763 q 839 747 849 750 q 808 750 824 744 q 792 763 799 758 q 694 778 775 772 z "},"U":{"ha":669,"x_min":147,"x_max":942,"o":"m 472 121 q 534 188 493 129 q 575 256 575 246 q 593 286 575 265 q 715 515 618 311 q 808 827 800 786 q 832 913 817 868 q 868 920 850 928 q 896 908 886 913 q 916 897 906 903 q 929 889 926 890 q 935 843 942 874 q 875 608 899 672 q 834 501 851 543 q 808 438 817 460 q 777 368 799 417 q 747 300 756 319 l 747 292 q 717 256 731 282 q 697 228 703 231 l 685 196 q 668 178 683 188 q 649 160 653 169 q 644 147 646 150 q 524 11 597 76 q 402 -73 450 -54 q 318 -83 354 -92 q 178 54 208 -56 q 192 382 147 164 q 263 624 213 483 q 369 862 314 765 q 470 950 424 958 q 531 901 517 942 q 511 839 546 861 q 464 761 494 821 q 422 681 433 701 q 314 308 336 433 q 285 172 289 193 q 282 113 282 150 q 290 99 285 107 q 297 85 294 90 q 303 75 299 81 q 318 64 307 68 q 419 69 368 40 q 449 94 428 85 q 455 91 453 89 q 460 100 457 93 q 472 121 458 107 z "},"V":{"ha":681,"x_min":260,"x_max":979,"o":"m 326 856 q 372 958 318 933 q 418 958 394 967 q 446 892 450 943 q 449 800 451 874 q 430 650 446 726 q 409 478 414 574 q 400 301 404 382 q 394 151 393 193 q 406 110 394 108 q 422 134 414 110 q 436 171 431 158 q 506 325 482 260 q 556 426 524 365 q 604 523 589 486 q 674 661 619 560 q 769 819 740 764 q 890 949 849 949 q 936 933 921 953 q 890 761 979 893 q 728 492 800 629 q 699 429 708 444 q 615 279 681 413 l 514 46 q 495 6 508 28 q 482 -19 482 -15 q 424 -67 467 -43 q 367 -83 381 -90 q 353 -60 354 -81 q 343 -31 351 -39 q 311 -18 335 -24 q 276 48 286 7 q 260 217 267 89 q 286 507 271 399 q 289 575 283 528 q 292 636 294 622 q 305 706 299 657 q 317 776 311 756 q 326 856 326 851 z "},"W":{"ha":1000,"x_min":179,"x_max":1261,"o":"m 1088 417 q 1081 407 1088 417 q 1069 386 1075 397 q 1064 365 1064 375 q 991 223 1064 354 q 878 41 918 92 q 778 -48 838 -10 q 699 -86 718 -86 q 646 -56 658 -89 q 627 -25 639 -49 q 613 14 615 -1 q 609 180 604 99 q 624 305 614 261 q 643 378 633 349 q 661 432 653 408 q 674 476 679 476 q 660 460 669 476 q 638 414 651 444 q 471 104 586 299 q 426 41 464 96 q 365 -35 389 -14 q 243 -62 306 -93 q 200 -32 221 -60 q 185 21 179 -4 q 192 163 181 56 q 215 341 204 271 q 254 541 226 411 q 290 713 282 671 q 314 784 300 733 q 329 842 328 835 q 351 879 329 869 q 397 883 372 889 q 431 863 421 876 q 450 746 478 813 q 350 343 388 593 q 321 103 310 107 q 374 164 343 97 q 562 502 451 292 q 678 724 672 713 q 717 792 710 779 q 735 824 725 806 q 753 853 746 842 q 767 875 760 864 q 788 899 779 894 q 874 832 846 899 q 872 779 882 803 q 860 739 872 778 q 842 671 849 700 q 807 557 815 601 q 778 417 799 513 q 733 154 733 219 q 742 65 732 89 q 772 78 747 44 q 819 161 796 111 q 856 236 842 211 q 1057 661 960 432 q 1120 826 1097 776 q 1164 888 1143 875 q 1194 892 1171 893 q 1231 880 1218 892 q 1249 864 1244 868 q 1261 835 1261 851 q 1193 654 1249 792 q 1119 476 1138 517 q 1088 417 1100 436 z "},"X":{"ha":728,"x_min":58,"x_max":932,"o":"m 511 631 l 517 575 q 533 499 517 565 q 676 649 646 611 q 840 875 806 803 q 859 903 854 901 q 871 903 864 904 q 881 903 878 903 q 928 842 924 900 q 885 714 932 785 q 849 660 853 682 q 713 507 742 531 q 601 401 626 433 q 569 368 574 371 q 639 178 597 264 q 717 72 681 93 q 731 69 719 69 q 746 72 743 68 q 769 56 765 75 q 774 -3 774 29 q 747 -33 778 -18 q 558 69 640 -82 q 461 260 501 147 q 449 246 449 247 q 292 80 408 207 q 165 -66 175 -47 q 128 -78 156 -85 q 103 -79 121 -81 q 81 -76 85 -78 q 72 -47 76 -68 q 85 42 58 -25 q 121 91 96 68 q 169 135 146 114 q 206 170 192 156 q 239 201 221 185 q 268 228 257 218 q 279 240 279 238 q 284 249 279 243 q 297 263 289 254 q 310 279 304 271 q 425 388 333 299 q 407 501 417 431 q 388 581 397 571 q 393 590 385 588 q 386 626 396 593 q 367 750 376 658 q 351 871 357 851 q 385 907 353 875 q 454 904 417 929 q 492 836 492 879 q 500 785 492 793 q 502 724 497 779 q 511 654 507 668 q 511 631 506 638 z "},"Y":{"ha":700,"x_min":292,"x_max":967,"o":"m 292 -50 q 292 -45 292 -50 q 292 -34 292 -40 q 294 -24 293 -28 q 297 -10 294 -19 q 301 4 300 -1 q 306 22 303 10 q 311 43 308 35 q 353 197 314 126 q 396 343 353 240 l 411 390 q 319 588 332 493 q 307 813 299 658 q 317 875 307 850 q 344 944 332 919 q 407 938 385 979 q 428 826 429 896 q 483 507 436 546 q 499 506 489 501 q 513 510 508 510 q 528 522 517 511 q 546 541 539 533 q 569 567 553 549 q 614 615 586 586 q 700 713 642 643 q 882 900 846 883 q 922 914 897 907 q 935 894 931 911 q 944 871 940 876 q 953 858 947 865 q 966 833 967 842 q 907 765 965 824 q 810 669 876 739 q 704 551 743 600 q 536 368 578 406 q 529 365 536 365 q 507 274 519 333 q 483 196 499 246 q 439 51 463 124 q 396 -78 414 -43 q 358 -106 378 -112 q 304 -72 350 -104 q 292 -50 292 -60 z "},"Z":{"ha":725,"x_min":60,"x_max":933,"o":"m 370 42 q 393 47 370 42 q 519 58 415 51 q 653 64 622 64 q 701 39 683 64 q 714 2 719 32 q 690 -42 708 -28 q 657 -47 683 -42 q 550 -57 588 -60 q 375 -69 513 -54 q 206 -81 275 -85 q 125 -75 138 -78 q 72 -41 83 -69 q 70 22 60 -12 q 97 74 81 56 q 436 406 250 240 q 664 622 551 504 q 683 644 678 638 q 701 662 689 650 q 717 680 713 674 q 731 696 722 686 q 744 712 739 706 q 753 725 749 718 q 765 753 761 739 q 763 801 778 792 q 649 818 747 811 q 383 797 550 825 q 361 806 375 794 q 347 825 347 818 q 342 865 364 847 q 353 911 331 889 q 425 926 361 915 q 560 938 489 936 q 686 933 631 939 q 778 923 742 928 q 863 899 815 918 q 921 853 910 881 q 928 801 933 818 q 922 777 924 783 q 913 754 919 771 q 903 729 906 738 q 804 596 878 682 q 604 392 731 510 q 388 199 478 275 q 246 72 299 122 q 283 35 215 35 q 370 42 325 33 z "},"[":{"ha":458,"x_min":57,"x_max":886,"o":"m 828 1060 l 833 1060 q 851 1050 846 1060 q 858 1039 857 1040 q 867 1025 865 1028 q 883 988 886 1003 q 851 961 881 974 q 632 903 699 911 q 564 879 569 886 q 536 822 558 872 q 514 767 514 772 q 474 691 507 760 q 438 608 440 622 q 422 564 435 594 q 365 415 386 482 q 338 336 343 349 q 323 288 338 313 q 299 225 308 263 l 282 192 q 269 136 282 181 q 264 121 267 133 q 231 18 250 74 q 211 -46 211 -37 l 204 -85 l 246 -76 q 451 -56 396 -56 q 480 -54 465 -49 q 497 -61 494 -60 q 522 -90 500 -61 q 528 -122 533 -117 q 462 -141 524 -126 q 354 -162 400 -156 l 303 -162 q 257 -175 303 -175 q 217 -189 246 -181 q 182 -200 188 -197 q 92 -200 121 -225 q 63 -162 68 -190 q 74 -110 57 -133 q 92 -73 92 -97 q 131 90 92 -49 q 181 246 169 229 q 224 336 181 271 q 337 649 267 476 q 440 874 407 822 q 451 942 451 921 q 519 989 451 989 q 586 994 539 992 q 806 1051 717 1004 q 828 1060 822 1060 z "},"\\":{"ha":458,"x_min":211,"x_max":538,"o":"m 317 338 l 311 393 q 303 435 300 403 q 292 468 306 468 q 256 635 286 488 q 226 797 226 782 q 219 888 226 813 q 240 1004 211 964 q 313 1026 269 1044 q 327 992 322 1018 q 328 940 332 967 q 335 840 324 914 q 363 667 346 765 q 383 533 379 569 q 394 457 401 475 q 400 442 393 442 q 406 422 407 432 q 421 354 406 413 q 446 272 436 296 q 449 244 446 261 q 453 224 453 226 q 461 189 453 221 q 492 74 479 115 q 514 5 506 32 q 526 -31 522 -22 q 533 -54 529 -39 q 535 -73 538 -69 q 533 -101 533 -76 q 513 -140 533 -126 l 463 -168 q 443 -158 447 -168 q 424 -132 418 -154 q 379 89 425 -114 q 317 338 333 292 z "},"]":{"ha":458,"x_min":-76,"x_max":678,"o":"m 501 1035 q 644 1043 596 1060 q 658 1024 649 1043 q 667 993 667 1006 q 678 969 678 974 q 667 949 678 964 q 628 875 656 933 q 602 807 601 817 q 593 796 603 797 q 587 785 586 794 q 581 755 588 775 q 569 735 575 735 q 563 721 563 733 q 551 676 563 708 q 530 616 540 644 q 513 572 519 588 q 503 548 507 557 q 496 526 499 539 q 476 442 482 494 q 442 364 451 406 l 433 325 q 419 267 433 317 q 396 200 406 218 q 371 103 396 181 q 349 6 354 17 l 336 -15 q 329 -44 336 -39 l 325 -67 l 326 -72 q 321 -108 321 -72 q 215 -175 321 -183 l 167 -175 q 121 -172 133 -175 q 42 -171 75 -176 q -4 -164 25 -172 q -36 -156 -33 -156 l -57 -128 l -76 -114 l -60 -107 q 26 -77 -50 -94 q 118 -64 103 -60 l 165 -67 l 203 -62 l 217 -25 q 224 32 224 13 q 240 69 243 47 q 268 149 263 131 q 285 212 269 164 q 304 278 300 260 q 322 338 308 296 q 339 392 336 379 q 351 433 340 404 q 363 478 361 463 q 418 646 374 514 q 483 846 463 778 q 514 933 503 883 q 358 923 472 931 q 243 921 244 915 q 238 931 240 924 q 233 938 236 938 q 222 947 228 936 q 215 968 217 957 q 269 1004 214 986 q 374 1028 324 1022 q 469 1038 446 1038 l 501 1035 z "},"^":{"ha":619,"x_min":142,"x_max":644,"o":"m 556 374 q 526 435 543 383 q 453 599 496 528 q 440 621 444 613 q 431 637 436 629 q 424 647 426 644 q 418 653 422 650 q 392 650 413 656 q 278 485 346 636 q 235 413 263 439 q 186 399 207 388 q 179 519 142 426 q 199 559 189 538 q 214 590 208 581 q 239 629 224 611 q 336 734 267 678 q 446 786 406 790 q 529 673 472 783 q 632 457 586 563 q 613 390 644 429 q 556 374 582 351 z "},"_":{"ha":619,"x_min":38,"x_max":593,"o":"m 485 81 q 569 58 546 81 q 581 12 593 35 q 539 -6 569 -11 q 226 -19 322 -19 q 110 -12 131 -19 q 60 15 75 -12 q 90 56 38 44 l 131 61 q 485 81 218 81 z "},"`":{"ha":490,"x_min":353,"x_max":519,"o":"m 483 751 q 501 707 483 751 q 519 648 519 663 q 493 608 519 633 q 449 581 463 581 q 428 622 435 581 q 388 699 424 638 q 353 781 353 760 q 377 822 353 803 q 417 840 401 840 q 483 751 446 840 z "},"a":{"ha":619,"x_min":90,"x_max":715,"o":"m 456 431 q 286 232 404 431 q 249 144 265 199 q 335 194 271 142 q 369 224 347 206 q 400 250 390 242 q 425 272 410 258 q 472 329 451 299 l 503 379 q 456 431 479 431 m 129 68 q 111 103 129 81 q 197 319 90 124 q 219 349 206 328 q 236 372 232 369 q 240 383 236 378 q 250 388 244 388 l 261 410 q 315 469 267 422 q 393 535 364 517 q 453 551 422 553 q 506 532 483 550 q 524 517 508 528 q 642 414 550 496 l 618 344 q 635 175 586 253 q 682 140 649 146 q 715 110 715 135 q 678 44 715 53 q 515 133 569 29 q 490 194 496 160 q 458 158 481 181 q 172 29 269 -33 q 149 51 168 38 q 129 68 129 65 z "},"b":{"ha":617,"x_min":158,"x_max":696,"o":"m 239 486 l 254 533 q 280 594 261 539 q 314 683 299 649 q 385 850 365 796 q 404 882 393 863 q 435 926 428 922 q 477 913 444 929 q 519 881 510 896 q 523 856 528 872 q 499 800 518 839 q 475 752 479 761 q 463 726 471 743 q 433 663 454 708 q 390 560 413 618 q 349 451 367 503 q 325 382 332 400 l 318 351 l 354 392 q 450 461 404 442 q 583 496 529 496 q 681 422 638 496 q 692 347 696 392 q 668 271 688 303 q 646 239 647 256 q 575 146 644 222 q 480 71 539 108 q 399 26 421 33 q 363 17 376 18 q 318 8 328 11 q 250 53 267 14 q 236 85 233 71 q 256 90 253 85 q 271 96 256 99 q 511 246 343 90 q 572 335 563 313 q 571 374 582 357 q 481 357 554 406 q 318 215 375 292 l 263 147 q 247 133 263 142 q 219 125 231 125 q 193 156 197 135 q 174 169 176 167 q 167 183 172 171 q 178 269 158 203 q 228 444 213 432 q 239 486 239 464 z "},"c":{"ha":506,"x_min":129,"x_max":564,"o":"m 544 392 q 523 340 539 365 q 494 315 507 315 q 481 308 481 315 q 466 299 481 300 q 435 306 451 299 q 417 322 419 313 q 426 373 417 329 q 428 430 436 417 q 394 432 421 443 q 317 356 343 403 q 273 238 292 310 q 256 150 254 167 q 268 118 258 124 q 342 124 310 107 q 426 181 374 140 q 438 196 429 182 q 456 214 447 210 q 489 232 467 232 l 518 232 q 558 199 543 224 q 558 182 564 186 l 551 175 q 503 109 557 164 q 433 54 449 54 q 418 46 418 54 q 376 20 418 40 q 307 -6 333 0 q 190 21 243 -17 q 136 122 136 58 q 159 282 129 186 q 236 436 189 378 q 346 537 307 521 q 429 553 385 553 q 506 506 506 535 l 513 499 q 540 456 525 499 q 544 392 556 413 z "},"d":{"ha":558,"x_min":108,"x_max":776,"o":"m 242 157 q 251 137 239 142 q 293 143 264 132 q 363 184 322 154 q 422 238 403 214 q 451 298 440 261 q 431 363 463 335 q 338 343 392 393 q 242 157 267 279 m 563 -13 q 557 -17 563 -13 q 542 -23 551 -21 q 517 -28 533 -25 q 485 -18 501 -31 q 460 11 468 -6 q 444 147 447 44 l 388 96 q 225 14 300 14 q 169 51 203 18 q 125 108 135 85 q 138 241 108 149 q 217 390 167 333 q 331 477 261 457 q 451 465 400 497 q 501 474 496 443 q 540 593 503 479 q 640 843 576 707 q 697 899 668 901 q 737 887 715 899 q 767 852 758 875 q 761 801 776 829 q 672 597 725 739 q 597 375 619 456 q 570 176 575 294 q 574 40 565 58 q 576 6 576 18 q 563 -13 575 -6 z "},"e":{"ha":464,"x_min":133,"x_max":574,"o":"m 407 450 q 355 420 389 450 q 296 351 321 390 q 342 335 299 335 q 397 341 385 335 q 437 376 408 347 q 467 415 465 404 q 422 450 467 446 l 407 450 m 417 551 q 536 512 499 551 q 574 438 574 472 l 574 426 q 535 331 574 397 q 475 269 515 296 q 394 240 435 242 q 317 245 354 239 q 272 251 281 251 q 257 242 264 251 q 247 185 247 226 q 269 131 251 146 q 311 115 286 115 q 358 125 336 115 q 410 160 381 135 q 457 185 440 185 q 490 168 474 185 q 508 136 507 151 q 444 52 504 104 q 307 0 383 0 q 182 44 231 0 q 133 171 133 89 q 137 239 133 203 q 161 328 140 275 q 228 442 182 381 q 326 527 274 503 q 417 551 379 551 z "},"f":{"ha":417,"x_min":101,"x_max":713,"o":"m 229 19 l 218 -117 q 204 -168 214 -158 q 166 -155 196 -174 q 121 -119 136 -136 q 103 -90 106 -101 q 106 -43 101 -79 q 113 15 113 -22 q 133 142 113 61 q 158 263 153 224 q 185 376 185 350 q 204 414 185 403 q 225 460 206 425 q 308 667 283 622 q 349 754 333 736 q 401 824 358 778 q 478 897 444 869 q 591 933 547 933 q 688 883 635 933 q 710 856 707 863 q 713 829 713 849 q 664 736 707 803 q 610 668 621 669 q 588 663 593 663 q 558 692 558 663 q 575 757 558 722 q 592 796 592 779 q 554 819 592 819 q 510 780 543 814 q 478 738 478 746 q 451 696 471 719 q 426 648 426 661 q 418 635 426 635 q 399 590 413 615 q 371 542 386 557 l 372 542 q 347 473 346 479 q 381 470 349 467 q 444 482 413 474 q 503 483 475 490 q 528 440 518 474 q 532 399 538 407 q 443 368 526 383 q 389 356 426 364 q 307 333 307 340 q 293 315 293 333 q 287 283 293 297 q 265 194 281 268 q 249 104 249 121 q 238 54 238 90 q 229 19 229 39 z "},"g":{"ha":506,"x_min":81,"x_max":604,"o":"m 436 406 q 394 439 435 446 q 299 364 353 432 q 264 297 278 336 q 268 200 235 213 q 338 215 313 201 q 396 282 363 229 q 436 406 442 346 m 339 535 q 431 549 390 560 q 507 507 464 544 q 585 413 574 440 q 569 325 604 369 q 538 281 551 307 q 521 231 525 254 q 494 139 517 207 q 443 -37 469 67 q 372 -201 413 -143 q 297 -278 332 -258 q 217 -274 260 -293 q 143 -210 174 -254 q 104 -131 128 -189 q 89 -69 81 -74 q 134 -51 97 -49 q 175 -67 171 -53 q 206 -122 188 -103 q 238 -155 219 -146 q 267 -157 256 -164 q 301 -117 289 -140 q 333 -29 313 -93 q 397 164 382 140 q 369 143 389 158 q 306 101 331 111 q 264 89 297 90 q 161 129 193 86 q 136 175 149 147 q 157 346 114 232 q 240 461 183 400 q 339 535 297 522 z "},"h":{"ha":657,"x_min":125,"x_max":707,"o":"m 519 163 l 528 269 q 513 300 528 300 q 416 249 485 300 q 276 118 347 199 q 192 53 232 53 q 146 81 167 57 q 125 136 125 104 q 167 306 125 168 q 188 379 171 339 q 216 457 206 419 q 267 606 226 494 q 324 764 307 718 q 347 831 340 810 q 368 886 360 860 q 384 908 368 897 q 417 918 400 918 q 454 889 433 918 q 467 789 490 839 q 389 581 443 739 q 315 388 335 422 l 300 357 l 278 272 q 279 268 278 268 q 392 368 343 332 q 445 410 440 404 q 483 441 450 417 q 567 465 515 465 q 622 431 592 465 q 653 350 653 396 l 653 329 q 625 174 653 297 q 646 176 632 174 q 688 165 674 176 q 704 153 703 153 q 707 144 707 150 q 672 89 707 113 q 606 63 638 65 q 543 92 567 63 q 519 163 519 121 z "},"i":{"ha":272,"x_min":121,"x_max":444,"o":"m 131 133 l 136 163 q 147 208 135 171 q 225 435 178 278 q 247 453 225 451 q 286 440 263 458 q 325 397 310 421 q 322 331 343 379 q 292 238 300 283 q 269 183 275 200 q 257 126 264 165 q 242 74 250 86 q 198 7 229 19 q 143 24 167 -6 q 124 78 128 39 q 131 133 121 118 m 270 608 q 266 616 270 608 q 261 636 261 625 q 267 656 261 647 q 289 697 274 664 q 329 758 319 757 q 376 757 346 769 q 419 722 406 744 q 397 610 444 667 q 344 574 376 582 q 296 578 313 567 q 270 608 279 590 z "},"j":{"ha":296,"x_min":-126,"x_max":447,"o":"m -89 -106 q -55 -118 -76 -106 q -33 -144 -33 -131 q -7 -199 -33 -196 q 56 -161 25 -210 q 146 46 78 -133 q 179 202 160 93 q 204 334 199 311 q 213 370 210 357 q 217 402 217 383 q 226 440 217 421 q 233 488 226 457 q 239 519 239 518 q 269 516 244 525 q 306 496 294 507 q 336 439 331 468 q 333 343 342 410 q 312 216 333 301 q 285 111 290 131 q 276 78 281 92 q 272 58 272 65 q 253 3 271 51 q 233 -64 236 -44 q 211 -126 231 -83 q 151 -222 192 -169 q 90 -290 110 -275 q 13 -321 61 -322 q -69 -285 -36 -319 q -113 -201 -100 -243 q -119 -132 -126 -158 q -89 -106 -111 -106 m 286 719 q 364 813 300 807 q 414 800 396 815 q 422 707 447 744 q 351 657 389 669 q 296 661 313 644 q 286 719 281 679 z "},"k":{"ha":519,"x_min":103,"x_max":631,"o":"m 533 96 l 582 106 q 617 92 603 106 q 631 60 631 78 q 581 11 631 42 q 506 -19 531 -19 q 449 6 481 -19 q 354 113 417 31 q 338 151 354 121 q 317 186 321 182 q 315 188 317 182 q 290 222 304 221 q 268 194 283 222 q 240 125 253 167 q 226 57 226 83 q 214 13 226 31 q 179 -4 201 -4 q 132 38 161 0 q 103 99 103 76 q 113 128 107 107 q 130 181 119 149 q 149 240 140 214 q 178 314 160 258 q 220 410 190 338 q 274 538 250 483 q 406 844 389 803 q 426 906 422 885 l 426 911 q 483 933 426 933 q 515 909 496 933 q 535 865 535 885 q 437 612 535 818 q 339 372 339 406 q 340 368 339 368 q 419 417 369 379 q 488 461 469 456 q 563 503 547 503 q 594 484 578 503 q 611 449 611 465 q 457 319 611 401 q 397 285 401 289 q 431 236 397 283 q 456 186 443 214 q 476 145 469 158 q 492 119 483 132 q 533 96 508 96 z "},"l":{"ha":247,"x_min":107,"x_max":497,"o":"m 228 465 l 242 518 q 319 712 264 561 q 375 876 375 863 q 383 900 375 890 q 403 910 392 910 q 443 918 411 918 l 465 896 q 497 843 497 867 q 488 795 497 819 q 436 681 479 771 q 421 645 431 665 q 406 613 411 625 q 400 599 400 601 q 398 590 400 596 q 392 573 396 583 q 381 547 388 563 q 325 412 325 425 q 318 392 325 399 q 311 381 311 392 l 311 376 q 289 303 311 363 q 229 51 229 101 q 197 -15 229 0 q 132 26 157 -26 q 124 156 107 79 q 139 214 139 196 q 167 309 143 240 q 199 392 192 378 q 213 422 213 392 q 228 465 213 453 z "},"m":{"ha":790,"x_min":122,"x_max":896,"o":"m 213 465 l 210 496 q 230 531 210 517 q 281 546 250 546 q 329 520 311 546 q 347 469 347 494 q 336 421 347 443 l 286 299 q 289 294 286 294 q 325 321 293 290 q 420 397 357 351 q 511 450 483 442 q 558 425 531 450 q 586 368 586 400 q 557 261 565 274 q 649 338 583 293 q 744 383 714 382 q 805 342 789 383 q 825 234 821 300 q 839 144 829 168 q 855 132 840 136 q 883 119 869 128 q 896 88 896 110 q 804 32 896 32 q 734 74 764 32 q 704 175 704 117 q 708 222 704 199 q 711 250 711 246 q 707 254 711 254 q 550 122 671 254 q 543 115 546 119 q 514 89 532 107 q 456 50 472 50 q 429 58 439 50 l 414 71 q 396 107 396 83 l 396 114 l 428 207 q 463 292 463 283 q 461 300 463 300 q 383 238 440 300 q 301 149 322 171 q 258 101 281 128 q 219 56 235 75 q 201 38 203 38 q 147 61 171 38 q 122 110 122 85 q 126 156 122 135 q 140 218 131 178 q 153 273 150 258 q 160 302 157 288 q 163 320 163 317 q 169 339 164 324 q 183 372 175 354 q 207 428 190 389 q 213 465 213 446 z "},"n":{"ha":638,"x_min":124,"x_max":672,"o":"m 526 132 l 533 226 l 533 249 q 515 276 529 276 q 422 228 490 276 q 239 61 300 140 q 219 45 226 47 q 197 44 211 43 q 157 72 182 46 q 124 119 132 99 q 179 283 124 175 q 217 380 186 306 q 253 494 249 454 l 251 496 q 265 510 251 510 q 293 514 268 514 q 344 494 318 514 q 371 440 371 475 q 335 333 371 406 q 299 258 299 261 q 383 322 321 274 q 560 438 526 438 q 610 417 578 438 q 649 381 643 397 l 643 317 l 646 240 q 640 178 646 196 l 644 169 q 656 128 639 164 q 672 83 672 92 q 652 55 672 74 q 614 33 632 36 q 526 132 526 36 z "},"o":{"ha":503,"x_min":117,"x_max":590,"o":"m 433 272 q 434 274 433 272 q 440 292 435 276 q 451 317 446 308 q 456 359 456 325 q 446 400 457 393 q 421 404 431 407 q 389 386 411 401 q 263 196 283 297 q 270 144 258 161 q 310 135 282 126 q 360 165 338 143 q 389 193 382 186 q 401 206 396 200 q 410 222 406 211 q 418 237 415 232 q 426 254 421 242 q 433 272 431 267 m 275 453 q 400 525 344 513 q 517 510 483 544 q 579 411 571 486 q 503 169 590 296 q 361 40 451 94 q 233 10 325 15 q 179 36 210 10 q 125 151 117 101 l 128 183 q 124 194 121 190 q 129 200 128 199 q 135 213 138 200 q 144 264 132 226 q 176 333 157 301 q 275 453 224 411 z "},"p":{"ha":525,"x_min":22,"x_max":606,"o":"m 263 163 q 335 184 282 163 q 412 225 389 206 q 447 258 435 244 q 469 288 460 271 q 467 357 490 319 q 318 301 426 406 q 261 208 274 254 q 263 163 249 163 m 85 -8 l 94 42 q 149 219 101 79 q 229 446 196 360 q 268 565 268 536 q 283 589 268 572 q 320 599 299 601 q 358 585 342 597 q 374 507 381 549 q 343 435 374 479 q 342 432 340 431 q 483 472 424 481 q 574 423 542 464 q 606 326 606 382 q 583 256 606 303 q 547 197 561 210 q 525 168 539 197 q 462 122 508 146 q 399 103 415 97 q 392 90 392 99 q 345 69 392 81 q 274 57 299 57 q 236 68 249 57 q 226 47 226 58 q 213 6 226 36 q 190 -24 199 -24 q 190 -39 182 -31 q 182 -82 190 -68 q 168 -149 182 -118 q 163 -181 168 -165 q 153 -197 158 -197 q 144 -235 144 -200 q 123 -297 143 -271 q 85 -324 103 -324 q 51 -312 58 -326 q 31 -229 22 -271 q 46 -149 46 -171 l 53 -104 q 68 -39 68 -79 q 85 -8 68 -22 z "},"q":{"ha":524,"x_min":125,"x_max":604,"o":"m 482 439 q 376 391 471 464 q 251 250 281 318 l 236 210 q 315 228 276 206 q 396 292 353 250 q 464 378 439 333 q 482 439 489 422 m 219 100 q 158 144 192 100 q 125 217 125 189 q 147 291 125 246 q 190 368 168 336 q 265 444 211 400 q 344 503 319 489 q 399 532 368 518 q 435 547 424 547 q 533 543 483 558 q 575 499 551 531 q 604 440 599 467 q 599 399 604 417 q 567 322 593 381 q 531 259 547 292 q 515 219 515 226 q 456 86 508 200 q 444 39 454 78 q 404 -121 418 -57 q 404 -290 379 -254 q 386 -319 410 -307 q 333 -315 358 -335 q 295 -281 299 -289 q 289 -267 292 -274 q 285 -254 286 -261 q 349 110 263 -136 q 371 165 374 154 q 338 148 357 158 q 308 133 318 138 q 285 121 299 128 q 265 111 272 114 q 250 106 258 108 q 219 100 231 100 z "},"r":{"ha":500,"x_min":122,"x_max":635,"o":"m 265 540 q 310 554 279 554 q 351 543 340 554 q 308 374 382 517 q 293 326 285 326 q 367 399 308 353 q 442 452 426 444 q 474 467 457 460 q 494 475 492 474 q 564 487 525 490 q 611 463 603 483 q 628 440 611 449 l 635 432 q 615 403 635 421 q 575 385 596 386 q 526 370 554 383 q 471 342 497 357 q 431 320 444 328 q 397 300 418 313 q 328 238 358 274 q 285 189 290 200 q 265 138 275 179 q 254 88 254 97 q 233 45 249 65 q 203 21 218 25 q 165 38 189 17 q 127 106 122 69 q 156 243 132 143 q 199 391 160 281 q 265 540 239 501 z "},"s":{"ha":486,"x_min":125,"x_max":606,"o":"m 421 578 q 475 588 442 588 q 518 582 508 588 q 529 585 526 585 q 572 557 546 585 q 606 513 599 529 q 589 411 606 411 q 582 403 582 411 q 548 360 582 383 q 486 336 514 336 q 456 355 471 340 q 440 385 440 369 q 469 419 440 386 q 497 479 497 453 q 474 490 497 490 q 364 425 397 456 q 347 408 356 408 q 345 410 347 410 q 329 396 343 410 q 301 359 315 382 q 283 318 286 336 l 281 314 l 281 307 q 279 296 279 304 q 338 230 279 274 q 420 163 397 186 q 449 122 443 140 q 461 78 461 97 q 412 5 461 31 q 294 -21 363 -21 q 176 8 226 -21 q 126 59 126 38 q 140 85 125 81 q 179 90 154 96 q 251 79 208 85 q 303 85 279 79 q 328 96 328 90 q 317 111 328 101 q 293 121 306 121 q 238 167 293 126 q 183 221 183 208 q 185 224 183 222 l 185 231 q 167 257 175 231 q 158 308 158 283 q 245 466 158 381 q 421 578 332 551 z "},"t":{"ha":460,"x_min":138,"x_max":583,"o":"m 179 497 q 163 507 169 499 q 157 524 157 515 q 169 554 157 533 q 190 574 181 575 q 231 574 199 574 q 275 579 264 575 q 292 597 286 583 q 319 649 297 613 q 388 758 368 743 q 433 776 407 774 q 482 764 458 779 q 483 706 503 735 q 457 663 475 689 q 431 621 439 636 q 424 585 407 588 q 506 592 440 582 q 579 544 571 603 q 572 504 583 511 q 508 497 561 497 q 424 490 464 490 q 376 486 385 489 q 350 460 360 482 q 340 444 346 457 q 306 379 332 428 q 250 161 269 274 q 253 122 246 133 q 297 107 260 111 q 443 147 364 100 l 481 169 q 511 151 490 186 q 519 135 517 143 q 461 47 519 81 q 342 1 404 11 q 247 -3 279 -10 q 188 34 215 3 q 153 88 160 65 l 146 99 q 140 170 138 106 q 150 261 143 235 q 197 401 158 294 l 235 482 l 179 497 z "},"u":{"ha":514,"x_min":132,"x_max":621,"o":"m 425 124 l 425 144 q 394 97 411 110 q 331 50 363 65 q 188 58 239 -8 q 146 171 132 104 q 206 390 150 268 q 269 517 267 513 q 322 516 292 525 q 354 489 351 507 q 353 435 363 475 q 321 350 344 396 q 263 183 265 214 q 279 146 261 151 q 316 144 294 136 q 374 199 338 153 q 437 311 410 246 q 468 426 464 376 q 476 460 465 442 q 506 489 488 478 q 520 502 511 497 q 533 501 529 507 l 556 503 q 568 490 558 503 q 582 474 578 476 q 563 303 621 440 q 546 82 483 136 q 564 10 568 67 q 523 -11 558 -10 q 467 3 488 -12 q 428 97 447 21 q 425 124 425 106 z "},"v":{"ha":460,"x_min":140,"x_max":588,"o":"m 181 493 q 205 499 186 497 q 231 500 224 501 q 286 331 261 489 q 292 283 289 306 q 300 242 299 246 q 304 222 301 238 q 311 206 307 206 q 411 328 326 206 q 492 428 460 397 q 539 463 524 458 q 580 438 572 468 q 560 369 588 408 q 542 340 551 358 q 524 304 533 321 q 474 232 515 288 q 426 169 433 176 q 407 151 418 161 q 360 103 372 122 q 296 63 328 71 q 249 74 264 56 q 207 168 233 85 q 172 302 181 251 q 147 403 164 353 q 151 454 140 426 q 181 493 163 482 z "},"w":{"ha":718,"x_min":147,"x_max":826,"o":"m 510 214 q 522 178 510 182 q 539 176 526 176 q 566 188 551 176 q 608 226 581 199 q 678 319 636 254 q 719 395 719 385 q 732 421 719 406 q 813 439 772 479 q 826 374 826 425 q 781 247 797 265 q 736 196 754 226 q 681 136 697 150 q 660 118 664 122 q 557 58 617 75 q 469 64 497 42 q 426 139 426 86 l 419 168 q 383 140 399 168 q 315 77 367 113 q 236 42 263 42 q 176 108 204 42 q 153 240 147 174 q 162 329 153 286 q 172 378 171 372 q 207 499 183 463 q 265 526 231 531 q 303 492 299 522 q 311 435 314 479 q 296 374 308 390 q 285 303 293 367 q 275 225 278 240 q 289 193 268 185 q 349 258 311 203 q 401 340 386 313 q 435 419 417 368 q 467 487 453 471 q 505 502 482 503 q 547 488 528 501 q 554 381 588 447 q 510 214 510 292 z "},"x":{"ha":476,"x_min":75,"x_max":581,"o":"m 300 168 q 147 28 167 28 q 101 52 126 28 q 75 110 75 76 q 171 207 119 163 l 242 279 l 226 332 q 190 419 201 386 q 173 449 174 442 q 183 472 172 456 q 222 496 197 486 q 263 496 247 506 q 298 449 274 496 q 322 386 322 403 q 325 364 322 369 q 374 382 332 354 l 410 418 q 507 494 494 489 q 551 485 524 506 q 578 443 578 465 q 531 371 578 397 q 469 321 496 346 q 385 249 432 286 l 407 211 q 443 171 422 182 q 492 126 454 156 q 533 97 529 97 q 564 83 536 97 q 570 25 581 67 q 543 -17 560 -17 q 514 -8 521 -17 q 400 53 471 -8 q 329 132 329 115 q 328 138 329 138 q 322 139 328 139 q 314 154 314 146 q 300 168 314 168 z "},"y":{"ha":474,"x_min":-100,"x_max":600,"o":"m -83 -181 q -74 -172 -83 -181 q -44 -162 -65 -162 q -14 -168 -24 -162 q 85 -195 39 -204 q 183 -115 132 -186 q 272 33 242 -22 q 217 90 243 50 q 194 144 190 129 l 194 160 q 174 246 179 160 q 174 367 169 332 q 183 494 178 403 q 208 549 182 531 q 283 526 258 571 q 300 379 307 481 q 326 146 288 190 q 347 188 339 179 q 368 235 367 228 q 375 253 369 243 q 403 308 381 264 q 447 427 439 413 q 460 452 456 442 q 468 468 465 463 q 475 481 471 474 q 482 493 479 489 q 489 501 485 497 q 501 511 494 508 q 551 513 524 528 q 581 479 572 492 q 564 379 600 446 q 519 283 539 306 q 437 104 474 178 q 383 -12 400 31 q 258 -197 294 -154 q 119 -289 167 -281 q -17 -284 47 -304 q -92 -228 -82 -264 q -83 -181 -100 -200 z "},"z":{"ha":438,"x_min":28,"x_max":572,"o":"m 354 129 q 489 133 454 133 q 547 128 533 133 q 566 93 560 124 q 567 54 572 63 q 546 53 564 54 q 465 45 510 47 q 267 24 421 43 q 91 9 113 6 q 53 24 69 13 q 32 51 36 36 q 38 90 28 65 q 74 143 47 115 q 159 235 126 208 q 313 343 192 261 q 386 399 322 351 q 281 405 315 406 q 233 408 247 404 l 213 408 q 171 429 200 408 q 140 464 142 450 q 163 489 156 481 q 192 499 186 504 q 294 504 250 501 q 444 495 410 503 q 507 463 478 488 q 535 413 529 440 q 527 367 542 385 q 508 350 513 350 q 421 293 456 314 q 358 251 363 258 q 315 222 331 238 q 265 178 297 200 l 203 118 q 354 129 285 132 z "},"{":{"ha":458,"x_min":179,"x_max":758,"o":"m 751 971 l 692 964 q 601 910 651 954 q 572 867 578 881 q 563 829 565 854 q 544 775 549 793 q 533 671 540 749 q 515 566 525 593 q 500 529 504 539 q 404 375 463 426 q 378 356 381 361 q 389 335 376 350 q 396 317 389 333 q 403 289 403 300 q 404 234 413 265 q 363 128 396 203 q 336 51 336 75 q 313 -17 325 36 q 298 -78 300 -71 q 296 -87 296 -85 q 358 -104 296 -114 q 391 -103 385 -100 q 408 -122 397 -107 q 417 -158 425 -135 q 381 -189 410 -181 q 304 -207 350 -206 q 244 -197 258 -208 q 232 -186 232 -178 q 192 -142 204 -160 q 181 -81 179 -125 l 181 -42 q 192 -6 189 -35 q 257 176 217 92 q 290 279 290 239 q 221 338 290 324 q 193 378 179 338 q 216 404 199 394 q 251 408 233 414 q 325 454 283 408 q 426 758 411 547 q 456 887 432 836 q 533 988 481 938 q 588 1028 556 1015 q 633 1047 619 1042 q 681 1053 647 1053 q 724 1047 715 1054 q 746 1009 733 1043 q 751 971 758 975 z "},"|":{"ha":458,"x_min":118,"x_max":635,"o":"m 294 451 l 308 504 q 422 782 332 549 q 511 1029 511 1015 q 526 1055 511 1043 q 554 1067 542 1067 q 576 1074 561 1074 l 599 1051 q 635 988 635 1018 q 626 944 635 963 q 614 915 618 925 q 597 880 610 906 q 577 837 585 854 q 542 757 569 819 q 492 641 515 694 q 469 585 469 588 q 467 576 469 582 q 461 559 465 569 q 450 533 457 549 q 394 398 394 411 q 388 378 394 385 q 381 367 381 378 l 381 363 q 358 289 381 349 q 243 -144 243 -99 q 208 -206 243 -189 q 142 -166 167 -217 q 135 -39 118 -115 q 150 19 150 1 q 207 206 156 46 q 265 378 258 365 q 279 408 279 378 q 294 451 279 439 z "},"}":{"ha":458,"x_min":97,"x_max":608,"o":"m 283 64 l 286 163 q 283 240 286 183 q 282 318 281 296 q 294 363 283 340 q 307 408 311 378 q 298 459 296 436 q 313 490 300 482 q 397 604 371 553 q 496 815 474 725 l 496 829 q 483 889 507 856 q 456 922 472 911 q 410 940 439 932 q 378 968 382 947 q 388 1003 374 989 q 427 1028 396 1019 q 469 1026 458 1038 q 488 1015 479 1015 q 535 981 496 1015 q 585 928 574 947 q 601 860 594 921 q 606 819 608 835 q 576 715 604 803 q 532 607 549 626 q 517 591 517 597 q 491 542 517 585 q 447 482 465 500 l 432 456 l 422 450 q 426 388 406 439 q 434 372 429 381 q 442 358 439 364 q 435 339 442 339 q 401 292 408 325 q 397 156 394 260 q 388 21 400 51 q 356 -76 365 -76 l 351 -82 q 300 -142 351 -111 q 205 -174 249 -172 q 129 -157 161 -176 q 97 -121 97 -137 l 106 -106 q 119 -111 113 -111 q 126 -106 126 -111 q 178 -78 146 -90 q 249 -55 236 -68 q 272 8 261 -42 q 283 64 283 57 z "},"~":{"ha":619,"x_min":135,"x_max":694,"o":"m 488 372 q 564 398 506 372 q 644 424 622 424 q 680 409 665 424 q 694 375 694 394 q 671 332 694 356 l 642 315 q 576 288 608 303 q 533 267 544 272 q 497 260 514 260 q 458 267 479 260 q 360 319 408 282 q 297 351 318 351 q 253 326 276 351 q 213 300 229 301 q 192 276 204 276 q 151 294 167 276 q 135 324 135 311 q 146 356 135 338 q 187 401 157 375 q 257 444 217 428 l 292 449 q 374 429 353 444 q 488 372 447 372 z "},"":{"ha":336,"x_min":0,"x_max":0,"o":""},"":{"ha":292,"x_min":-12,"x_max":494,"o":"m 410 564 q 369 546 382 547 q 328 556 356 544 q 288 620 282 585 q 349 683 293 656 q 440 676 401 704 q 410 564 494 622 m 233 49 l 215 0 q 143 -157 190 -42 q 94 -288 96 -272 q 86 -312 92 -304 q 69 -319 81 -321 q 36 -325 63 -325 q 1 -303 14 -318 q -12 -261 -12 -289 q -9 -222 -12 -233 q -3 -203 -6 -211 q 8 -181 0 -196 q 19 -158 15 -167 q 47 -108 25 -146 q 88 -28 88 -31 q 106 15 88 -26 q 128 65 117 33 q 140 104 140 97 q 151 126 147 122 q 158 138 158 126 l 158 142 q 185 215 158 161 q 236 401 232 350 q 275 469 240 453 q 336 437 318 478 q 333 297 354 396 q 314 239 314 258 q 267 122 297 179 q 255 113 261 122 q 249 82 249 103 q 233 49 249 61 z "},"":{"ha":625,"x_min":232,"x_max":786,"o":"m 457 458 l 478 504 q 542 622 497 533 l 519 635 q 453 563 503 635 q 410 495 418 525 q 399 444 403 465 q 392 415 396 424 q 393 387 389 406 q 406 363 397 368 q 419 386 418 385 q 432 396 425 386 q 440 415 439 406 q 457 458 440 449 m 567 271 l 544 265 q 501 256 538 265 q 451 240 465 247 q 424 233 436 233 q 320 -17 324 17 q 313 -62 317 -51 q 297 -75 310 -72 q 254 -39 260 -83 q 274 82 249 6 q 297 143 294 111 q 347 250 307 168 q 310 280 338 254 q 275 319 282 306 q 306 564 232 381 q 356 648 321 596 q 404 707 392 700 q 458 731 426 714 q 501 742 469 735 q 549 749 533 750 q 596 731 565 747 q 693 944 690 925 q 721 963 701 967 q 743 965 729 971 l 763 946 q 754 844 786 906 q 731 806 749 835 q 656 679 668 700 q 665 647 668 658 q 649 609 663 636 q 626 572 635 582 q 590 568 617 561 q 545 487 588 560 q 501 402 503 414 q 488 378 500 390 q 481 371 483 378 q 582 403 542 386 q 615 415 600 415 q 634 415 629 415 q 647 412 639 414 q 657 410 656 410 q 668 367 679 401 q 624 315 657 333 q 567 271 567 286 z "},"":{"ha":625,"x_min":33,"x_max":785,"o":"m 407 483 l 515 482 q 621 451 590 482 q 630 407 642 429 q 588 390 618 385 l 479 386 q 374 386 464 383 q 353 318 369 374 q 338 233 351 308 q 322 122 325 158 l 325 88 l 375 71 q 400 56 382 68 q 436 40 418 43 q 512 17 472 17 q 578 30 551 17 q 610 54 606 43 q 620 60 615 54 q 625 74 625 67 l 667 83 q 714 46 706 83 q 661 -54 726 -6 q 603 -88 639 -71 q 511 -101 568 -106 q 411 -67 454 -96 q 371 -50 394 -50 q 335 -42 364 -46 q 300 -36 307 -37 q 222 -36 254 -26 q 100 -32 167 -54 q 33 22 33 -10 q 101 75 33 68 q 161 81 151 81 q 175 85 171 82 q 181 89 179 89 q 185 96 182 89 q 218 233 206 150 q 246 388 231 315 q 172 388 192 388 q 131 397 151 389 q 82 425 97 397 q 125 471 57 460 q 271 482 183 479 q 331 638 300 575 q 560 924 463 907 q 641 922 596 935 q 711 883 686 908 q 739 863 714 899 q 767 807 764 826 l 781 771 q 785 744 785 768 q 749 683 778 706 q 684 679 719 665 q 653 733 649 693 q 622 811 658 801 q 597 817 610 819 q 557 794 583 815 q 525 756 544 772 q 481 674 507 725 q 407 483 454 622 z "},"":{"ha":625,"x_min":154,"x_max":700,"o":"m 578 456 q 514 524 582 517 q 458 515 485 528 q 418 491 431 503 q 399 469 406 479 q 376 428 393 458 q 340 350 347 386 q 353 301 332 314 q 438 281 369 276 q 578 456 569 351 m 671 85 q 667 80 671 85 q 641 74 663 74 q 596 96 619 74 q 515 196 547 132 q 503 203 519 211 q 490 196 497 200 q 383 169 417 164 q 363 174 368 175 q 344 160 358 174 q 292 100 340 144 q 275 69 283 78 q 263 46 260 54 q 222 27 256 39 q 185 25 188 15 q 169 29 178 19 q 157 52 160 39 q 160 72 154 65 q 168 78 164 78 q 173 113 158 88 q 201 150 188 138 q 206 159 201 153 q 211 174 210 165 q 243 183 225 183 q 247 203 243 199 q 253 209 251 207 q 259 213 254 211 q 270 223 264 215 q 274 235 276 231 q 268 238 271 239 q 244 269 250 267 q 247 385 236 350 q 251 393 250 385 q 264 429 256 421 q 269 442 263 433 l 283 456 q 286 465 286 460 q 304 496 292 476 q 312 513 308 506 q 317 525 315 521 q 319 532 318 529 q 319 538 321 535 q 317 553 318 546 q 268 605 289 575 q 253 650 247 635 l 243 665 q 251 732 221 697 q 275 742 268 751 q 306 719 294 742 q 329 689 317 701 q 343 672 335 689 q 375 631 358 643 q 397 617 392 619 q 403 614 403 615 q 405 613 404 613 q 407 614 406 613 q 410 617 408 615 q 424 629 414 625 q 449 635 431 639 q 482 632 468 631 l 521 629 l 568 693 q 674 758 651 800 q 692 735 683 756 q 698 711 700 714 q 694 706 696 708 q 691 701 693 704 q 688 695 689 699 q 683 688 686 692 q 678 678 681 683 q 663 650 675 672 q 647 621 650 628 q 628 606 632 617 q 624 593 625 596 q 644 569 629 582 q 667 519 661 563 q 683 483 678 511 q 685 451 689 456 l 679 436 q 657 374 683 426 q 599 283 631 321 l 575 256 l 593 236 q 631 192 603 218 q 669 165 658 165 q 678 131 676 164 q 671 85 679 97 z "},"":{"ha":625,"x_min":75,"x_max":940,"o":"m 635 158 q 444 153 539 158 q 413 51 417 63 q 369 -78 388 -43 q 332 -106 351 -112 q 278 -72 324 -104 q 265 -50 265 -60 q 266 -34 265 -40 q 267 -24 267 -28 q 271 -10 268 -19 q 275 4 274 -1 q 279 22 276 10 q 285 43 282 35 q 306 150 285 90 q 216 149 260 149 q 151 156 172 149 q 100 183 115 156 q 144 229 75 217 q 335 246 231 242 q 369 343 349 289 l 260 343 q 211 350 232 343 q 161 378 176 350 q 207 425 135 413 q 349 439 297 436 q 293 588 303 513 q 281 813 272 658 q 289 875 281 850 q 318 944 306 919 q 381 938 358 979 q 401 826 403 896 q 457 507 410 546 q 472 506 463 501 q 486 510 482 510 q 501 522 490 511 q 519 541 513 533 q 543 567 526 549 q 588 615 560 586 q 675 713 615 643 q 856 900 819 883 q 896 914 871 907 q 909 894 904 911 q 917 871 914 876 q 926 858 921 865 q 940 833 940 842 q 881 765 939 824 q 783 669 850 739 q 678 551 717 600 q 582 444 621 485 l 621 444 q 723 419 697 444 q 738 372 749 394 q 696 354 726 349 l 588 347 l 497 344 l 481 274 l 472 249 l 560 249 q 664 224 639 249 q 677 176 689 200 q 635 158 665 153 z "},"":{"ha":458,"x_min":122,"x_max":635,"o":"m 353 289 q 238 -144 238 -99 q 204 -206 238 -189 q 143 -166 164 -217 q 139 -39 122 -115 q 154 19 154 1 q 194 155 158 42 q 254 336 231 268 q 285 344 260 349 q 337 323 311 339 q 356 296 363 307 l 353 289 m 521 1043 q 543 1065 521 1065 q 565 1072 550 1072 l 588 1050 q 635 986 635 1007 q 626 942 635 961 q 614 914 618 924 q 597 878 610 904 q 577 835 585 853 q 542 756 569 818 q 492 640 515 693 q 469 583 469 586 q 467 574 469 581 q 461 558 465 568 q 433 493 453 536 q 374 486 426 467 q 319 526 321 506 q 342 581 319 531 q 442 831 364 632 q 521 1043 521 1029 z "},"":{"ha":535,"x_min":164,"x_max":713,"o":"m 449 421 q 415 461 425 447 q 354 399 403 451 q 336 360 339 381 l 361 353 q 430 337 392 326 q 474 376 468 347 q 449 421 463 379 m 473 619 q 472 613 473 619 q 472 596 471 606 q 472 574 472 586 q 486 533 472 561 q 511 504 500 506 q 556 446 525 474 q 488 251 650 290 q 364 261 419 235 q 378 246 374 249 q 422 194 396 215 q 343 1 515 35 q 242 2 289 -11 q 174 51 194 15 q 164 88 164 69 q 174 113 164 106 q 204 106 188 113 q 228 96 221 99 q 301 88 260 76 q 347 125 342 99 q 337 144 347 126 q 322 174 326 161 q 256 266 279 215 q 232 353 232 317 q 240 409 224 376 q 279 464 256 442 q 367 544 301 497 q 354 600 354 575 q 363 663 347 622 q 400 733 378 703 q 572 854 461 801 q 658 847 635 854 q 690 810 672 842 q 713 753 708 778 q 703 719 713 746 q 692 681 694 692 q 684 658 689 669 q 676 640 679 647 q 672 631 672 633 q 655 615 671 617 q 622 622 639 613 q 599 646 606 631 q 594 708 588 690 q 603 736 618 736 q 588 735 599 736 q 549 713 578 735 q 497 658 519 692 q 473 619 475 633 z "},"":{"ha":490,"x_min":297,"x_max":674,"o":"m 585 761 q 660 728 625 790 q 669 674 674 694 q 632 618 664 654 q 542 596 585 554 q 521 630 529 607 q 515 661 513 653 q 560 740 526 713 q 567 747 563 742 q 585 761 578 761 m 369 761 q 444 728 410 790 q 453 674 458 694 q 417 618 449 654 q 326 596 369 554 q 306 630 314 607 q 300 661 297 653 q 344 740 311 713 q 351 747 347 742 q 369 761 361 761 z "},"":{"ha":689,"x_min":193,"x_max":835,"o":"m 576 301 l 554 297 q 492 282 529 297 q 474 281 475 282 q 448 289 472 281 q 413 299 424 297 q 382 326 403 300 q 383 497 339 392 q 453 603 394 535 q 476 631 461 613 q 544 653 493 640 q 622 605 578 651 q 660 539 667 558 q 651 527 660 538 q 639 511 642 517 q 606 506 633 499 q 578 531 579 514 q 542 556 560 556 q 499 508 513 556 q 478 471 482 489 q 474 378 458 388 q 516 376 499 369 q 586 424 533 383 q 628 394 600 433 q 643 378 638 379 q 619 333 642 356 q 576 301 597 310 m 708 568 q 656 657 708 583 q 481 692 564 726 q 308 500 346 651 q 288 416 289 436 q 304 364 286 396 q 308 329 301 349 q 315 301 314 310 q 346 256 315 293 q 400 213 376 218 q 469 201 422 193 q 574 242 517 210 q 653 295 610 258 q 694 350 696 332 q 694 365 692 357 q 703 375 697 374 q 728 452 722 392 q 722 539 735 513 q 708 568 708 565 m 826 481 l 826 471 q 828 399 835 460 q 814 336 821 338 q 810 331 807 333 q 806 319 814 329 q 767 288 786 290 q 771 282 764 283 q 751 251 776 279 q 685 191 725 224 q 614 149 644 158 l 603 136 q 556 110 593 122 q 490 101 518 99 q 235 253 289 97 q 213 311 218 281 q 205 348 207 342 q 202 360 203 354 q 200 372 201 367 q 199 406 199 376 q 201 440 200 435 q 204 456 210 446 q 233 577 193 482 q 288 682 272 672 q 289 687 289 682 q 292 692 289 692 q 436 783 308 717 q 760 676 621 874 q 778 638 764 661 q 792 610 792 615 q 821 538 811 581 q 825 490 831 496 q 826 481 826 488 z "},"":{"ha":486,"x_min":190,"x_max":743,"o":"m 513 804 q 363 629 467 804 q 331 551 346 601 q 475 657 361 551 q 528 715 503 682 l 556 760 q 513 804 535 804 m 263 449 q 242 469 258 457 q 225 485 225 482 q 219 499 225 489 q 207 514 213 510 q 285 707 190 535 q 303 733 292 714 q 318 754 315 751 q 332 767 318 767 l 340 786 q 390 840 346 797 q 458 897 433 882 q 510 912 483 913 q 549 901 538 911 q 573 881 560 892 q 603 856 586 869 q 678 790 622 839 l 657 729 q 671 579 628 646 q 714 548 685 553 q 743 521 743 543 q 711 464 743 469 q 565 542 615 450 q 543 596 549 565 q 515 564 535 583 q 263 449 347 394 z "},"":{"ha":897,"x_min":160,"x_max":885,"o":"m 867 593 q 851 542 863 553 q 814 514 839 532 q 694 411 764 474 q 612 330 624 349 q 604 285 600 311 q 782 126 639 207 q 861 49 838 99 q 856 -8 885 0 q 747 11 801 -14 q 706 33 718 28 q 682 45 693 39 q 665 56 671 51 q 653 65 660 60 q 628 89 639 75 q 506 218 553 132 l 463 276 l 453 329 q 474 351 465 332 q 490 378 483 371 q 513 400 496 385 q 572 449 531 415 q 649 513 613 482 q 751 603 696 547 q 788 633 779 633 q 815 627 800 638 q 842 613 831 617 q 867 593 864 604 m 575 593 q 559 542 571 553 q 522 514 547 532 q 402 411 472 474 q 319 330 332 349 q 311 285 307 311 q 490 126 346 207 q 569 49 546 99 q 564 -8 593 0 q 456 11 510 -14 q 414 33 426 28 q 390 45 401 39 q 374 56 379 51 q 361 65 368 60 q 336 89 347 75 q 214 218 261 132 l 169 276 l 160 329 q 186 361 174 332 q 216 395 194 376 q 279 449 238 414 q 356 513 321 483 q 458 603 403 547 q 494 633 486 633 q 522 627 507 638 q 550 613 538 617 q 575 593 572 604 z "},"":{"ha":646,"x_min":172,"x_max":707,"o":"m 593 435 q 679 411 654 435 q 690 365 707 382 q 694 266 694 319 q 669 185 694 213 q 614 164 643 157 q 590 201 585 171 l 579 333 q 271 324 439 324 q 222 331 243 324 q 197 340 203 331 q 188 360 192 350 q 178 376 183 369 q 173 389 174 382 q 179 400 172 396 q 243 415 193 410 q 593 435 331 435 z "},"":{"ha":453,"x_min":122,"x_max":510,"o":"m 192 319 q 391 343 324 343 q 484 318 458 343 q 499 270 510 293 q 457 253 488 247 q 251 239 282 239 q 199 246 219 239 q 147 274 163 246 q 192 319 122 307 z "},"":{"ha":689,"x_min":193,"x_max":835,"o":"m 558 525 l 558 538 q 554 556 564 549 q 531 572 542 569 q 522 565 526 568 q 513 556 518 561 q 504 533 511 536 q 486 438 475 440 q 507 449 500 442 q 519 471 514 456 q 525 488 524 486 q 544 506 533 492 q 556 519 554 519 q 558 525 558 522 m 439 625 q 465 643 439 635 q 520 649 490 651 q 557 640 550 646 q 599 625 574 639 q 624 607 624 611 q 649 539 643 589 q 629 483 649 510 q 571 419 610 446 l 554 401 q 575 381 556 394 q 607 361 594 367 q 625 361 619 367 q 626 333 631 356 q 597 297 615 310 q 561 297 578 285 q 528 313 540 301 q 506 338 517 325 q 479 365 494 351 q 460 368 479 367 l 449 339 q 440 293 449 322 q 406 268 426 264 q 367 295 385 272 q 353 341 349 318 q 378 414 358 364 q 383 444 378 444 q 432 557 393 506 q 433 578 432 572 q 427 599 436 588 q 439 625 418 610 m 708 568 q 656 657 708 583 q 481 692 564 726 q 308 500 346 651 q 288 416 289 436 q 304 364 286 396 q 308 329 301 349 q 315 301 314 310 q 346 256 315 293 q 400 213 376 218 q 469 201 422 193 q 574 242 517 210 q 653 295 610 258 q 694 350 696 332 q 694 365 692 357 q 703 375 697 374 q 728 452 722 392 q 722 539 735 513 q 708 568 708 565 m 826 481 l 826 471 q 828 399 835 460 q 814 336 821 338 q 810 331 807 333 q 806 319 814 329 q 767 288 786 290 q 771 282 764 283 q 751 251 776 279 q 685 191 725 224 q 614 149 644 158 l 603 136 q 556 110 593 122 q 490 101 518 99 q 235 253 289 97 q 213 311 218 281 q 205 348 207 342 q 202 360 203 354 q 200 372 201 367 q 199 406 199 376 q 201 440 200 435 q 204 456 210 446 q 233 577 193 482 q 288 682 272 672 q 289 687 289 682 q 292 692 289 692 q 436 783 308 717 q 760 676 621 874 q 778 638 764 661 q 792 610 792 615 q 821 538 811 581 q 825 490 831 496 q 826 481 826 488 z "},"":{"ha":490,"x_min":301,"x_max":675,"o":"m 386 713 q 548 732 474 732 q 654 704 622 732 q 664 660 675 683 q 622 642 653 638 l 414 629 q 365 636 386 629 q 315 663 331 636 q 318 695 301 683 q 386 713 335 707 z "},"":{"ha":393,"x_min":267,"x_max":685,"o":"m 497 922 q 420 883 450 925 q 390 767 390 840 q 451 681 390 694 q 527 719 486 681 q 567 822 568 758 q 497 922 565 917 m 476 1028 q 620 973 556 1028 q 685 836 685 918 q 672 756 685 790 q 648 706 660 721 q 613 665 636 692 q 572 621 590 638 q 523 584 554 604 q 467 564 492 564 q 292 675 329 564 q 274 733 281 694 q 267 783 267 771 q 283 844 267 796 q 347 954 310 919 q 388 987 364 971 q 417 1008 411 1003 q 476 1028 460 1028 z "},"":{"ha":619,"x_min":111,"x_max":688,"o":"m 558 114 q 663 90 638 114 q 676 42 688 65 q 633 24 664 18 q 236 10 417 10 q 188 17 208 10 q 138 44 153 17 q 183 92 111 79 l 208 94 q 558 114 296 114 m 456 340 l 457 269 q 450 224 457 243 q 422 175 450 190 q 390 178 401 161 q 372 243 378 194 q 360 338 364 278 q 258 336 307 336 q 188 343 208 336 q 138 371 153 343 q 183 418 111 406 l 208 421 q 354 435 256 431 q 353 517 353 458 q 377 600 353 576 q 425 613 401 624 q 443 574 449 603 l 451 439 q 566 440 496 440 q 662 415 636 440 q 676 367 688 390 q 633 350 664 344 q 456 340 482 340 z "},"":{"ha":444,"x_min":247,"x_max":696,"o":"m 279 582 q 308 624 308 617 l 328 638 l 325 638 l 354 667 l 353 667 q 379 708 376 703 q 390 724 382 714 q 451 794 449 782 q 468 810 460 806 l 494 833 q 526 869 497 840 q 545 913 543 910 q 543 918 547 917 q 490 926 519 926 q 429 906 460 926 q 399 894 414 903 q 371 889 383 886 l 338 932 l 321 971 l 372 993 q 524 1038 476 1057 l 554 1032 q 601 1007 571 1029 q 646 957 631 985 q 661 897 661 929 q 621 808 661 865 q 560 738 611 796 q 496 668 508 681 q 445 623 475 654 q 418 592 415 592 l 422 589 q 547 611 517 621 q 639 599 576 619 q 654 587 650 594 q 666 572 658 579 q 681 556 674 565 q 692 536 688 547 q 689 519 696 525 q 607 513 669 504 l 526 504 l 518 504 q 454 496 489 508 q 361 473 419 483 q 294 466 303 463 q 269 487 285 469 q 247 515 253 504 q 260 553 247 524 q 279 582 274 582 z "},"":{"ha":444,"x_min":279,"x_max":713,"o":"m 536 619 l 536 633 q 468 685 536 658 q 408 701 432 699 q 403 700 406 700 q 397 701 400 700 q 392 702 394 701 q 387 705 390 703 q 381 708 383 707 q 374 713 379 710 q 366 719 369 717 q 359 731 363 722 q 353 747 356 739 q 343 767 350 756 q 454 857 340 788 q 574 935 558 919 l 572 935 q 583 949 578 943 q 582 956 588 954 q 525 954 531 961 q 485 951 517 957 q 453 940 454 944 q 420 931 451 936 q 382 928 389 926 q 363 959 375 929 q 351 1001 351 989 q 385 1031 357 1010 q 432 1060 414 1051 q 572 1069 485 1074 l 574 1069 q 660 1035 622 1064 q 706 967 697 1006 q 654 865 713 924 q 621 844 633 851 q 560 803 589 829 l 550 796 l 506 776 l 575 751 q 636 688 608 733 q 647 668 644 672 q 661 600 661 631 q 635 531 661 569 q 408 414 563 424 q 312 435 344 414 q 281 482 279 457 q 299 522 283 507 q 343 535 315 538 q 513 564 463 506 q 536 619 536 590 z "},"":{"ha":490,"x_min":457,"x_max":668,"o":"m 457 664 l 458 678 q 518 751 461 690 q 594 819 575 813 q 615 828 606 825 q 651 808 633 828 q 668 757 668 789 q 608 688 668 738 q 533 618 547 639 q 499 597 519 597 q 457 664 457 597 z "},"":{"ha":514,"x_min":38,"x_max":601,"o":"m 313 524 q 363 478 363 524 q 319 334 363 443 q 275 197 276 225 q 313 156 275 156 q 457 354 375 156 q 469 419 469 401 q 493 472 469 436 q 538 508 517 508 q 546 506 540 508 l 572 503 q 585 490 576 507 l 600 454 q 601 432 601 447 q 563 290 601 376 q 524 156 524 203 q 563 79 524 110 q 581 33 581 64 q 548 -6 572 11 q 503 -22 524 -22 q 465 4 483 -22 q 439 56 446 31 q 432 106 432 82 l 432 132 q 370 68 424 114 q 281 22 317 22 q 224 49 246 22 q 119 -250 140 -224 l 114 -254 q 90 -267 101 -267 q 53 -235 68 -267 q 38 -185 38 -203 q 60 -99 38 -168 q 149 216 133 132 q 207 390 165 300 q 275 511 261 497 q 313 524 285 524 z "},"":{"ha":589,"x_min":192,"x_max":856,"o":"m 553 367 q 554 375 553 369 q 557 390 556 381 q 561 405 558 399 q 569 422 564 411 q 583 458 576 439 l 599 481 q 606 510 592 481 q 623 547 621 539 q 627 567 625 556 q 632 589 629 579 q 685 694 672 674 q 701 760 701 747 q 636 747 643 772 l 603 690 q 576 629 596 672 q 553 572 557 586 q 514 485 529 525 q 482 406 490 438 q 443 311 479 400 q 388 192 407 222 q 381 165 385 183 q 376 143 378 147 q 304 -56 375 139 q 285 -76 293 -72 q 251 -76 276 -81 q 208 -3 192 -25 q 224 42 208 -1 q 294 219 257 160 q 303 250 297 228 q 344 338 317 300 l 365 404 q 336 406 358 406 q 283 411 314 406 q 210 568 193 444 q 217 593 211 572 q 226 620 224 614 q 235 644 228 626 q 247 672 242 663 q 260 694 251 681 q 299 736 275 719 q 510 853 401 810 q 633 863 565 853 q 844 790 856 844 q 834 757 839 764 q 810 706 829 750 q 775 631 792 663 q 732 526 758 600 q 694 438 714 493 q 676 406 685 421 q 633 297 671 369 q 586 167 592 199 q 566 119 582 158 q 539 61 550 81 l 522 3 l 458 3 q 449 7 456 4 q 425 22 432 14 q 428 76 421 38 q 454 122 451 121 q 462 146 460 126 q 485 197 464 165 l 496 233 q 512 272 496 242 q 533 325 528 303 q 553 367 549 367 z "},"":{"ha":260,"x_min":174,"x_max":353,"o":"m 244 490 q 288 494 261 501 q 328 464 314 486 q 304 351 353 410 q 252 315 283 324 q 203 324 221 307 q 189 350 196 329 q 182 401 174 393 q 213 431 193 403 q 231 473 232 458 q 244 490 231 488 z "},"":{"ha":490,"x_min":25,"x_max":331,"o":"m 244 83 l 322 42 q 244 -24 244 4 q 272 -58 253 -36 q 318 -131 313 -107 q 299 -219 331 -178 q 221 -269 267 -260 q 64 -240 175 -278 q 34 -208 43 -233 q 40 -166 25 -183 q 92 -160 54 -149 q 201 -181 182 -190 q 217 -164 211 -175 q 196 -107 228 -144 q 181 -90 189 -100 q 146 -56 172 -81 q 131 -20 132 -36 q 156 24 129 -4 q 244 83 182 53 z "},"":{"ha":444,"x_min":288,"x_max":703,"o":"m 488 995 q 490 997 488 995 q 497 1002 492 999 q 526 1025 501 1006 q 594 1066 550 1044 q 644 1085 638 1088 q 674 1063 651 1083 q 699 1030 696 1043 q 683 963 703 1017 q 635 811 664 910 q 604 707 607 713 q 601 694 601 701 q 582 624 590 664 q 547 500 558 567 q 519 431 525 436 q 453 421 508 390 q 432 439 435 433 q 429 510 418 472 l 454 617 q 486 708 461 619 q 525 831 511 797 q 556 921 532 849 q 527 895 547 915 q 492 863 507 875 q 443 829 456 839 q 401 793 406 796 q 329 765 353 749 q 299 806 311 781 q 294 843 288 831 q 342 880 299 844 q 390 917 386 915 q 421 940 394 918 l 419 940 q 457 972 431 951 q 488 995 483 992 z "},"":{"ha":393,"x_min":246,"x_max":651,"o":"m 522 707 q 529 756 529 725 q 522 790 529 786 l 524 790 q 458 768 497 807 q 369 610 418 729 q 360 561 360 568 q 381 526 360 526 q 456 576 414 526 q 522 707 499 632 m 249 578 q 251 582 251 581 l 260 585 q 256 596 257 592 q 269 653 257 613 q 311 747 282 694 q 389 846 340 799 q 506 911 438 893 q 544 919 532 921 q 574 899 557 917 q 619 851 599 885 q 643 786 640 818 q 585 581 651 690 q 461 457 542 514 l 463 457 q 357 414 413 418 q 272 468 326 414 q 250 503 254 489 q 250 543 246 518 l 250 568 l 253 567 q 251 579 246 574 l 249 578 z "},"":{"ha":983,"x_min":221,"x_max":974,"o":"m 544 26 q 563 58 549 46 q 693 175 578 71 q 820 299 808 279 q 829 336 832 319 q 640 504 792 419 q 553 576 579 535 q 556 625 528 618 q 689 608 636 632 q 731 586 718 592 q 754 574 743 581 q 771 564 765 568 q 783 554 776 560 q 808 531 797 544 q 931 401 883 488 l 964 343 l 974 301 q 951 275 960 299 q 940 251 942 251 q 774 100 917 222 q 671 10 726 65 q 635 -21 643 -21 q 606 -8 629 -24 q 571 11 582 8 q 544 26 546 17 m 238 26 q 256 58 242 46 q 288 86 271 71 q 403 192 307 104 q 512 299 500 279 q 521 336 524 319 q 332 504 483 419 q 246 576 271 535 q 249 625 221 618 q 381 608 328 632 q 422 586 410 592 q 446 574 435 581 q 463 564 457 568 q 475 554 468 560 q 500 531 489 544 q 622 401 575 488 l 656 343 l 665 301 q 642 275 651 299 q 632 251 633 251 q 467 100 606 219 q 364 10 419 65 q 328 -21 336 -21 q 299 -8 322 -24 q 264 11 275 8 q 238 26 239 17 z "},"":{"ha":1111,"x_min":179,"x_max":1257,"o":"m 1182 546 l 1190 546 q 1218 519 1215 546 l 1218 528 q 1249 465 1257 489 q 1189 322 1247 460 q 1109 112 1131 183 q 1083 21 1088 40 q 1086 -19 1079 1 q 1049 -76 1088 -56 q 992 -71 1008 -99 q 978 22 964 -50 q 990 88 982 56 q 999 128 997 121 l 1017 179 q 986 168 1007 176 q 935 161 957 161 q 889 172 914 161 q 839 244 851 189 q 839 285 831 275 q 869 362 868 358 q 871 371 871 365 q 931 469 881 393 q 996 565 982 551 q 1031 581 1008 574 q 1064 581 1054 588 q 1083 545 1078 568 q 1083 517 1088 522 q 1060 475 1082 511 l 1046 463 l 1047 463 q 957 304 988 369 q 944 264 943 265 q 981 269 958 263 q 1022 279 1013 279 q 1040 285 1032 279 q 1057 292 1057 285 l 1063 292 q 1064 313 1063 294 l 1074 339 l 1090 369 q 1118 428 1113 418 q 1157 528 1154 524 q 1163 537 1160 533 q 1169 542 1167 540 q 1182 546 1174 546 m 379 856 q 381 858 379 856 q 388 863 383 860 q 417 886 393 867 q 485 927 442 906 q 536 947 529 949 q 565 924 543 944 q 591 891 588 904 q 575 824 594 878 q 527 672 556 771 q 496 568 499 574 q 493 556 493 563 q 474 485 482 525 q 439 361 450 428 q 411 292 417 297 q 344 282 400 251 q 324 300 326 294 q 321 371 310 333 l 346 478 q 378 570 353 481 q 417 692 403 660 q 447 782 424 713 q 419 756 439 776 q 383 724 399 736 q 335 690 347 700 q 293 654 297 657 q 221 626 244 610 q 191 667 203 642 q 186 704 179 692 q 234 741 190 706 q 282 778 278 776 q 313 801 286 779 l 311 801 q 349 833 322 813 q 379 856 375 853 m 1125 940 q 1147 940 1135 946 q 1181 897 1168 917 q 1174 836 1197 872 q 1144 803 1158 814 q 984 656 1096 764 q 872 544 872 547 q 843 514 858 533 q 743 417 746 428 q 726 401 733 404 l 717 393 q 671 338 717 381 q 432 34 444 64 q 402 -11 419 4 q 372 -29 385 -26 q 319 14 326 -25 q 361 128 311 53 q 393 169 389 158 q 615 426 418 204 q 628 431 621 425 q 642 456 635 438 q 667 476 649 474 q 675 488 668 481 q 683 499 682 496 q 689 508 683 503 q 696 517 694 513 q 911 731 732 547 q 1097 929 1090 915 q 1125 940 1103 947 z "},"":{"ha":1111,"x_min":179,"x_max":1174,"o":"m 757 96 q 786 138 786 131 l 806 151 l 803 151 l 832 181 l 831 181 q 857 222 854 217 q 868 238 860 228 q 929 308 926 296 q 946 324 938 319 l 972 347 q 1004 383 975 354 q 1023 427 1021 424 q 1021 432 1025 431 q 967 440 997 440 q 907 419 938 440 q 876 408 892 417 q 849 403 861 400 l 815 446 l 799 485 l 850 507 q 1001 551 954 571 l 1032 546 q 1078 521 1049 543 q 1124 471 1108 499 q 1139 411 1139 443 q 1099 322 1139 379 q 1038 252 1089 310 q 974 182 986 194 q 923 137 953 168 q 896 106 893 106 l 900 103 q 960 120 908 111 q 1025 125 1011 129 q 1117 113 1054 133 q 1132 101 1128 108 q 1144 86 1136 93 q 1158 70 1151 79 q 1169 50 1165 61 q 1167 33 1174 39 q 1085 26 1147 18 l 1004 18 l 996 18 q 932 10 967 22 q 839 -13 897 -3 q 772 -20 781 -24 q 747 1 763 -17 q 725 29 731 18 q 738 67 725 38 q 757 96 751 96 m 379 856 q 381 858 379 856 q 388 863 383 860 q 417 886 393 867 q 485 927 442 906 q 536 947 529 949 q 565 924 543 944 q 591 891 588 904 q 575 824 594 878 q 527 672 556 771 q 496 568 499 574 q 493 556 493 563 q 474 485 482 525 q 439 361 450 428 q 411 292 417 297 q 344 282 400 251 q 324 300 326 294 q 321 371 310 333 l 346 478 q 378 570 353 481 q 417 692 403 660 q 447 782 424 713 q 419 756 439 776 q 383 724 399 736 q 335 690 347 700 q 293 654 297 657 q 221 626 244 610 q 191 667 203 642 q 186 704 179 692 q 234 741 190 706 q 282 778 278 776 q 313 801 286 779 l 311 801 q 349 833 322 813 q 379 856 375 853 m 1083 940 q 1106 940 1093 946 q 1139 897 1126 917 q 1132 836 1156 872 q 1103 803 1117 814 q 942 656 1054 764 q 831 544 831 547 q 801 514 817 533 q 701 417 704 428 q 685 401 692 404 l 675 393 q 629 338 675 381 q 390 34 403 64 q 360 -11 378 4 q 331 -29 343 -26 q 277 14 285 -25 q 319 128 269 53 q 351 169 347 158 q 574 426 376 204 q 586 431 579 425 q 600 456 593 438 q 625 476 607 474 q 633 488 626 481 q 641 499 640 496 q 647 508 642 503 q 654 517 653 513 q 869 731 690 547 q 1056 929 1049 915 q 1083 940 1061 947 z "},"":{"ha":1111,"x_min":167,"x_max":1215,"o":"m 1140 546 l 1149 546 q 1176 521 1172 546 l 1176 528 q 1207 465 1215 489 q 1147 322 1206 460 q 1067 112 1089 183 q 1042 21 1046 40 q 1044 -19 1038 1 q 1007 -76 1046 -56 q 950 -71 967 -99 q 936 22 922 -50 q 948 88 940 56 q 957 128 956 121 l 975 179 q 944 168 965 176 q 894 161 915 161 q 847 172 872 161 q 797 244 810 189 q 797 285 789 275 q 828 362 826 358 q 829 371 829 365 q 889 469 839 393 q 954 565 940 551 q 990 581 967 574 q 1022 581 1013 588 q 1041 545 1036 568 q 1042 517 1046 522 q 1018 475 1040 511 l 1004 463 l 1006 463 q 915 304 946 369 q 903 264 901 265 q 939 269 917 263 q 981 279 971 279 q 999 285 990 279 q 1015 292 1015 285 l 1021 292 q 1022 313 1021 294 l 1032 339 l 1049 369 q 1076 428 1071 418 q 1115 528 1113 524 q 1122 537 1118 533 q 1128 542 1125 540 q 1140 546 1132 546 m 1139 940 q 1161 940 1149 946 q 1194 897 1182 917 q 1188 836 1211 872 q 1158 803 1172 814 q 998 656 1110 764 q 886 544 886 547 q 857 514 872 533 q 757 417 760 428 q 740 401 747 404 l 731 393 q 685 338 731 381 q 446 34 458 64 q 416 -11 433 4 q 386 -29 399 -26 q 333 14 340 -25 q 375 128 325 53 q 407 169 403 158 q 629 426 432 204 q 642 431 635 425 q 656 456 649 438 q 681 476 663 474 q 689 488 682 481 q 697 499 696 496 q 703 508 697 503 q 710 517 708 513 q 925 731 746 547 q 1111 929 1104 915 q 1139 940 1117 947 m 424 482 l 424 497 q 356 547 424 521 q 296 564 319 561 q 290 563 293 563 q 285 563 288 563 q 280 565 282 564 q 274 567 278 565 q 269 571 271 569 q 262 576 267 572 q 253 582 257 579 q 247 593 250 585 q 240 611 243 601 q 231 629 238 618 q 342 719 228 650 q 461 797 446 782 l 460 797 q 470 811 465 806 q 469 817 475 817 q 413 817 418 824 q 373 813 404 819 q 340 803 342 807 q 308 794 339 799 q 269 790 276 789 q 251 822 263 792 q 239 864 239 851 q 273 893 244 872 q 319 922 301 914 q 460 932 372 936 l 461 932 q 547 897 510 926 q 592 828 585 868 q 542 728 600 786 q 508 707 521 714 q 447 665 476 692 l 438 658 l 393 639 l 463 614 q 522 550 496 596 q 535 531 532 535 q 549 463 549 493 q 522 393 549 432 q 296 276 450 286 q 199 298 232 276 q 169 344 167 319 q 187 385 171 369 q 231 397 203 400 q 400 426 350 368 q 424 482 424 453 z "},"":{"ha":519,"x_min":-4,"x_max":606,"o":"m 519 574 q 479 555 493 556 q 439 565 465 554 q 397 630 392 594 q 458 693 403 665 q 550 685 513 714 q 519 574 606 631 m 339 -51 l 332 -3 q 343 1 333 -3 q 361 6 353 4 q 382 8 369 7 q 426 -8 406 8 q 455 -51 453 -43 q 458 -62 457 -58 q 458 -77 458 -67 q 457 -94 457 -87 q 326 -274 413 -229 l 247 -315 q 201 -319 235 -315 q 189 -319 196 -318 q 172 -314 172 -321 l 132 -314 q 69 -283 107 -307 q 17 -242 32 -258 q 22 -69 -4 -179 q 103 100 49 40 q 153 146 104 101 q 219 210 201 190 q 301 285 264 235 q 357 392 338 336 q 426 447 383 447 q 458 431 447 446 q 468 396 468 415 q 469 344 475 358 q 456 314 464 331 q 444 285 449 297 q 398 223 429 258 q 343 171 367 188 l 319 154 q 300 133 319 149 q 267 111 281 118 q 221 76 235 89 q 164 -4 178 32 q 132 -131 150 -40 q 136 -188 131 -175 q 160 -215 142 -201 q 333 -106 275 -236 q 339 -51 344 -72 z "},"":{"ha":697,"x_min":49,"x_max":796,"o":"m 703 1200 q 762 1116 729 1190 q 795 1029 794 1042 q 787 1003 796 1017 q 767 988 778 990 q 744 981 750 976 q 729 1010 738 985 q 697 1061 724 1021 q 657 1174 638 1150 q 703 1200 690 1203 m 625 449 l 628 449 q 650 589 632 461 q 669 761 668 717 l 665 831 q 608 765 653 831 q 522 615 564 699 q 478 558 490 558 q 436 493 468 549 q 411 432 404 438 q 501 444 467 443 q 613 458 590 468 q 625 449 619 449 m 571 921 q 638 963 601 963 q 719 929 675 963 q 783 847 778 888 q 785 824 785 839 q 784 793 785 808 q 781 754 783 778 q 778 713 779 731 q 774 667 776 696 q 769 615 771 638 q 753 447 768 593 q 729 21 722 147 q 729 -4 731 11 q 728 -21 728 -19 q 664 -26 715 -35 q 608 1 613 -18 q 601 14 601 7 l 614 338 l 596 336 q 478 325 568 336 q 365 307 389 314 q 303 247 336 307 q 281 203 294 226 q 268 178 268 181 l 246 151 q 219 73 246 136 q 165 -31 192 10 l 128 -83 l 79 -46 q 53 -22 57 -35 q 60 20 49 -8 q 98 98 72 49 q 136 172 124 147 q 196 340 196 286 q 217 374 190 361 q 233 386 218 375 q 288 442 272 415 q 429 700 317 510 q 571 921 496 822 z "},"":{"ha":697,"x_min":49,"x_max":851,"o":"m 789 1188 q 846 1149 813 1201 q 826 1110 851 1135 q 765 1055 801 1085 q 717 1010 728 1025 q 695 983 703 986 q 671 992 688 981 q 656 1019 661 1000 q 653 1048 651 1038 q 713 1119 656 1058 q 789 1188 769 1181 m 625 449 l 628 449 q 650 589 632 461 q 669 761 668 717 l 665 831 q 608 765 653 831 q 522 615 564 699 q 478 558 490 558 q 436 493 468 549 q 411 432 404 438 q 501 444 467 443 q 613 458 590 468 q 625 449 619 449 m 571 921 q 638 963 601 963 q 719 929 675 963 q 783 847 778 888 q 785 824 785 839 q 784 793 785 808 q 781 754 783 778 q 778 713 779 731 q 774 667 776 696 q 769 615 771 638 q 753 447 768 593 q 729 21 722 147 q 729 -4 731 11 q 728 -21 728 -19 q 664 -26 715 -35 q 608 1 613 -18 q 601 14 601 7 l 614 338 l 596 336 q 478 325 568 336 q 365 307 389 314 q 303 247 336 307 q 281 203 294 226 q 268 178 268 181 l 246 151 q 219 73 246 136 q 165 -31 192 10 l 128 -83 l 79 -46 q 53 -22 57 -35 q 60 20 49 -8 q 98 98 72 49 q 136 172 124 147 q 196 340 196 286 q 217 374 190 361 q 233 386 218 375 q 288 442 272 415 q 429 700 317 510 q 571 921 496 822 z "},"":{"ha":697,"x_min":49,"x_max":850,"o":"m 541 1008 q 539 1011 541 1008 q 539 1028 536 1015 q 551 1053 542 1040 q 608 1106 561 1065 q 681 1160 654 1146 q 724 1157 707 1182 q 785 1099 746 1139 q 838 1042 825 1058 q 832 1000 850 1025 q 775 1018 813 972 q 700 1092 747 1051 q 631 1039 676 1078 q 574 996 586 1000 q 553 996 561 992 q 541 1008 546 1000 m 625 449 l 628 449 q 650 589 632 461 q 669 761 668 717 l 665 831 q 608 765 653 831 q 522 615 564 699 q 478 558 490 558 q 436 493 468 549 q 411 432 404 438 q 501 444 467 443 q 613 458 590 468 q 625 449 619 449 m 571 921 q 638 963 601 963 q 719 929 675 963 q 783 847 778 888 q 785 824 785 839 q 784 793 785 808 q 781 754 783 778 q 778 713 779 731 q 774 667 776 696 q 769 615 771 638 q 753 447 768 593 q 729 21 722 147 q 729 -4 731 11 q 728 -21 728 -19 q 664 -26 715 -35 q 608 1 613 -18 q 601 14 601 7 l 614 338 l 596 336 q 478 325 568 336 q 365 307 389 314 q 303 247 336 307 q 281 203 294 226 q 268 178 268 181 l 246 151 q 219 73 246 136 q 165 -31 192 10 l 128 -83 l 79 -46 q 53 -22 57 -35 q 60 20 49 -8 q 98 98 72 49 q 136 172 124 147 q 196 340 196 286 q 217 374 190 361 q 233 386 218 375 q 288 442 272 415 q 429 700 317 510 q 571 921 496 822 z "},"":{"ha":697,"x_min":49,"x_max":936,"o":"m 903 1064 q 797 1013 811 1013 q 775 1014 783 1013 q 762 1017 767 1015 q 747 1024 757 1018 q 735 1031 738 1029 q 719 1041 732 1032 q 705 1051 707 1050 q 675 1076 703 1053 q 633 1100 647 1100 q 601 1076 618 1100 q 569 1051 583 1053 q 556 1029 567 1033 q 532 1042 542 1032 q 524 1066 522 1053 q 547 1110 525 1079 q 611 1161 569 1140 q 658 1160 629 1168 q 702 1140 688 1153 q 728 1116 717 1128 q 744 1101 740 1104 q 758 1091 749 1097 q 772 1083 767 1085 q 838 1106 794 1081 q 898 1137 882 1131 q 925 1131 914 1143 q 935 1108 936 1118 q 924 1083 933 1097 q 903 1064 914 1069 m 625 449 l 628 449 q 650 589 632 461 q 669 761 668 717 l 665 831 q 608 765 653 831 q 522 615 564 699 q 478 558 490 558 q 436 493 468 549 q 411 432 404 438 q 501 444 467 443 q 613 458 590 468 q 625 449 619 449 m 571 921 q 638 963 601 963 q 719 929 675 963 q 783 847 778 888 q 785 824 785 839 q 784 793 785 808 q 781 754 783 778 q 778 713 779 731 q 774 667 776 696 q 769 615 771 638 q 753 447 768 593 q 729 21 722 147 q 729 -4 731 11 q 728 -21 728 -19 q 664 -26 715 -35 q 608 1 613 -18 q 601 14 601 7 l 614 338 l 596 336 q 478 325 568 336 q 365 307 389 314 q 303 247 336 307 q 281 203 294 226 q 268 178 268 181 l 246 151 q 219 73 246 136 q 165 -31 192 10 l 128 -83 l 79 -46 q 53 -22 57 -35 q 60 20 49 -8 q 98 98 72 49 q 136 172 124 147 q 196 340 196 286 q 217 374 190 361 q 233 386 218 375 q 288 442 272 415 q 429 700 317 510 q 571 921 496 822 z "},"":{"ha":697,"x_min":49,"x_max":888,"o":"m 635 1150 q 674 1163 657 1172 q 699 1132 692 1154 q 707 1098 710 1111 q 685 1060 704 1085 q 603 1065 638 996 q 599 1086 596 1079 q 626 1142 611 1129 l 635 1150 m 813 1150 q 852 1163 835 1172 q 876 1132 869 1154 q 885 1098 888 1111 q 863 1060 882 1085 q 781 1065 815 996 q 776 1086 774 1079 q 804 1142 789 1129 l 813 1150 m 625 449 l 628 449 q 650 589 632 461 q 669 761 668 717 l 665 831 q 608 765 653 831 q 522 615 564 699 q 478 558 490 558 q 436 493 468 549 q 411 432 404 438 q 501 444 467 443 q 613 458 590 468 q 625 449 619 449 m 571 921 q 638 963 601 963 q 719 929 675 963 q 783 847 778 888 q 785 824 785 839 q 784 793 785 808 q 781 754 783 778 q 778 713 779 731 q 774 667 776 696 q 769 615 771 638 q 753 447 768 593 q 729 21 722 147 q 729 -4 731 11 q 728 -21 728 -19 q 664 -26 715 -35 q 608 1 613 -18 q 601 14 601 7 l 614 338 l 596 336 q 478 325 568 336 q 365 307 389 314 q 303 247 336 307 q 281 203 294 226 q 268 178 268 181 l 246 151 q 219 73 246 136 q 165 -31 192 10 l 128 -83 l 79 -46 q 53 -22 57 -35 q 60 20 49 -8 q 98 98 72 49 q 136 172 124 147 q 196 340 196 286 q 217 374 190 361 q 233 386 218 375 q 288 442 272 415 q 429 700 317 510 q 571 921 496 822 z "},"":{"ha":697,"x_min":49,"x_max":842,"o":"m 746 1131 q 693 1061 693 1131 q 705 1030 693 1046 q 728 1014 717 1014 q 781 1072 783 1014 q 746 1131 779 1131 m 640 1056 q 667 1144 640 1100 q 739 1188 694 1188 q 813 1167 783 1188 q 842 1099 842 1146 q 812 1005 842 1051 q 733 958 782 958 q 640 1056 650 958 m 625 449 l 628 449 q 650 589 632 461 q 669 761 668 717 l 665 831 q 608 765 653 831 q 522 615 564 699 q 478 558 490 558 q 436 493 468 549 q 411 432 404 438 q 501 444 467 443 q 613 458 590 468 q 625 449 619 449 m 571 921 q 638 963 601 963 q 719 929 675 963 q 783 847 778 888 q 785 824 785 839 q 784 793 785 808 q 781 754 783 778 q 778 713 779 731 q 774 667 776 696 q 769 615 771 638 q 753 447 768 593 q 729 21 722 147 q 729 -4 731 11 q 728 -21 728 -19 q 664 -26 715 -35 q 608 1 613 -18 q 601 14 601 7 l 614 338 l 596 336 q 478 325 568 336 q 365 307 389 314 q 303 247 336 307 q 281 203 294 226 q 268 178 268 181 l 246 151 q 219 73 246 136 q 165 -31 192 10 l 128 -83 l 79 -46 q 53 -22 57 -35 q 60 20 49 -8 q 98 98 72 49 q 136 172 124 147 q 196 340 196 286 q 217 374 190 361 q 233 386 218 375 q 288 442 272 415 q 429 700 317 510 q 571 921 496 822 z "},"":{"ha":1089,"x_min":43,"x_max":1328,"o":"m 713 582 q 793 729 781 704 q 700 739 778 744 q 663 711 696 746 q 617 661 629 676 q 596 631 606 646 q 542 551 567 588 q 461 399 436 413 q 632 406 610 407 q 640 417 633 411 q 657 456 646 422 q 665 490 657 471 q 686 536 686 525 q 713 582 707 567 m 996 113 l 1038 125 q 1059 140 1049 140 q 1082 128 1069 140 q 1107 96 1094 117 q 1119 54 1119 75 q 957 -31 1119 33 q 876 -62 899 -56 q 798 -69 853 -69 q 702 -62 743 -69 q 629 -29 661 -54 q 578 222 531 44 q 593 283 585 257 l 590 283 q 376 290 564 279 l 354 261 q 289 158 325 226 q 219 50 253 89 q 147 -25 171 -25 q 108 -12 122 -25 q 106 93 43 18 l 128 122 q 181 210 129 131 q 244 296 232 290 q 247 349 274 324 q 238 373 240 356 q 253 408 236 390 q 301 424 271 425 q 331 444 331 438 q 360 493 332 450 q 410 558 389 536 q 457 636 422 583 q 485 674 467 646 q 513 713 504 701 q 586 793 528 725 q 643 864 592 803 q 867 867 703 922 q 1036 906 943 899 q 1104 916 1049 914 q 1208 914 1160 918 q 1293 889 1240 914 q 1301 882 1294 888 q 1310 873 1307 876 q 1319 863 1314 869 q 1326 851 1324 856 q 1328 839 1328 846 q 1310 818 1328 828 q 1218 808 1300 808 q 1088 800 1136 808 q 1035 792 1039 792 q 975 783 1013 783 l 963 783 q 931 731 957 783 q 903 665 904 679 q 878 615 903 651 q 856 535 831 550 q 1043 554 981 554 q 1104 549 1078 564 q 1126 518 1128 543 q 1110 486 1125 493 q 953 434 1092 467 q 796 406 814 401 q 767 378 783 433 l 753 324 q 722 251 728 268 q 706 171 717 233 q 764 53 683 90 q 911 65 821 42 q 996 113 917 68 z "},"":{"ha":669,"x_min":132,"x_max":857,"o":"m 358 35 q 362 36 358 35 q 374 36 367 36 q 394 40 382 36 q 415 47 406 44 q 439 56 424 50 q 463 65 454 61 q 489 78 471 69 q 619 149 586 118 q 678 175 656 175 q 706 164 696 181 q 717 123 717 147 q 690 72 717 99 q 628 24 664 44 q 560 -12 613 8 q 368 -93 464 -83 q 351 -124 351 -107 q 378 -158 360 -136 q 425 -231 419 -207 q 406 -319 438 -278 q 328 -369 374 -360 q 171 -340 282 -378 q 141 -308 150 -333 q 147 -266 132 -283 q 199 -260 161 -249 q 308 -281 289 -290 q 324 -264 318 -275 q 303 -207 335 -244 q 288 -190 296 -200 q 253 -156 281 -181 q 269 -68 221 -110 q 178 33 201 -28 q 158 196 156 93 q 201 431 158 319 q 221 477 203 433 q 246 535 239 521 q 329 675 269 589 q 449 837 407 793 q 586 946 492 881 q 665 975 618 969 q 758 958 711 981 q 826 883 806 935 q 824 719 857 828 q 732 556 790 610 q 635 579 690 529 q 621 611 618 610 q 626 613 624 613 q 663 672 639 628 q 693 735 688 715 q 702 769 699 754 q 707 793 706 785 q 710 810 708 801 q 712 824 711 819 q 711 833 713 828 q 701 850 711 840 q 653 839 692 860 q 490 682 585 810 q 340 435 369 524 l 325 399 q 308 335 329 376 q 292 156 285 238 q 342 38 299 54 q 358 35 349 35 z "},"":{"ha":761,"x_min":128,"x_max":943,"o":"m 733 1200 q 792 1116 760 1190 q 826 1029 825 1042 q 817 1003 826 1017 q 797 988 808 990 q 774 981 781 976 q 760 1010 768 985 q 728 1061 754 1021 q 688 1174 668 1150 q 733 1200 721 1203 m 367 72 l 422 68 q 481 79 456 68 q 633 129 589 97 q 647 139 640 132 q 658 146 653 146 q 657 142 657 143 q 683 165 657 142 q 741 194 710 188 q 791 197 772 201 q 811 185 810 192 q 781 108 824 163 q 358 -54 653 -50 q 286 -31 318 -50 q 246 -6 254 -11 q 217 14 238 0 q 193 31 197 28 q 136 153 151 72 q 143 263 128 189 q 178 378 158 336 q 313 614 208 451 l 321 625 q 361 711 321 635 q 381 769 396 749 q 433 835 371 782 q 492 875 461 858 q 556 903 524 900 q 593 890 589 907 q 640 894 606 886 q 685 903 674 901 q 778 925 694 915 l 875 928 q 903 915 885 931 q 933 876 922 900 q 917 833 943 851 q 819 806 890 814 q 692 785 749 797 q 615 769 636 774 q 587 764 593 765 q 567 758 581 763 q 546 747 553 753 q 508 703 524 726 q 453 608 496 694 q 409 549 443 594 q 382 496 375 504 q 426 488 419 488 q 493 503 438 493 q 710 556 682 551 q 748 554 728 569 q 780 506 768 539 q 767 458 792 474 q 648 422 742 443 q 503 386 554 400 q 422 365 451 372 q 369 357 393 358 q 335 361 346 356 q 325 381 324 367 q 290 346 310 388 q 256 196 256 272 q 260 164 256 175 q 367 72 283 96 z "},"":{"ha":761,"x_min":128,"x_max":943,"o":"m 819 1188 q 876 1149 843 1201 q 857 1110 882 1135 q 795 1055 832 1085 q 747 1010 758 1025 q 726 983 733 986 q 701 992 718 981 q 687 1019 692 1000 q 684 1048 682 1038 q 743 1119 686 1058 q 819 1188 800 1181 m 367 72 l 422 68 q 481 79 456 68 q 633 129 589 97 q 647 139 640 132 q 658 146 653 146 q 657 142 657 143 q 683 165 657 142 q 741 194 710 188 q 791 197 772 201 q 811 185 810 192 q 781 108 824 163 q 358 -54 653 -50 q 286 -31 318 -50 q 246 -6 254 -11 q 217 14 238 0 q 193 31 197 28 q 136 153 151 72 q 143 263 128 189 q 178 378 158 336 q 313 614 208 451 l 321 625 q 361 711 321 635 q 381 769 396 749 q 433 835 371 782 q 492 875 461 858 q 556 903 524 900 q 593 890 589 907 q 640 894 606 886 q 685 903 674 901 q 778 925 694 915 l 875 928 q 903 915 885 931 q 933 876 922 900 q 917 833 943 851 q 819 806 890 814 q 692 785 749 797 q 615 769 636 774 q 587 764 593 765 q 567 758 581 763 q 546 747 553 753 q 508 703 524 726 q 453 608 496 694 q 409 549 443 594 q 382 496 375 504 q 426 488 419 488 q 493 503 438 493 q 710 556 682 551 q 748 554 728 569 q 780 506 768 539 q 767 458 792 474 q 648 422 742 443 q 503 386 554 400 q 422 365 451 372 q 369 357 393 358 q 335 361 346 356 q 325 381 324 367 q 290 346 310 388 q 256 196 256 272 q 260 164 256 175 q 367 72 283 96 z "},"":{"ha":761,"x_min":128,"x_max":943,"o":"m 627 1008 q 625 1011 627 1008 q 625 1028 622 1015 q 638 1053 628 1040 q 694 1106 647 1065 q 767 1160 740 1146 q 810 1157 793 1182 q 872 1099 832 1139 q 924 1042 911 1058 q 918 1000 936 1025 q 861 1018 899 972 q 786 1092 833 1051 q 717 1039 763 1078 q 660 996 672 1000 q 640 996 647 992 q 627 1008 632 1000 m 367 72 l 422 68 q 481 79 456 68 q 633 129 589 97 q 647 139 640 132 q 658 146 653 146 q 657 142 657 143 q 683 165 657 142 q 741 194 710 188 q 791 197 772 201 q 811 185 810 192 q 781 108 824 163 q 358 -54 653 -50 q 286 -31 318 -50 q 246 -6 254 -11 q 217 14 238 0 q 193 31 197 28 q 136 153 151 72 q 143 263 128 189 q 178 378 158 336 q 313 614 208 451 l 321 625 q 361 711 321 635 q 381 769 396 749 q 433 835 371 782 q 492 875 461 858 q 556 903 524 900 q 593 890 589 907 q 640 894 606 886 q 685 903 674 901 q 778 925 694 915 l 875 928 q 903 915 885 931 q 933 876 922 900 q 917 833 943 851 q 819 806 890 814 q 692 785 749 797 q 615 769 636 774 q 587 764 593 765 q 567 758 581 763 q 546 747 553 753 q 508 703 524 726 q 453 608 496 694 q 409 549 443 594 q 382 496 375 504 q 426 488 419 488 q 493 503 438 493 q 710 556 682 551 q 748 554 728 569 q 780 506 768 539 q 767 458 792 474 q 648 422 742 443 q 503 386 554 400 q 422 365 451 372 q 369 357 393 358 q 335 361 346 356 q 325 381 324 367 q 290 346 310 388 q 256 196 256 272 q 260 164 256 175 q 367 72 283 96 z "},"":{"ha":761,"x_min":128,"x_max":943,"o":"m 665 1150 q 705 1163 688 1172 q 729 1132 722 1154 q 738 1098 740 1111 q 715 1060 735 1085 q 633 1065 668 996 q 629 1086 626 1079 q 657 1142 642 1129 l 665 1150 m 843 1150 q 883 1163 865 1172 q 907 1132 900 1154 q 915 1098 918 1111 q 893 1060 913 1085 q 811 1065 846 996 q 807 1086 804 1079 q 835 1142 819 1129 l 843 1150 m 367 72 l 422 68 q 481 79 456 68 q 633 129 589 97 q 647 139 640 132 q 658 146 653 146 q 657 142 657 143 q 683 165 657 142 q 741 194 710 188 q 791 197 772 201 q 811 185 810 192 q 781 108 824 163 q 358 -54 653 -50 q 286 -31 318 -50 q 246 -6 254 -11 q 217 14 238 0 q 193 31 197 28 q 136 153 151 72 q 143 263 128 189 q 178 378 158 336 q 313 614 208 451 l 321 625 q 361 711 321 635 q 381 769 396 749 q 433 835 371 782 q 492 875 461 858 q 556 903 524 900 q 593 890 589 907 q 640 894 606 886 q 685 903 674 901 q 778 925 694 915 l 875 928 q 903 915 885 931 q 933 876 922 900 q 917 833 943 851 q 819 806 890 814 q 692 785 749 797 q 615 769 636 774 q 587 764 593 765 q 567 758 581 763 q 546 747 553 753 q 508 703 524 726 q 453 608 496 694 q 409 549 443 594 q 382 496 375 504 q 426 488 419 488 q 493 503 438 493 q 710 556 682 551 q 748 554 728 569 q 780 506 768 539 q 767 458 792 474 q 648 422 742 443 q 503 386 554 400 q 422 365 451 372 q 369 357 393 358 q 335 361 346 356 q 325 381 324 367 q 290 346 310 388 q 256 196 256 272 q 260 164 256 175 q 367 72 283 96 z "},"":{"ha":556,"x_min":51,"x_max":850,"o":"m 592 1200 q 652 1116 619 1190 q 685 1029 685 1042 q 677 1003 686 1017 q 657 988 668 990 q 634 981 640 976 q 619 1010 628 985 q 586 1061 614 1021 q 547 1174 528 1150 q 592 1200 581 1203 m 351 -34 q 339 -36 351 -34 q 326 -51 326 -37 q 314 -74 326 -65 q 281 -78 301 -82 q 246 -57 261 -74 q 140 -36 228 -32 q 81 -26 111 -40 q 57 6 51 -12 q 98 42 58 24 q 193 63 138 61 l 251 64 q 276 126 269 99 q 287 172 282 154 q 311 250 292 189 q 363 419 357 392 q 408 568 383 464 q 461 767 472 763 q 388 762 447 768 q 321 751 328 756 q 297 754 314 742 q 276 782 281 767 q 285 821 271 813 q 356 849 299 833 q 467 870 414 864 q 549 900 521 876 q 597 908 578 910 q 693 903 614 897 q 843 867 821 915 q 840 823 850 840 q 807 807 831 806 q 714 799 782 800 q 615 779 622 790 q 606 767 611 775 q 597 756 600 758 q 583 696 599 743 q 550 594 567 649 q 496 439 506 458 q 390 65 494 433 q 503 76 425 68 q 588 79 582 83 q 599 60 593 75 q 594 -3 626 22 q 486 -26 563 -28 q 351 -34 376 -31 z "},"":{"ha":556,"x_min":51,"x_max":850,"o":"m 679 1188 q 736 1149 703 1201 q 717 1110 742 1135 q 655 1055 692 1085 q 607 1010 618 1025 q 585 983 593 986 q 561 992 578 981 q 547 1019 551 1000 q 544 1048 542 1038 q 603 1119 546 1058 q 679 1188 660 1181 m 351 -34 q 339 -36 351 -34 q 326 -51 326 -37 q 314 -74 326 -65 q 281 -78 301 -82 q 246 -57 261 -74 q 140 -36 228 -32 q 81 -26 111 -40 q 57 6 51 -12 q 98 42 58 24 q 193 63 138 61 l 251 64 q 276 126 269 99 q 287 172 282 154 q 311 250 292 189 q 363 419 357 392 q 408 568 383 464 q 461 767 472 763 q 388 762 447 768 q 321 751 328 756 q 297 754 314 742 q 276 782 281 767 q 285 821 271 813 q 356 849 299 833 q 467 870 414 864 q 549 900 521 876 q 597 908 578 910 q 693 903 614 897 q 843 867 821 915 q 840 823 850 840 q 807 807 831 806 q 714 799 782 800 q 615 779 622 790 q 606 767 611 775 q 597 756 600 758 q 583 696 599 743 q 550 594 567 649 q 496 439 506 458 q 390 65 494 433 q 503 76 425 68 q 588 79 582 83 q 599 60 593 75 q 594 -3 626 22 q 486 -26 563 -28 q 351 -34 376 -31 z "},"":{"ha":556,"x_min":51,"x_max":850,"o":"m 487 1008 q 484 1011 487 1008 q 485 1028 482 1015 q 497 1053 488 1040 q 553 1106 507 1065 q 626 1160 600 1146 q 669 1157 653 1182 q 731 1099 692 1139 q 783 1042 771 1058 q 778 1000 796 1025 q 721 1018 758 972 q 646 1092 693 1051 q 577 1039 622 1078 q 519 996 532 1000 q 499 996 507 992 q 487 1008 492 1000 m 351 -34 q 339 -36 351 -34 q 326 -51 326 -37 q 314 -74 326 -65 q 281 -78 301 -82 q 246 -57 261 -74 q 140 -36 228 -32 q 81 -26 111 -40 q 57 6 51 -12 q 98 42 58 24 q 193 63 138 61 l 251 64 q 276 126 269 99 q 287 172 282 154 q 311 250 292 189 q 363 419 357 392 q 408 568 383 464 q 461 767 472 763 q 388 762 447 768 q 321 751 328 756 q 297 754 314 742 q 276 782 281 767 q 285 821 271 813 q 356 849 299 833 q 467 870 414 864 q 549 900 521 876 q 597 908 578 910 q 693 903 614 897 q 843 867 821 915 q 840 823 850 840 q 807 807 831 806 q 714 799 782 800 q 615 779 622 790 q 606 767 611 775 q 597 756 600 758 q 583 696 599 743 q 550 594 567 649 q 496 439 506 458 q 390 65 494 433 q 503 76 425 68 q 588 79 582 83 q 599 60 593 75 q 594 -3 626 22 q 486 -26 563 -28 q 351 -34 376 -31 z "},"":{"ha":556,"x_min":51,"x_max":850,"o":"m 525 1150 q 565 1163 547 1172 q 589 1132 582 1154 q 597 1098 600 1111 q 575 1060 594 1085 q 493 1065 528 996 q 489 1086 486 1079 q 517 1142 501 1129 l 525 1150 m 703 1150 q 742 1163 725 1172 q 767 1132 760 1154 q 775 1098 778 1111 q 753 1060 772 1085 q 671 1065 706 996 q 667 1086 664 1079 q 694 1142 679 1129 l 703 1150 m 351 -34 q 339 -36 351 -34 q 326 -51 326 -37 q 314 -74 326 -65 q 281 -78 301 -82 q 246 -57 261 -74 q 140 -36 228 -32 q 81 -26 111 -40 q 57 6 51 -12 q 98 42 58 24 q 193 63 138 61 l 251 64 q 276 126 269 99 q 287 172 282 154 q 311 250 292 189 q 363 419 357 392 q 408 568 383 464 q 461 767 472 763 q 388 762 447 768 q 321 751 328 756 q 297 754 314 742 q 276 782 281 767 q 285 821 271 813 q 356 849 299 833 q 467 870 414 864 q 549 900 521 876 q 597 908 578 910 q 693 903 614 897 q 843 867 821 915 q 840 823 850 840 q 807 807 831 806 q 714 799 782 800 q 615 779 622 790 q 606 767 611 775 q 597 756 600 758 q 583 696 599 743 q 550 594 567 649 q 496 439 506 458 q 390 65 494 433 q 503 76 425 68 q 588 79 582 83 q 599 60 593 75 q 594 -3 626 22 q 486 -26 563 -28 q 351 -34 376 -31 z "},"":{"ha":803,"x_min":60,"x_max":944,"o":"m 246 -8 q 244 -21 244 -14 q 288 -29 269 -32 q 338 -25 306 -26 q 433 -4 411 -22 q 579 106 510 46 q 608 122 582 113 q 651 166 615 129 q 692 207 686 203 q 697 226 693 214 q 700 243 700 238 q 750 330 717 261 q 796 449 783 399 q 706 788 846 667 q 610 842 676 813 q 538 869 544 871 q 522 845 531 867 q 497 783 513 824 q 467 701 482 742 q 431 600 453 661 q 396 500 410 539 q 486 472 454 499 q 496 428 507 451 q 454 410 485 406 l 364 404 q 335 311 335 314 q 275 100 294 249 q 269 74 272 88 q 263 50 265 60 q 259 31 261 40 q 255 14 257 21 q 251 1 253 7 q 246 -8 249 -8 m 218 481 l 267 490 q 328 664 306 622 q 338 696 331 671 q 378 817 354 757 l 388 863 l 372 869 q 335 869 347 861 q 301 883 322 865 q 276 915 279 901 l 272 939 q 356 974 275 956 q 508 987 438 993 q 683 943 578 981 q 832 838 756 915 q 929 674 908 760 q 941 596 938 643 q 935 530 944 549 q 938 507 925 511 q 926 471 935 501 q 913 429 917 440 q 880 306 908 379 q 826 190 851 233 q 817 185 818 189 q 801 158 817 178 q 784 138 797 156 q 765 117 771 121 q 757 101 764 107 q 744 94 750 94 q 740 89 744 90 q 641 -10 715 53 q 515 -94 567 -74 q 457 -124 508 -100 q 376 -138 449 -132 q 289 -147 303 -144 q 144 -131 236 -156 q 114 -115 124 -126 q 102 -102 104 -104 q 94 -91 100 -100 q 83 -78 88 -82 q 66 -6 60 -47 q 108 42 72 36 q 135 36 118 43 q 142 105 135 75 q 238 397 150 135 q 197 404 217 397 q 147 431 163 404 q 150 463 133 451 q 218 481 167 475 z "},"":{"ha":786,"x_min":36,"x_max":1006,"o":"m 868 1064 q 763 1013 776 1013 q 740 1014 749 1013 q 727 1017 732 1015 q 713 1024 722 1018 q 700 1031 703 1029 q 685 1041 697 1032 q 670 1051 672 1050 q 640 1076 668 1053 q 598 1100 613 1100 q 566 1076 583 1100 q 535 1051 549 1053 q 521 1029 532 1033 q 497 1042 507 1032 q 489 1066 488 1053 q 513 1110 490 1079 q 576 1161 535 1140 q 624 1160 594 1168 q 667 1140 653 1153 q 694 1116 682 1128 q 710 1101 706 1104 q 723 1091 714 1097 q 736 1083 732 1085 q 803 1106 760 1081 q 863 1137 847 1131 q 890 1131 879 1143 q 900 1108 901 1118 q 889 1083 899 1097 q 868 1064 879 1069 m 638 88 q 774 486 675 88 q 810 669 797 565 q 854 856 854 838 l 854 886 q 866 904 860 886 q 872 950 872 922 q 892 997 872 978 q 954 1022 914 1035 q 1000 978 994 1010 q 963 764 1006 947 q 945 672 963 747 q 922 564 928 596 q 897 476 908 474 q 751 29 840 232 q 666 -69 717 -50 q 569 -33 615 -89 q 508 77 528 21 q 476 239 489 133 q 450 557 447 424 q 439 692 453 690 q 402 621 426 692 q 342 462 378 550 q 306 368 307 374 q 268 267 281 318 q 188 24 213 119 q 153 -97 163 -71 q 132 -129 143 -122 q 85 -117 121 -136 q 42 -61 49 -99 q 50 15 36 -24 q 86 116 60 53 q 124 236 113 179 q 200 438 171 346 q 269 593 201 444 q 403 865 322 743 q 479 901 428 907 q 544 854 531 896 q 575 579 572 790 q 576 493 575 519 q 581 425 578 467 q 599 299 583 357 q 608 219 601 279 q 638 88 625 88 z "},"":{"ha":689,"x_min":132,"x_max":869,"o":"m 694 1200 q 755 1116 722 1190 q 788 1029 788 1042 q 780 1003 789 1017 q 760 988 771 990 q 737 981 743 976 q 722 1010 731 985 q 689 1061 717 1021 q 650 1174 631 1150 q 694 1200 683 1203 m 319 53 q 378 44 346 39 q 435 66 411 49 q 530 165 458 83 q 629 295 601 247 q 685 447 657 343 q 715 565 714 550 q 715 678 717 581 q 692 768 713 744 q 586 797 646 817 q 468 690 546 781 q 392 574 390 600 q 385 553 392 563 q 311 389 349 514 q 269 133 264 228 q 319 53 271 78 m 551 901 q 642 931 617 940 q 846 714 813 893 q 851 507 869 600 q 743 268 832 414 q 490 -31 635 54 q 254 -49 344 -117 q 140 85 144 32 q 160 300 132 161 q 167 322 168 308 q 169 349 165 335 q 182 390 174 363 q 196 444 190 417 q 350 754 258 633 q 551 901 444 851 z "},"":{"ha":689,"x_min":132,"x_max":869,"o":"m 782 1188 q 839 1149 806 1201 q 819 1110 844 1135 q 758 1055 794 1085 q 710 1010 721 1025 q 688 983 696 986 q 664 992 681 981 q 649 1019 654 1000 q 647 1048 644 1038 q 706 1119 649 1058 q 782 1188 763 1181 m 319 53 q 378 44 346 39 q 435 66 411 49 q 530 165 458 83 q 629 295 601 247 q 685 447 657 343 q 715 565 714 550 q 715 678 717 581 q 692 768 713 744 q 586 797 646 817 q 468 690 546 781 q 392 574 390 600 q 385 553 392 563 q 311 389 349 514 q 269 133 264 228 q 319 53 271 78 m 551 901 q 642 931 617 940 q 846 714 813 893 q 851 507 869 600 q 743 268 832 414 q 490 -31 635 54 q 254 -49 344 -117 q 140 85 144 32 q 160 300 132 161 q 167 322 168 308 q 169 349 165 335 q 182 390 174 363 q 196 444 190 417 q 350 754 258 633 q 551 901 444 851 z "},"":{"ha":689,"x_min":132,"x_max":899,"o":"m 590 1008 q 587 1011 590 1008 q 588 1028 585 1015 q 600 1053 590 1040 q 656 1106 610 1065 q 729 1160 703 1146 q 772 1157 756 1182 q 834 1099 794 1139 q 886 1042 874 1058 q 881 1000 899 1025 q 824 1018 861 972 q 749 1092 796 1051 q 680 1039 725 1078 q 622 996 635 1000 q 602 996 610 992 q 590 1008 594 1000 m 319 53 q 378 44 346 39 q 435 66 411 49 q 530 165 458 83 q 629 295 601 247 q 685 447 657 343 q 715 565 714 550 q 715 678 717 581 q 692 768 713 744 q 586 797 646 817 q 468 690 546 781 q 392 574 390 600 q 385 553 392 563 q 311 389 349 514 q 269 133 264 228 q 319 53 271 78 m 551 901 q 642 931 617 940 q 846 714 813 893 q 851 507 869 600 q 743 268 832 414 q 490 -31 635 54 q 254 -49 344 -117 q 140 85 144 32 q 160 300 132 161 q 167 322 168 308 q 169 349 165 335 q 182 390 174 363 q 196 444 190 417 q 350 754 258 633 q 551 901 444 851 z "},"":{"ha":689,"x_min":132,"x_max":929,"o":"m 896 1064 q 790 1013 804 1013 q 768 1014 776 1013 q 755 1017 760 1015 q 740 1024 750 1018 q 728 1031 731 1029 q 713 1041 725 1032 q 698 1051 700 1050 q 668 1076 696 1053 q 626 1100 640 1100 q 594 1076 611 1100 q 563 1051 576 1053 q 549 1029 560 1033 q 525 1042 535 1032 q 517 1066 515 1053 q 540 1110 518 1079 q 604 1161 563 1140 q 651 1160 622 1168 q 695 1140 681 1153 q 722 1116 710 1128 q 738 1101 733 1104 q 751 1091 742 1097 q 764 1083 760 1085 q 831 1106 788 1081 q 891 1137 875 1131 q 918 1131 907 1143 q 928 1108 929 1118 q 917 1083 926 1097 q 896 1064 907 1069 m 319 53 q 378 44 346 39 q 435 66 411 49 q 530 165 458 83 q 629 295 601 247 q 685 447 657 343 q 715 565 714 550 q 715 678 717 581 q 692 768 713 744 q 586 797 646 817 q 468 690 546 781 q 392 574 390 600 q 385 553 392 563 q 311 389 349 514 q 269 133 264 228 q 319 53 271 78 m 551 901 q 642 931 617 940 q 846 714 813 893 q 851 507 869 600 q 743 268 832 414 q 490 -31 635 54 q 254 -49 344 -117 q 140 85 144 32 q 160 300 132 161 q 167 322 168 308 q 169 349 165 335 q 182 390 174 363 q 196 444 190 417 q 350 754 258 633 q 551 901 444 851 z "},"":{"ha":689,"x_min":132,"x_max":881,"o":"m 628 1150 q 667 1163 650 1172 q 692 1132 685 1154 q 700 1098 703 1111 q 678 1060 697 1085 q 596 1065 631 996 q 592 1086 589 1079 q 619 1142 604 1129 l 628 1150 m 806 1150 q 845 1163 828 1172 q 869 1132 863 1154 q 878 1098 881 1111 q 856 1060 875 1085 q 774 1065 808 996 q 769 1086 767 1079 q 797 1142 782 1129 l 806 1150 m 319 53 q 378 44 346 39 q 435 66 411 49 q 530 165 458 83 q 629 295 601 247 q 685 447 657 343 q 715 565 714 550 q 715 678 717 581 q 692 768 713 744 q 586 797 646 817 q 468 690 546 781 q 392 574 390 600 q 385 553 392 563 q 311 389 349 514 q 269 133 264 228 q 319 53 271 78 m 551 901 q 642 931 617 940 q 846 714 813 893 q 851 507 869 600 q 743 268 832 414 q 490 -31 635 54 q 254 -49 344 -117 q 140 85 144 32 q 160 300 132 161 q 167 322 168 308 q 169 349 165 335 q 182 390 174 363 q 196 444 190 417 q 350 754 258 633 q 551 901 444 851 z "},"":{"ha":619,"x_min":174,"x_max":624,"o":"m 401 358 q 485 444 433 393 q 572 496 536 496 q 615 472 607 496 q 599 431 624 449 l 526 347 l 472 290 q 565 201 532 235 q 594 163 582 188 q 611 107 621 139 q 525 122 606 58 q 407 221 500 139 l 317 129 q 278 100 303 113 q 222 85 254 75 q 238 169 174 90 q 335 288 257 200 l 254 365 q 199 456 200 419 q 223 500 199 492 q 265 483 247 508 q 347 411 286 463 q 356 401 349 408 q 401 358 379 381 z "},"":{"ha":689,"x_min":107,"x_max":918,"o":"m 376 553 q 307 403 342 517 q 263 194 272 290 q 492 538 468 514 q 504 544 497 536 q 518 572 511 551 q 542 597 525 593 q 550 611 543 601 q 558 624 557 621 q 564 634 558 628 q 571 644 569 640 q 676 774 603 676 q 578 797 636 818 q 460 690 538 781 q 383 574 382 600 q 376 553 383 563 m 594 513 q 585 503 589 515 l 583 500 q 540 436 583 489 q 292 64 400 231 q 365 43 326 38 q 426 66 403 49 q 522 165 450 83 q 621 295 593 247 q 685 469 649 343 q 698 517 688 478 q 708 580 708 557 q 708 622 708 603 q 707 657 707 642 q 650 588 689 639 q 610 533 611 536 q 606 525 608 529 q 594 513 601 514 m 169 -140 q 117 -69 107 -137 q 158 29 122 -29 q 132 85 135 57 q 151 300 124 161 q 158 322 160 308 q 161 349 157 335 q 174 390 165 363 q 188 444 182 417 q 342 754 250 633 q 543 901 436 851 q 633 931 608 940 q 751 874 701 915 q 808 958 806 950 q 838 971 814 979 q 861 974 842 974 q 888 972 881 974 q 904 941 890 964 q 900 878 918 918 q 879 844 892 854 q 817 785 838 806 q 838 714 829 753 q 842 507 861 600 q 735 268 824 414 q 481 -31 626 54 q 246 -49 336 -117 l 229 -36 q 200 -89 204 -78 q 169 -140 186 -137 z "},"":{"ha":669,"x_min":147,"x_max":942,"o":"m 675 1200 q 734 1116 701 1190 q 767 1029 767 1042 q 759 1003 768 1017 q 739 988 750 990 q 716 981 722 976 q 701 1010 710 985 q 669 1061 696 1021 q 629 1174 610 1150 q 675 1200 663 1203 m 472 121 q 534 188 493 129 q 575 256 575 246 q 593 286 575 265 q 715 515 618 311 q 808 827 800 786 q 832 913 817 868 q 868 920 850 928 q 896 908 886 913 q 916 897 906 903 q 929 889 926 890 q 935 843 942 874 q 875 608 899 672 q 834 501 851 543 q 808 438 817 460 q 777 368 799 417 q 747 300 756 319 l 747 292 q 717 256 731 282 q 697 228 703 231 l 685 196 q 668 178 683 188 q 649 160 653 169 q 644 147 646 150 q 524 11 597 76 q 402 -73 450 -54 q 318 -83 354 -92 q 178 54 208 -56 q 192 382 147 164 q 263 624 213 483 q 369 862 314 765 q 470 950 424 958 q 531 901 517 942 q 511 839 546 861 q 464 761 494 821 q 422 681 433 701 q 314 308 336 433 q 285 172 289 193 q 282 113 282 150 q 290 99 285 107 q 297 85 294 90 q 303 75 299 81 q 318 64 307 68 q 419 69 368 40 q 449 94 428 85 q 455 91 453 89 q 460 100 457 93 q 472 121 458 107 z "},"":{"ha":669,"x_min":147,"x_max":942,"o":"m 761 1188 q 818 1149 785 1201 q 799 1110 824 1135 q 737 1055 774 1085 q 689 1010 700 1025 q 667 983 675 986 q 643 992 660 981 q 628 1019 633 1000 q 626 1048 624 1038 q 685 1119 628 1058 q 761 1188 742 1181 m 472 121 q 534 188 493 129 q 575 256 575 246 q 593 286 575 265 q 715 515 618 311 q 808 827 800 786 q 832 913 817 868 q 868 920 850 928 q 896 908 886 913 q 916 897 906 903 q 929 889 926 890 q 935 843 942 874 q 875 608 899 672 q 834 501 851 543 q 808 438 817 460 q 777 368 799 417 q 747 300 756 319 l 747 292 q 717 256 731 282 q 697 228 703 231 l 685 196 q 668 178 683 188 q 649 160 653 169 q 644 147 646 150 q 524 11 597 76 q 402 -73 450 -54 q 318 -83 354 -92 q 178 54 208 -56 q 192 382 147 164 q 263 624 213 483 q 369 862 314 765 q 470 950 424 958 q 531 901 517 942 q 511 839 546 861 q 464 761 494 821 q 422 681 433 701 q 314 308 336 433 q 285 172 289 193 q 282 113 282 150 q 290 99 285 107 q 297 85 294 90 q 303 75 299 81 q 318 64 307 68 q 419 69 368 40 q 449 94 428 85 q 455 91 453 89 q 460 100 457 93 q 472 121 458 107 z "},"":{"ha":669,"x_min":147,"x_max":942,"o":"m 569 1008 q 566 1011 569 1008 q 567 1028 564 1015 q 579 1053 569 1040 q 635 1106 589 1065 q 708 1160 682 1146 q 751 1157 735 1182 q 813 1099 774 1139 q 865 1042 853 1058 q 860 1000 878 1025 q 803 1018 840 972 q 728 1092 775 1051 q 659 1039 704 1078 q 601 996 614 1000 q 581 996 589 992 q 569 1008 574 1000 m 472 121 q 534 188 493 129 q 575 256 575 246 q 593 286 575 265 q 715 515 618 311 q 808 827 800 786 q 832 913 817 868 q 868 920 850 928 q 896 908 886 913 q 916 897 906 903 q 929 889 926 890 q 935 843 942 874 q 875 608 899 672 q 834 501 851 543 q 808 438 817 460 q 777 368 799 417 q 747 300 756 319 l 747 292 q 717 256 731 282 q 697 228 703 231 l 685 196 q 668 178 683 188 q 649 160 653 169 q 644 147 646 150 q 524 11 597 76 q 402 -73 450 -54 q 318 -83 354 -92 q 178 54 208 -56 q 192 382 147 164 q 263 624 213 483 q 369 862 314 765 q 470 950 424 958 q 531 901 517 942 q 511 839 546 861 q 464 761 494 821 q 422 681 433 701 q 314 308 336 433 q 285 172 289 193 q 282 113 282 150 q 290 99 285 107 q 297 85 294 90 q 303 75 299 81 q 318 64 307 68 q 419 69 368 40 q 449 94 428 85 q 455 91 453 89 q 460 100 457 93 q 472 121 458 107 z "},"":{"ha":669,"x_min":147,"x_max":942,"o":"m 785 1150 q 824 1163 807 1172 q 849 1132 842 1154 q 857 1098 860 1111 q 835 1060 854 1085 q 753 1065 788 996 q 749 1086 746 1079 q 776 1142 761 1129 l 785 1150 m 607 1150 q 647 1163 629 1172 q 671 1132 664 1154 q 679 1098 682 1111 q 657 1060 676 1085 q 575 1065 610 996 q 571 1086 568 1079 q 599 1142 583 1129 l 607 1150 m 472 121 q 534 188 493 129 q 575 256 575 246 q 593 286 575 265 q 715 515 618 311 q 808 827 800 786 q 832 913 817 868 q 868 920 850 928 q 896 908 886 913 q 916 897 906 903 q 929 889 926 890 q 935 843 942 874 q 875 608 899 672 q 834 501 851 543 q 808 438 817 460 q 777 368 799 417 q 747 300 756 319 l 747 292 q 717 256 731 282 q 697 228 703 231 l 685 196 q 668 178 683 188 q 649 160 653 169 q 644 147 646 150 q 524 11 597 76 q 402 -73 450 -54 q 318 -83 354 -92 q 178 54 208 -56 q 192 382 147 164 q 263 624 213 483 q 369 862 314 765 q 470 950 424 958 q 531 901 517 942 q 511 839 546 861 q 464 761 494 821 q 422 681 433 701 q 314 308 336 433 q 285 172 289 193 q 282 113 282 150 q 290 99 285 107 q 297 85 294 90 q 303 75 299 81 q 318 64 307 68 q 419 69 368 40 q 449 94 428 85 q 455 91 453 89 q 460 100 457 93 q 472 121 458 107 z "},"":{"ha":700,"x_min":292,"x_max":967,"o":"m 757 1189 q 814 1150 781 1203 q 794 1111 819 1136 q 733 1056 769 1086 q 685 1011 696 1026 q 663 985 671 988 q 639 993 656 982 q 624 1020 629 1001 q 622 1049 619 1039 q 681 1121 624 1060 q 757 1189 738 1182 m 292 -50 q 292 -45 292 -50 q 292 -34 292 -40 q 294 -24 293 -28 q 297 -10 294 -19 q 301 4 300 -1 q 306 22 303 10 q 311 43 308 35 q 353 197 314 126 q 396 343 353 240 l 411 390 q 319 588 332 493 q 307 813 299 658 q 317 875 307 850 q 344 944 332 919 q 407 938 385 979 q 428 826 429 896 q 483 507 436 546 q 499 506 489 501 q 513 510 508 510 q 528 522 517 511 q 546 541 539 533 q 569 567 553 549 q 614 615 586 586 q 700 713 642 643 q 882 900 846 883 q 922 914 897 907 q 935 894 931 911 q 944 871 940 876 q 953 858 947 865 q 966 833 967 842 q 907 765 965 824 q 810 669 876 739 q 704 551 743 600 q 536 368 578 406 q 529 365 536 365 q 507 274 519 333 q 483 196 499 246 q 439 51 463 124 q 396 -78 414 -43 q 358 -106 378 -112 q 304 -72 350 -104 q 292 -50 292 -60 z "},"":{"ha":656,"x_min":99,"x_max":811,"o":"m 636 485 q 672 578 664 522 q 667 653 681 635 q 624 676 653 671 q 510 654 568 688 q 416 478 489 646 q 350 290 343 311 q 456 310 413 289 q 636 485 538 350 m 324 575 q 342 610 324 585 q 357 646 342 635 q 360 685 365 681 q 382 722 347 721 q 397 737 389 722 q 407 753 404 751 q 479 957 479 942 q 498 978 479 972 q 532 985 517 985 q 554 992 539 992 l 576 969 q 592 933 592 956 l 592 906 q 584 874 592 890 q 572 850 576 857 q 546 793 563 826 l 592 801 q 692 792 647 801 q 771 726 739 769 q 807 648 803 683 q 780 519 811 613 q 724 406 749 425 q 704 374 738 407 q 658 336 671 340 q 621 292 644 304 q 556 239 568 258 q 531 233 556 254 q 519 225 522 226 q 399 176 457 188 q 349 168 389 168 l 301 175 l 279 117 q 258 38 272 88 q 238 -36 243 -11 q 220 -83 233 -61 q 192 -116 207 -106 q 171 -121 178 -126 q 161 -117 169 -121 q 148 -110 153 -112 q 134 -103 143 -108 q 119 -94 125 -99 q 107 -72 107 -83 q 131 54 99 -57 q 210 300 203 301 q 232 357 217 338 q 247 410 235 378 q 272 454 260 443 q 296 522 272 469 q 324 575 319 575 z "},"":{"ha":553,"x_min":31,"x_max":742,"o":"m 563 474 q 543 451 554 474 q 538 417 532 428 l 531 408 q 524 399 522 408 q 528 382 526 389 q 535 366 531 375 q 542 350 539 357 q 551 335 546 343 q 557 322 556 326 q 597 254 572 321 q 602 203 599 231 q 607 158 606 176 q 556 58 601 99 q 419 10 500 10 q 378 17 403 10 q 349 26 354 25 q 289 74 310 40 q 283 135 268 108 q 296 142 288 142 l 311 143 q 379 138 368 143 q 394 132 390 132 q 411 144 401 132 l 447 149 q 448 156 449 149 q 449 163 447 163 q 457 165 451 164 q 469 174 463 167 q 474 190 476 182 q 447 264 471 233 q 403 348 428 314 q 372 389 378 382 q 386 446 361 400 q 444 519 386 449 q 507 597 503 589 q 553 632 531 611 q 575 660 575 653 q 594 713 568 679 q 619 759 615 749 q 617 792 622 769 q 500 749 564 824 q 454 697 460 699 q 379 573 422 656 q 313 421 336 490 q 310 390 318 411 q 288 358 301 368 l 288 307 l 279 283 q 269 282 269 283 q 247 203 265 251 q 223 135 228 156 q 210 53 218 115 q 169 -150 156 -108 q 154 -263 154 -204 q 110 -318 154 -322 q 60 -290 86 -312 q 31 -244 35 -267 l 31 -193 q 38 -106 40 -176 q 50 -44 50 -75 q 101 151 86 104 q 158 329 115 218 q 172 393 156 347 q 210 469 189 439 q 246 575 218 519 q 244 610 242 581 q 268 640 265 622 q 319 713 268 644 q 399 814 371 781 q 522 901 479 892 q 622 911 565 911 q 672 888 633 913 q 721 842 711 864 q 731 728 742 793 q 657 576 718 644 q 628 551 635 551 q 597 510 607 535 q 578 488 590 503 q 563 474 565 474 z "},"":{"ha":607,"x_min":85,"x_max":710,"o":"m 544 751 q 562 707 544 751 q 581 648 581 663 q 554 608 581 633 q 510 581 524 581 q 489 622 496 581 q 449 699 485 638 q 414 781 414 760 q 438 822 414 803 q 478 840 463 840 q 544 751 507 840 m 450 431 q 281 232 399 431 q 243 144 260 199 q 329 194 265 142 q 363 224 342 206 q 394 250 385 242 q 419 272 404 258 q 467 329 446 299 l 497 379 q 450 431 474 431 m 124 68 q 106 103 124 81 q 192 319 85 124 q 213 349 200 328 q 231 372 226 369 q 235 383 231 378 q 244 388 239 388 l 256 410 q 310 469 261 422 q 388 535 358 517 q 447 551 417 553 q 500 532 478 550 q 518 517 503 528 q 636 414 544 496 l 613 344 q 629 175 581 253 q 676 140 643 146 q 710 110 710 135 q 672 44 710 53 q 510 133 564 29 q 485 194 490 160 q 453 158 475 181 q 167 29 264 -33 q 143 51 163 38 q 124 68 124 65 z "},"":{"ha":607,"x_min":85,"x_max":726,"o":"m 515 664 l 517 678 q 576 751 519 690 q 653 819 633 813 q 674 828 664 825 q 709 808 692 828 q 726 757 726 789 q 666 688 726 738 q 592 618 606 639 q 557 597 578 597 q 515 664 515 597 m 450 431 q 281 232 399 431 q 243 144 260 199 q 329 194 265 142 q 363 224 342 206 q 394 250 385 242 q 419 272 404 258 q 467 329 446 299 l 497 379 q 450 431 474 431 m 124 68 q 106 103 124 81 q 192 319 85 124 q 213 349 200 328 q 231 372 226 369 q 235 383 231 378 q 244 388 239 388 l 256 410 q 310 469 261 422 q 388 535 358 517 q 447 551 417 553 q 500 532 478 550 q 518 517 503 528 q 636 414 544 496 l 613 344 q 629 175 581 253 q 676 140 643 146 q 710 110 710 135 q 672 44 710 53 q 510 133 564 29 q 485 194 490 160 q 453 158 475 181 q 167 29 264 -33 q 143 51 163 38 q 124 68 124 65 z "},"":{"ha":607,"x_min":85,"x_max":710,"o":"m 358 671 q 421 731 369 685 q 540 803 510 807 q 568 786 558 800 q 630 728 590 768 q 678 678 669 688 q 688 629 697 657 q 654 596 678 601 q 604 617 631 590 q 529 690 576 650 q 418 613 472 658 q 359 610 385 579 q 358 671 333 640 m 450 431 q 281 232 399 431 q 243 144 260 199 q 329 194 265 142 q 363 224 342 206 q 394 250 385 242 q 419 272 404 258 q 467 329 446 299 l 497 379 q 450 431 474 431 m 124 68 q 106 103 124 81 q 192 319 85 124 q 213 349 200 328 q 231 372 226 369 q 235 383 231 378 q 244 388 239 388 l 256 410 q 310 469 261 422 q 388 535 358 517 q 447 551 417 553 q 500 532 478 550 q 518 517 503 528 q 636 414 544 496 l 613 344 q 629 175 581 253 q 676 140 643 146 q 710 110 710 135 q 672 44 710 53 q 510 133 564 29 q 485 194 490 160 q 453 158 475 181 q 167 29 264 -33 q 143 51 163 38 q 124 68 124 65 z "},"":{"ha":607,"x_min":85,"x_max":751,"o":"m 710 635 q 598 578 607 578 q 581 579 589 578 q 567 582 572 581 q 553 589 563 583 q 540 596 543 594 q 525 606 538 597 q 510 617 513 615 q 481 642 508 618 q 438 665 453 665 q 406 642 424 665 q 375 617 389 618 q 361 594 372 599 q 357 596 358 594 q 315 644 315 603 q 340 698 315 663 q 406 754 364 733 q 502 740 463 775 q 563 693 542 704 q 608 693 583 682 q 658 715 624 697 q 708 738 693 732 q 738 724 724 744 q 749 689 751 703 q 710 635 749 656 m 450 431 q 281 232 399 431 q 243 144 260 199 q 329 194 265 142 q 363 224 342 206 q 394 250 385 242 q 419 272 404 258 q 467 329 446 299 l 497 379 q 450 431 474 431 m 124 68 q 106 103 124 81 q 192 319 85 124 q 213 349 200 328 q 231 372 226 369 q 235 383 231 378 q 244 388 239 388 l 256 410 q 310 469 261 422 q 388 535 358 517 q 447 551 417 553 q 500 532 478 550 q 518 517 503 528 q 636 414 544 496 l 613 344 q 629 175 581 253 q 676 140 643 146 q 710 110 710 135 q 672 44 710 53 q 510 133 564 29 q 485 194 490 160 q 453 158 475 181 q 167 29 264 -33 q 143 51 163 38 q 124 68 124 65 z "},"":{"ha":607,"x_min":85,"x_max":735,"o":"m 646 761 q 721 728 686 790 q 730 674 735 694 q 693 618 725 654 q 603 596 646 554 q 582 630 590 607 q 576 661 574 653 q 621 740 588 713 q 628 747 624 742 q 646 761 639 761 m 431 761 q 506 728 471 790 q 515 674 519 694 q 478 618 510 654 q 388 596 431 554 q 367 630 375 607 q 361 661 358 653 q 406 740 372 713 q 413 747 408 742 q 431 761 422 761 m 450 431 q 281 232 399 431 q 243 144 260 199 q 329 194 265 142 q 363 224 342 206 q 394 250 385 242 q 419 272 404 258 q 467 329 446 299 l 497 379 q 450 431 474 431 m 124 68 q 106 103 124 81 q 192 319 85 124 q 213 349 200 328 q 231 372 226 369 q 235 383 231 378 q 244 388 239 388 l 256 410 q 310 469 261 422 q 388 535 358 517 q 447 551 417 553 q 500 532 478 550 q 518 517 503 528 q 636 414 544 496 l 613 344 q 629 175 581 253 q 676 140 643 146 q 710 110 710 135 q 672 44 710 53 q 510 133 564 29 q 485 194 490 160 q 453 158 475 181 q 167 29 264 -33 q 143 51 163 38 q 124 68 124 65 z "},"":{"ha":607,"x_min":85,"x_max":710,"o":"m 578 735 q 532 676 532 735 q 542 650 532 664 q 561 636 553 636 q 608 692 608 636 q 578 735 606 735 m 456 665 q 487 767 456 717 q 569 818 518 818 q 653 794 619 818 q 686 715 686 769 q 651 608 686 661 q 563 556 617 556 q 456 665 468 556 m 450 431 q 281 232 399 431 q 243 144 260 199 q 329 194 265 142 q 363 224 342 206 q 394 250 385 242 q 419 272 404 258 q 467 329 446 299 l 497 379 q 450 431 474 431 m 124 68 q 106 103 124 81 q 192 319 85 124 q 213 349 200 328 q 231 372 226 369 q 235 383 231 378 q 244 388 239 388 l 256 410 q 310 469 261 422 q 388 535 358 517 q 447 551 417 553 q 500 532 478 550 q 518 517 503 528 q 636 414 544 496 l 613 344 q 629 175 581 253 q 676 140 643 146 q 710 110 710 135 q 672 44 710 53 q 510 133 564 29 q 485 194 490 160 q 453 158 475 181 q 167 29 264 -33 q 143 51 163 38 q 124 68 124 65 z "},"":{"ha":797,"x_min":96,"x_max":914,"o":"m 747 450 q 695 420 729 450 q 636 351 661 390 q 682 335 639 335 q 737 341 725 335 q 778 376 749 347 q 808 415 807 404 q 763 450 808 446 l 747 450 m 443 431 q 350 352 411 431 q 235 144 289 274 q 331 201 271 143 q 378 244 350 221 q 458 329 435 292 l 489 379 q 443 431 465 431 m 757 551 q 876 513 838 551 q 914 439 914 475 l 914 426 q 911 397 911 407 q 838 290 889 342 q 708 239 788 239 q 655 245 682 239 q 621 251 628 251 q 588 199 588 251 q 651 115 588 115 q 767 167 713 115 q 799 185 785 185 q 831 167 814 185 q 849 136 847 150 q 785 52 844 104 q 648 0 725 0 q 522 45 571 0 q 474 172 474 90 l 474 190 q 213 14 313 14 q 164 26 185 14 q 149 42 161 32 q 115 68 115 65 q 106 92 115 75 q 96 114 96 110 q 169 292 96 154 l 192 328 q 211 355 203 339 q 224 379 219 371 q 236 388 229 388 l 250 414 q 338 501 271 453 q 436 551 406 550 q 492 532 467 551 l 579 456 q 672 530 625 508 q 757 551 719 551 z "},"":{"ha":493,"x_min":71,"x_max":558,"o":"m 539 392 q 517 340 533 365 q 488 315 501 315 q 475 308 475 315 q 460 299 475 300 q 430 306 446 299 q 411 322 414 313 q 421 373 411 329 q 423 430 431 417 q 389 432 415 443 q 312 356 338 403 q 267 238 286 310 q 250 150 249 167 q 263 118 253 124 q 336 124 304 107 q 421 181 368 140 q 433 196 424 182 q 450 214 442 210 q 483 232 461 232 l 513 232 q 553 199 538 224 q 553 182 558 186 l 546 175 q 497 109 551 164 q 428 54 443 54 q 413 46 413 54 q 370 20 413 40 q 301 -6 328 0 l 296 -6 q 290 -24 290 -12 q 317 -58 299 -36 q 364 -131 358 -107 q 344 -219 376 -178 q 267 -269 313 -260 q 110 -240 221 -278 q 80 -208 89 -233 q 85 -166 71 -183 q 138 -160 100 -149 q 247 -181 228 -190 q 263 -164 257 -175 q 242 -107 274 -144 q 226 -90 235 -100 q 192 -56 218 -81 q 192 15 165 -18 q 131 122 131 53 q 153 282 124 186 q 231 436 183 378 q 340 537 301 521 q 424 553 379 553 q 500 506 500 535 l 507 499 q 535 456 519 499 q 539 392 550 413 z "},"":{"ha":451,"x_min":128,"x_max":568,"o":"m 401 450 q 349 420 383 450 q 290 351 315 390 q 336 335 293 335 q 391 341 379 335 q 431 376 403 347 q 461 415 460 404 q 417 450 461 446 l 401 450 m 463 751 q 482 707 463 751 q 500 648 500 663 q 474 608 500 633 q 429 581 443 581 q 408 622 415 581 q 369 699 404 638 q 333 781 333 760 q 358 822 333 803 q 397 840 382 840 q 463 751 426 840 m 411 551 q 531 512 493 551 q 568 438 568 472 l 568 426 q 529 331 568 397 q 469 269 510 296 q 389 240 429 242 q 312 245 349 239 q 267 251 275 251 q 251 242 258 251 q 242 185 242 226 q 263 131 246 146 q 306 115 281 115 q 353 125 331 115 q 405 160 375 135 q 451 185 435 185 q 485 168 468 185 q 503 136 501 151 q 438 52 499 104 q 301 0 378 0 q 176 44 225 0 q 128 171 128 89 q 131 239 128 203 q 156 328 135 275 q 222 442 176 381 q 321 527 268 503 q 411 551 374 551 z "},"":{"ha":451,"x_min":128,"x_max":646,"o":"m 401 450 q 349 420 383 450 q 290 351 315 390 q 336 335 293 335 q 391 341 379 335 q 431 376 403 347 q 461 415 460 404 q 417 450 461 446 l 401 450 m 435 664 l 436 678 q 496 751 439 690 q 572 819 553 813 q 593 828 583 825 q 628 808 611 828 q 646 757 646 789 q 585 688 646 738 q 511 618 525 639 q 476 597 497 597 q 435 664 435 597 m 411 551 q 531 512 493 551 q 568 438 568 472 l 568 426 q 529 331 568 397 q 469 269 510 296 q 389 240 429 242 q 312 245 349 239 q 267 251 275 251 q 251 242 258 251 q 242 185 242 226 q 263 131 246 146 q 306 115 281 115 q 353 125 331 115 q 405 160 375 135 q 451 185 435 185 q 485 168 468 185 q 503 136 501 151 q 438 52 499 104 q 301 0 378 0 q 176 44 225 0 q 128 171 128 89 q 131 239 128 203 q 156 328 135 275 q 222 442 176 381 q 321 527 268 503 q 411 551 374 551 z "},"":{"ha":451,"x_min":128,"x_max":617,"o":"m 401 450 q 349 420 383 450 q 290 351 315 390 q 336 335 293 335 q 391 341 379 335 q 431 376 403 347 q 461 415 460 404 q 417 450 461 446 l 401 450 m 278 671 q 340 731 289 685 q 460 803 429 807 q 488 786 478 800 q 549 728 510 768 q 597 678 589 688 q 607 629 617 657 q 574 596 597 601 q 524 617 550 590 q 449 690 496 650 q 338 613 392 658 q 278 610 304 579 q 278 671 253 640 m 411 551 q 531 512 493 551 q 568 438 568 472 l 568 426 q 529 331 568 397 q 469 269 510 296 q 389 240 429 242 q 312 245 349 239 q 267 251 275 251 q 251 242 258 251 q 242 185 242 226 q 263 131 246 146 q 306 115 281 115 q 353 125 331 115 q 405 160 375 135 q 451 185 435 185 q 485 168 468 185 q 503 136 501 151 q 438 52 499 104 q 301 0 378 0 q 176 44 225 0 q 128 171 128 89 q 131 239 128 203 q 156 328 135 275 q 222 442 176 381 q 321 527 268 503 q 411 551 374 551 z "},"":{"ha":451,"x_min":128,"x_max":654,"o":"m 401 450 q 349 420 383 450 q 290 351 315 390 q 336 335 293 335 q 391 341 379 335 q 431 376 403 347 q 461 415 460 404 q 417 450 461 446 l 401 450 m 350 761 q 425 728 390 790 q 434 674 439 694 q 397 618 429 654 q 307 596 350 554 q 286 630 294 607 q 281 661 278 653 q 325 740 292 713 q 332 747 328 742 q 350 761 342 761 m 565 761 q 640 728 606 790 q 649 674 654 694 q 613 618 644 654 q 522 596 565 554 q 501 630 510 607 q 496 661 493 653 q 540 740 507 713 q 547 747 543 742 q 565 761 557 761 m 411 551 q 531 512 493 551 q 568 438 568 472 l 568 426 q 529 331 568 397 q 469 269 510 296 q 389 240 429 242 q 312 245 349 239 q 267 251 275 251 q 251 242 258 251 q 242 185 242 226 q 263 131 246 146 q 306 115 281 115 q 353 125 331 115 q 405 160 375 135 q 451 185 435 185 q 485 168 468 185 q 503 136 501 151 q 438 52 499 104 q 301 0 378 0 q 176 44 225 0 q 128 171 128 89 q 131 239 128 203 q 156 328 135 275 q 222 442 176 381 q 321 527 268 503 q 411 551 374 551 z "},"":{"ha":260,"x_min":117,"x_max":388,"o":"m 126 133 l 132 163 q 143 208 131 171 q 221 435 174 278 q 243 453 221 451 q 282 440 258 458 q 321 397 306 421 q 317 331 339 379 q 288 238 296 283 q 265 183 271 200 q 253 126 260 165 q 238 74 246 86 q 194 7 225 19 q 139 24 163 -6 q 120 78 124 39 q 126 133 117 118 m 351 751 q 369 707 351 751 q 388 648 388 663 q 361 608 388 633 q 317 581 331 581 q 296 622 303 581 q 256 699 292 638 q 221 781 221 760 q 245 822 221 803 q 283 840 269 840 q 351 751 314 840 z "},"":{"ha":260,"x_min":117,"x_max":519,"o":"m 126 133 l 132 163 q 143 208 131 171 q 221 435 174 278 q 243 453 221 451 q 282 440 258 458 q 321 397 306 421 q 317 331 339 379 q 288 238 296 283 q 265 183 271 200 q 253 126 260 165 q 238 74 246 86 q 194 7 225 19 q 139 24 163 -6 q 120 78 124 39 q 126 133 117 118 m 308 664 l 310 678 q 369 751 313 690 q 446 819 426 813 q 467 828 456 825 q 502 808 485 828 q 519 757 519 789 q 459 688 519 738 q 385 618 399 639 q 350 597 371 597 q 308 664 308 597 z "},"":{"ha":260,"x_min":117,"x_max":518,"o":"m 179 671 q 242 731 190 685 q 361 803 331 807 q 389 786 379 800 q 451 728 411 768 q 499 678 490 688 q 508 629 518 657 q 475 596 499 601 q 425 617 451 590 q 350 690 397 650 q 239 613 293 658 q 180 610 206 579 q 179 671 154 640 m 126 133 l 132 163 q 143 208 131 171 q 221 435 174 278 q 243 453 221 451 q 282 440 258 458 q 321 397 306 421 q 317 331 339 379 q 288 238 296 283 q 265 183 271 200 q 253 126 260 165 q 238 74 246 86 q 194 7 225 19 q 139 24 163 -6 q 120 78 124 39 q 126 133 117 118 z "},"":{"ha":260,"x_min":117,"x_max":542,"o":"m 126 133 l 132 163 q 143 208 131 171 q 221 435 174 278 q 243 453 221 451 q 282 440 258 458 q 321 397 306 421 q 317 331 339 379 q 288 238 296 283 q 265 183 271 200 q 253 126 260 165 q 238 74 246 86 q 194 7 225 19 q 139 24 163 -6 q 120 78 124 39 q 126 133 117 118 m 453 761 q 528 728 493 790 q 537 674 542 694 q 500 618 532 654 q 410 596 453 554 q 389 630 397 607 q 383 661 381 653 q 428 740 394 713 q 435 747 431 742 q 453 761 444 761 m 238 761 q 313 728 278 790 q 322 674 326 694 q 285 618 317 654 q 194 596 238 554 q 174 630 182 607 q 168 661 165 653 q 213 740 179 713 q 219 747 215 742 q 238 761 229 761 z "},"":{"ha":485,"x_min":111,"x_max":667,"o":"m 449 314 q 450 418 467 410 q 358 393 406 443 q 298 315 319 357 q 243 189 276 274 q 258 118 222 131 q 356 172 294 106 q 389 214 365 186 q 449 314 431 264 m 440 636 q 350 624 386 619 q 294 639 318 615 q 354 703 258 672 l 401 724 l 369 772 q 344 794 360 782 q 307 839 315 822 q 335 869 306 844 q 375 896 364 894 q 406 888 383 901 q 436 865 429 874 q 467 839 442 871 q 522 758 510 781 q 635 758 604 778 q 660 715 667 739 q 621 689 653 690 l 560 671 q 581 424 594 557 q 511 192 568 292 q 381 53 467 115 q 250 -11 294 -8 q 196 11 226 -15 q 140 78 164 42 q 119 131 115 115 q 118 169 124 151 q 115 181 111 176 q 119 186 118 185 q 124 201 128 188 q 133 257 121 214 q 194 378 154 321 q 257 454 233 435 q 390 538 315 513 q 428 544 419 546 q 448 531 436 542 q 463 521 460 521 q 440 636 453 596 z "},"":{"ha":625,"x_min":118,"x_max":760,"o":"m 718 635 q 606 578 615 578 q 589 579 597 578 q 576 582 581 581 q 561 589 571 583 q 549 596 551 594 q 533 606 546 597 q 519 617 521 615 q 489 642 517 618 q 447 665 461 665 q 415 642 432 665 q 383 617 397 618 q 369 594 381 599 q 365 596 367 594 q 324 644 324 603 q 348 698 324 663 q 414 754 372 733 q 510 740 471 775 q 571 693 550 704 q 617 693 592 682 q 667 715 632 697 q 717 738 701 732 q 746 724 732 744 q 757 689 760 703 q 718 635 757 656 m 521 132 l 528 226 l 528 249 q 510 276 524 276 q 417 228 485 276 q 233 61 294 140 q 213 45 221 47 q 191 44 206 43 q 151 72 176 46 q 118 119 126 99 q 174 283 118 175 q 212 380 181 306 q 247 494 243 454 l 246 496 q 260 510 246 510 q 288 514 263 514 q 339 494 313 514 q 365 440 365 475 q 329 333 365 406 q 293 258 293 261 q 378 322 315 274 q 554 438 521 438 q 605 417 572 438 q 643 381 638 397 l 638 317 l 640 240 q 635 178 640 196 l 639 169 q 650 128 633 164 q 667 83 667 92 q 647 55 667 74 q 608 33 626 36 q 521 132 521 36 z "},"":{"ha":490,"x_min":111,"x_max":585,"o":"m 484 751 q 502 707 484 751 q 521 648 521 663 q 494 608 521 633 q 450 581 464 581 q 429 622 436 581 q 390 699 425 638 q 354 781 354 760 q 378 822 354 803 q 417 840 403 840 q 484 751 447 840 m 427 272 q 428 274 427 272 q 435 292 429 276 q 445 317 440 308 q 451 359 450 325 q 440 400 451 393 q 415 404 425 407 q 383 386 406 401 q 257 196 278 297 q 265 144 253 161 q 304 135 276 126 q 354 165 332 143 q 383 193 376 186 q 395 206 390 200 q 405 222 400 211 q 413 237 410 232 q 420 254 415 242 q 427 272 425 267 m 269 453 q 394 525 339 513 q 511 510 478 544 q 574 411 565 486 q 497 169 585 296 q 356 40 446 94 q 228 10 319 15 q 174 36 204 10 q 119 151 111 101 l 122 183 q 119 194 115 190 q 124 200 122 199 q 129 213 132 200 q 139 264 126 226 q 171 333 151 301 q 269 453 218 411 z "},"":{"ha":490,"x_min":111,"x_max":667,"o":"m 456 664 l 457 678 q 517 751 460 690 q 593 819 574 813 q 614 828 603 825 q 649 808 632 828 q 667 757 667 789 q 606 688 667 738 q 532 618 546 639 q 497 597 518 597 q 456 664 456 597 m 427 272 q 428 274 427 272 q 435 292 429 276 q 445 317 440 308 q 451 359 450 325 q 440 400 451 393 q 415 404 425 407 q 383 386 406 401 q 257 196 278 297 q 265 144 253 161 q 304 135 276 126 q 354 165 332 143 q 383 193 376 186 q 395 206 390 200 q 405 222 400 211 q 413 237 410 232 q 420 254 415 242 q 427 272 425 267 m 269 453 q 394 525 339 513 q 511 510 478 544 q 574 411 565 486 q 497 169 585 296 q 356 40 446 94 q 228 10 319 15 q 174 36 204 10 q 119 151 111 101 l 122 183 q 119 194 115 190 q 124 200 122 199 q 129 213 132 200 q 139 264 126 226 q 171 333 151 301 q 269 453 218 411 z "},"":{"ha":490,"x_min":111,"x_max":638,"o":"m 299 671 q 361 731 310 685 q 481 803 450 807 q 508 786 499 800 q 570 728 531 768 q 618 678 610 688 q 628 629 638 657 q 594 596 618 601 q 544 617 571 590 q 469 690 517 650 q 358 613 413 658 q 299 610 325 579 q 299 671 274 640 m 427 272 q 428 274 427 272 q 435 292 429 276 q 445 317 440 308 q 451 359 450 325 q 440 400 451 393 q 415 404 425 407 q 383 386 406 401 q 257 196 278 297 q 265 144 253 161 q 304 135 276 126 q 354 165 332 143 q 383 193 376 186 q 395 206 390 200 q 405 222 400 211 q 413 237 410 232 q 420 254 415 242 q 427 272 425 267 m 269 453 q 394 525 339 513 q 511 510 478 544 q 574 411 565 486 q 497 169 585 296 q 356 40 446 94 q 228 10 319 15 q 174 36 204 10 q 119 151 111 101 l 122 183 q 119 194 115 190 q 124 200 122 199 q 129 213 132 200 q 139 264 126 226 q 171 333 151 301 q 269 453 218 411 z "},"":{"ha":490,"x_min":111,"x_max":692,"o":"m 650 635 q 538 578 547 578 q 521 579 529 578 q 508 582 513 581 q 493 589 503 583 q 481 596 483 594 q 465 606 478 597 q 451 617 453 615 q 421 642 449 618 q 378 665 393 665 q 347 642 364 665 q 315 617 329 618 q 306 595 313 599 q 297 596 299 592 q 256 644 256 603 q 280 698 256 663 q 346 754 304 733 q 442 740 403 775 q 503 693 482 704 q 549 693 524 682 q 599 715 564 697 q 649 738 633 732 q 678 724 664 744 q 689 689 692 703 q 650 635 689 656 m 427 272 q 428 274 427 272 q 435 292 429 276 q 445 317 440 308 q 451 359 450 325 q 440 400 451 393 q 415 404 425 407 q 383 386 406 401 q 257 196 278 297 q 265 144 253 161 q 304 135 276 126 q 354 165 332 143 q 383 193 376 186 q 395 206 390 200 q 405 222 400 211 q 413 237 410 232 q 420 254 415 242 q 427 272 425 267 m 269 453 q 394 525 339 513 q 511 510 478 544 q 574 411 565 486 q 497 169 585 296 q 356 40 446 94 q 228 10 319 15 q 174 36 204 10 q 119 151 111 101 l 122 183 q 119 194 115 190 q 124 200 122 199 q 129 213 132 200 q 139 264 126 226 q 171 333 151 301 q 269 453 218 411 z "},"":{"ha":490,"x_min":111,"x_max":675,"o":"m 586 761 q 661 728 626 790 q 670 674 675 694 q 633 618 665 654 q 543 596 586 554 q 522 630 531 607 q 517 661 514 653 q 561 740 528 713 q 568 747 564 742 q 586 761 578 761 m 371 761 q 446 728 411 790 q 455 674 460 694 q 418 618 450 654 q 328 596 371 554 q 307 630 315 607 q 301 661 299 653 q 346 740 313 713 q 353 747 349 742 q 371 761 364 761 m 427 272 q 428 274 427 272 q 435 292 429 276 q 445 317 440 308 q 451 359 450 325 q 440 400 451 393 q 415 404 425 407 q 383 386 406 401 q 257 196 278 297 q 265 144 253 161 q 304 135 276 126 q 354 165 332 143 q 383 193 376 186 q 395 206 390 200 q 405 222 400 211 q 413 237 410 232 q 420 254 415 242 q 427 272 425 267 m 269 453 q 394 525 339 513 q 511 510 478 544 q 574 411 565 486 q 497 169 585 296 q 356 40 446 94 q 228 10 319 15 q 174 36 204 10 q 119 151 111 101 l 122 183 q 119 194 115 190 q 124 200 122 199 q 129 213 132 200 q 139 264 126 226 q 171 333 151 301 q 269 453 218 411 z "},"":{"ha":619,"x_min":111,"x_max":688,"o":"m 399 465 q 395 474 399 465 q 390 493 390 482 q 392 508 390 504 q 420 556 407 525 q 442 600 433 586 q 503 614 458 635 q 547 579 533 601 q 525 467 572 524 q 473 431 504 439 q 425 436 442 424 q 399 465 408 449 m 272 9 q 267 18 272 9 q 263 38 263 26 q 269 56 263 49 q 290 97 275 64 q 313 139 306 129 q 331 160 319 157 q 377 158 347 171 q 421 124 407 146 q 399 11 446 68 q 346 -24 378 -17 q 297 -20 314 -32 q 272 9 281 -8 m 558 343 q 662 318 636 343 q 676 270 688 293 q 633 253 664 247 q 236 239 417 239 q 188 246 208 239 q 138 274 153 246 q 183 321 111 308 l 208 324 q 558 343 296 343 z "},"":{"ha":490,"x_min":69,"x_max":658,"o":"m 435 378 q 476 407 446 383 q 471 415 475 411 q 376 390 432 438 q 319 328 339 358 q 274 239 299 299 q 435 378 361 326 m 474 346 q 246 142 364 260 q 287 104 247 96 q 383 175 326 113 q 474 346 460 260 m 149 122 q 150 138 150 131 q 147 154 150 144 q 142 165 139 161 q 146 171 146 169 q 149 186 157 174 q 153 237 144 197 q 175 307 163 276 q 258 443 214 396 q 368 533 324 517 q 475 524 429 558 q 556 471 531 507 q 615 525 610 518 q 635 533 622 540 q 653 510 647 526 q 643 479 658 494 q 622 453 635 463 q 597 435 610 444 q 575 419 585 426 q 531 201 593 325 q 424 56 483 107 q 275 -12 364 6 q 218 6 251 -15 q 168 63 190 26 q 118 8 125 19 q 96 -21 103 -21 q 74 14 69 -14 q 115 78 79 42 l 149 111 l 149 122 z "},"":{"ha":514,"x_min":132,"x_max":621,"o":"m 469 754 q 487 710 469 754 q 506 651 506 665 q 479 611 506 636 q 435 583 449 583 q 414 625 421 583 q 374 701 410 640 q 339 784 339 763 q 363 824 339 806 q 403 843 388 843 q 469 754 432 843 m 425 124 l 425 144 q 394 97 411 110 q 331 50 363 65 q 188 58 239 -8 q 146 171 132 104 q 206 390 150 268 q 269 517 267 513 q 322 516 292 525 q 354 489 351 507 q 353 435 363 475 q 321 350 344 396 q 263 183 265 214 q 279 146 261 151 q 316 144 294 136 q 374 199 338 153 q 437 311 410 246 q 468 426 464 376 q 476 460 465 442 q 506 489 488 478 q 520 502 511 497 q 533 501 529 507 l 556 503 q 568 490 558 503 q 582 474 578 476 q 563 303 621 440 q 546 82 483 136 q 564 10 568 67 q 523 -11 558 -10 q 467 3 488 -12 q 428 97 447 21 q 425 124 425 106 z "},"":{"ha":514,"x_min":132,"x_max":621,"o":"m 407 660 l 408 674 q 468 747 411 686 q 544 815 525 808 q 565 824 556 822 q 601 804 583 824 q 618 753 618 785 q 558 684 618 733 q 483 614 497 635 q 449 593 469 593 q 407 660 407 593 m 425 124 l 425 144 q 394 97 411 110 q 331 50 363 65 q 188 58 239 -8 q 146 171 132 104 q 206 390 150 268 q 269 517 267 513 q 322 516 292 525 q 354 489 351 507 q 353 435 363 475 q 321 350 344 396 q 263 183 265 214 q 279 146 261 151 q 316 144 294 136 q 374 199 338 153 q 437 311 410 246 q 468 426 464 376 q 476 460 465 442 q 506 489 488 478 q 520 502 511 497 q 533 501 529 507 l 556 503 q 568 490 558 503 q 582 474 578 476 q 563 303 621 440 q 546 82 483 136 q 564 10 568 67 q 523 -11 558 -10 q 467 3 488 -12 q 428 97 447 21 q 425 124 425 106 z "},"":{"ha":514,"x_min":132,"x_max":651,"o":"m 313 671 q 375 731 324 685 q 494 803 464 807 q 522 786 513 800 q 584 728 544 768 q 632 678 624 688 q 642 629 651 657 q 608 596 632 601 q 558 617 585 590 q 483 690 531 650 q 372 613 426 658 q 313 610 339 579 q 313 671 288 640 m 425 124 l 425 144 q 394 97 411 110 q 331 50 363 65 q 188 58 239 -8 q 146 171 132 104 q 206 390 150 268 q 269 517 267 513 q 322 516 292 525 q 354 489 351 507 q 353 435 363 475 q 321 350 344 396 q 263 183 265 214 q 279 146 261 151 q 316 144 294 136 q 374 199 338 153 q 437 311 410 246 q 468 426 464 376 q 476 460 465 442 q 506 489 488 478 q 520 502 511 497 q 533 501 529 507 l 556 503 q 568 490 558 503 q 582 474 578 476 q 563 303 621 440 q 546 82 483 136 q 564 10 568 67 q 523 -11 558 -10 q 467 3 488 -12 q 428 97 447 21 q 425 124 425 106 z "},"":{"ha":514,"x_min":132,"x_max":689,"o":"m 600 761 q 675 728 640 790 q 684 674 689 694 q 647 618 679 654 q 557 596 600 554 q 536 630 544 607 q 531 661 528 653 q 575 740 542 713 q 582 747 578 742 q 600 761 592 761 m 385 761 q 460 728 425 790 q 469 674 474 694 q 432 618 464 654 q 342 596 385 554 q 321 630 329 607 q 315 661 313 653 q 360 740 326 713 q 367 747 363 742 q 385 761 378 761 m 425 124 l 425 144 q 394 97 411 110 q 331 50 363 65 q 188 58 239 -8 q 146 171 132 104 q 206 390 150 268 q 269 517 267 513 q 322 516 292 525 q 354 489 351 507 q 353 435 363 475 q 321 350 344 396 q 263 183 265 214 q 279 146 261 151 q 316 144 294 136 q 374 199 338 153 q 437 311 410 246 q 468 426 464 376 q 476 460 465 442 q 506 489 488 478 q 520 502 511 497 q 533 501 529 507 l 556 503 q 568 490 558 503 q 582 474 578 476 q 563 303 621 440 q 546 82 483 136 q 564 10 568 67 q 523 -11 558 -10 q 467 3 488 -12 q 428 97 447 21 q 425 124 425 106 z "},"":{"ha":474,"x_min":-100,"x_max":610,"o":"m 399 664 l 400 678 q 460 751 403 690 q 536 819 517 813 q 557 828 547 825 q 592 808 575 828 q 610 757 610 789 q 549 688 610 738 q 475 618 489 639 q 440 597 461 597 q 399 664 399 597 m -83 -181 q -74 -172 -83 -181 q -44 -162 -65 -162 q -14 -168 -24 -162 q 85 -195 39 -204 q 183 -115 132 -186 q 272 33 242 -22 q 217 90 243 50 q 194 144 190 129 l 194 160 q 174 246 179 160 q 174 367 169 332 q 183 494 178 403 q 208 549 182 531 q 283 526 258 571 q 300 379 307 481 q 326 146 288 190 q 347 188 339 179 q 368 235 367 228 q 375 253 369 243 q 403 308 381 264 q 447 427 439 413 q 460 452 456 442 q 468 468 465 463 q 475 481 471 474 q 482 493 479 489 q 489 501 485 497 q 501 511 494 508 q 551 513 524 528 q 581 479 572 492 q 564 379 600 446 q 519 283 539 306 q 437 104 474 178 q 383 -12 400 31 q 258 -197 294 -154 q 119 -289 167 -281 q -17 -284 47 -304 q -92 -228 -82 -264 q -83 -181 -100 -200 z "},"":{"ha":525,"x_min":36,"x_max":619,"o":"m 276 163 q 349 184 296 163 q 426 225 403 206 q 461 258 449 244 q 483 288 474 271 q 481 357 504 319 q 332 301 440 406 q 275 208 288 254 q 276 163 263 163 m 99 -8 l 108 42 q 163 219 115 79 q 236 426 210 360 q 329 672 263 492 q 396 861 396 851 q 411 888 396 871 q 448 898 426 900 q 486 883 469 896 q 501 806 508 847 q 427 603 501 776 q 356 432 353 431 q 497 472 438 481 q 588 423 556 464 q 619 326 619 382 q 597 256 619 303 q 561 197 575 210 q 539 168 553 197 q 476 122 522 146 q 413 103 429 97 q 406 90 406 99 q 359 69 406 81 q 288 57 313 57 q 250 68 263 57 q 240 47 240 58 q 226 6 240 36 q 204 -24 213 -24 q 204 -39 196 -31 q 196 -82 204 -68 q 182 -149 196 -118 q 177 -181 182 -165 q 167 -197 172 -197 q 158 -235 158 -200 q 137 -297 157 -271 q 99 -324 117 -324 q 65 -312 72 -326 q 44 -229 36 -271 q 60 -149 60 -171 l 67 -104 q 82 -39 82 -79 q 99 -8 82 -22 z "},"":{"ha":474,"x_min":-100,"x_max":618,"o":"m 314 761 q 389 728 354 790 q 398 674 403 694 q 361 618 393 654 q 271 596 314 554 q 250 630 258 607 q 244 661 242 653 q 289 740 256 713 q 296 747 292 742 q 314 761 306 761 m 529 761 q 604 728 569 790 q 613 674 618 694 q 576 618 608 654 q 486 596 529 554 q 465 630 474 607 q 460 661 457 653 q 504 740 471 713 q 511 747 507 742 q 529 761 522 761 m -83 -181 q -74 -172 -83 -181 q -44 -162 -65 -162 q -14 -168 -24 -162 q 85 -195 39 -204 q 183 -115 132 -186 q 272 33 242 -22 q 217 90 243 50 q 194 144 190 129 l 194 160 q 174 246 179 160 q 174 367 169 332 q 183 494 178 403 q 208 549 182 531 q 283 526 258 571 q 300 379 307 481 q 326 146 288 190 q 347 188 339 179 q 368 235 367 228 q 375 253 369 243 q 403 308 381 264 q 447 427 439 413 q 460 452 456 442 q 468 468 465 463 q 475 481 471 474 q 482 493 479 489 q 489 501 485 497 q 501 511 494 508 q 551 513 524 528 q 581 479 572 492 q 564 379 600 446 q 519 283 539 306 q 437 104 474 178 q 383 -12 400 31 q 258 -197 294 -154 q 119 -289 167 -281 q -17 -284 47 -304 q -92 -228 -82 -264 q -83 -181 -100 -200 z "},"":{"ha":697,"x_min":49,"x_max":919,"o":"m 767 1064 l 625 1058 q 581 1064 597 1058 q 539 1083 550 1064 q 538 1109 528 1101 q 622 1127 549 1117 q 787 1138 696 1138 q 900 1121 878 1138 q 913 1083 919 1100 q 878 1068 907 1065 q 767 1064 836 1064 m 625 449 l 628 449 q 650 589 632 461 q 669 761 668 717 l 665 831 q 608 765 653 831 q 522 615 564 699 q 478 558 490 558 q 436 493 468 549 q 411 432 404 438 q 501 444 467 443 q 613 458 590 468 q 625 449 619 449 m 571 921 q 638 963 601 963 q 719 929 675 963 q 783 847 778 888 q 785 824 785 839 q 784 793 785 808 q 781 754 783 778 q 778 713 779 731 q 774 667 776 696 q 769 615 771 638 q 753 447 768 593 q 729 21 722 147 q 729 -4 731 11 q 728 -21 728 -19 q 664 -26 715 -35 q 608 1 613 -18 q 601 14 601 7 l 614 338 l 596 336 q 478 325 568 336 q 365 307 389 314 q 303 247 336 307 q 281 203 294 226 q 268 178 268 181 l 246 151 q 219 73 246 136 q 165 -31 192 10 l 128 -83 l 79 -46 q 53 -22 57 -35 q 60 20 49 -8 q 98 98 72 49 q 136 172 124 147 q 196 340 196 286 q 217 374 190 361 q 233 386 218 375 q 288 442 272 415 q 429 700 317 510 q 571 921 496 822 z "},"":{"ha":607,"x_min":85,"x_max":736,"o":"m 450 431 q 281 232 399 431 q 243 144 260 199 q 329 194 265 142 q 363 224 342 206 q 394 250 385 242 q 419 272 404 258 q 467 329 446 299 l 497 379 q 450 431 474 431 m 447 713 q 609 732 535 732 q 715 704 683 732 q 725 660 736 683 q 683 642 714 638 l 475 629 q 426 636 447 629 q 376 663 392 636 q 379 695 363 683 q 447 713 396 707 m 124 68 q 106 103 124 81 q 192 319 85 124 q 213 349 200 328 q 231 372 226 369 q 235 383 231 378 q 244 388 239 388 l 256 410 q 310 469 261 422 q 388 535 358 517 q 447 551 417 553 q 500 532 478 550 q 518 517 503 528 q 636 414 544 496 l 613 344 q 629 175 581 253 q 676 140 643 146 q 710 110 710 135 q 672 44 710 53 q 510 133 564 29 q 485 194 490 160 q 453 158 475 181 q 167 29 264 -33 q 143 51 163 38 q 124 68 124 65 z "},"":{"ha":697,"x_min":49,"x_max":917,"o":"m 897 1144 q 836 1021 917 1100 q 715 974 782 968 q 615 1019 647 979 q 592 1113 582 1060 q 628 1174 601 1167 q 660 1154 656 1181 q 655 1121 661 1144 q 665 1065 649 1097 q 736 1035 681 1033 q 790 1067 760 1036 q 838 1129 821 1099 q 872 1161 856 1160 q 897 1144 889 1163 m 625 449 l 628 449 q 650 589 632 461 q 669 761 668 717 l 665 831 q 608 765 653 831 q 522 615 564 699 q 478 558 490 558 q 436 493 468 549 q 411 432 404 438 q 501 444 467 443 q 613 458 590 468 q 625 449 619 449 m 571 921 q 638 963 601 963 q 719 929 675 963 q 783 847 778 888 q 785 824 785 839 q 784 793 785 808 q 781 754 783 778 q 778 713 779 731 q 774 667 776 696 q 769 615 771 638 q 753 447 768 593 q 729 21 722 147 q 729 -4 731 11 q 728 -21 728 -19 q 664 -26 715 -35 q 608 1 613 -18 q 601 14 601 7 l 614 338 l 596 336 q 478 325 568 336 q 365 307 389 314 q 303 247 336 307 q 281 203 294 226 q 268 178 268 181 l 246 151 q 219 73 246 136 q 165 -31 192 10 l 128 -83 l 79 -46 q 53 -22 57 -35 q 60 20 49 -8 q 98 98 72 49 q 136 172 124 147 q 196 340 196 286 q 217 374 190 361 q 233 386 218 375 q 288 442 272 415 q 429 700 317 510 q 571 921 496 822 z "},"":{"ha":607,"x_min":85,"x_max":728,"o":"m 703 813 q 719 742 728 794 q 653 638 710 690 q 523 592 596 586 q 407 640 450 597 q 380 749 364 682 q 436 821 396 817 q 476 793 467 824 q 477 764 481 781 q 472 730 474 747 q 489 700 471 713 q 547 689 507 688 q 628 765 586 690 q 703 813 671 839 m 450 431 q 281 232 399 431 q 243 144 260 199 q 329 194 265 142 q 363 224 342 206 q 394 250 385 242 q 419 272 404 258 q 467 329 446 299 l 497 379 q 450 431 474 431 m 124 68 q 106 103 124 81 q 192 319 85 124 q 213 349 200 328 q 231 372 226 369 q 235 383 231 378 q 244 388 239 388 l 256 410 q 310 469 261 422 q 388 535 358 517 q 447 551 417 553 q 500 532 478 550 q 518 517 503 528 q 636 414 544 496 l 613 344 q 629 175 581 253 q 676 140 643 146 q 710 110 710 135 q 672 44 710 53 q 510 133 564 29 q 485 194 490 160 q 453 158 475 181 q 167 29 264 -33 q 143 51 163 38 q 124 68 124 65 z "},"":{"ha":697,"x_min":49,"x_max":785,"o":"m 625 449 l 628 449 q 650 589 632 461 q 669 761 668 717 l 665 831 q 608 765 653 831 q 522 615 564 699 q 478 558 490 558 q 436 493 468 549 q 411 432 404 438 q 501 444 467 443 q 613 458 590 468 q 625 449 619 449 m 571 921 q 638 963 601 963 q 719 929 675 963 q 783 847 778 888 q 785 824 785 839 q 784 793 785 808 q 781 754 783 778 q 778 713 779 731 q 774 667 776 696 q 769 615 771 638 q 753 447 768 593 q 729 21 722 147 q 729 -4 731 11 q 728 -21 728 -19 q 672 -28 715 -33 q 588 -104 615 -71 q 556 -150 561 -137 q 558 -181 551 -162 q 583 -189 563 -189 q 646 -165 611 -185 q 694 -139 681 -146 q 733 -157 724 -124 q 719 -214 743 -190 q 708 -222 714 -219 q 667 -239 703 -224 q 539 -287 572 -282 q 447 -201 468 -268 q 601 17 421 -118 l 614 338 l 596 336 q 478 325 568 336 q 365 307 389 314 q 303 247 336 307 q 281 203 294 226 q 268 178 268 181 l 246 151 q 219 73 246 136 q 165 -31 192 10 l 128 -83 l 79 -46 q 53 -22 57 -35 q 60 20 49 -8 q 98 98 72 49 q 136 172 124 147 q 196 340 196 286 q 217 374 190 361 q 233 386 218 375 q 288 442 272 415 q 429 700 317 510 q 571 921 496 822 z "},"":{"ha":607,"x_min":85,"x_max":722,"o":"m 450 431 q 281 232 399 431 q 243 144 260 199 q 329 194 265 142 q 363 224 342 206 q 394 250 385 242 q 419 272 404 258 q 467 329 446 299 l 497 379 q 450 431 474 431 m 124 68 q 106 103 124 81 q 192 319 85 124 q 213 349 200 328 q 231 372 226 369 q 235 383 231 378 q 244 388 239 388 l 256 410 q 310 469 261 422 q 388 535 358 517 q 447 551 417 553 q 500 532 478 550 q 518 517 503 528 q 636 414 544 496 l 613 344 q 629 175 581 253 q 676 140 643 146 q 710 110 710 135 q 672 44 710 53 q 640 42 650 42 q 536 -71 551 -31 q 538 -101 531 -83 q 563 -110 542 -110 q 625 -86 590 -106 q 674 -60 660 -67 q 713 -78 703 -44 q 699 -135 722 -111 q 688 -142 693 -140 q 647 -161 682 -144 q 518 -208 551 -203 q 426 -122 447 -189 q 442 -42 415 -87 q 551 74 468 4 q 510 133 528 94 q 485 194 490 160 q 453 158 475 181 q 167 29 264 -33 q 143 51 163 38 q 124 68 124 65 z "},"":{"ha":669,"x_min":156,"x_max":857,"o":"m 772 1188 q 829 1149 796 1201 q 810 1110 835 1135 q 748 1055 785 1085 q 700 1010 711 1025 q 678 983 686 986 q 654 992 671 981 q 640 1019 644 1000 q 637 1048 635 1038 q 696 1119 639 1058 q 772 1188 753 1181 m 358 35 q 362 36 358 35 q 374 36 367 36 q 394 40 382 36 q 415 47 406 44 q 439 56 424 50 q 463 65 454 61 q 489 78 471 69 q 619 149 586 118 q 678 175 656 175 q 706 164 696 181 q 717 123 717 147 q 690 72 717 99 q 628 24 664 44 q 560 -12 613 8 q 439 -76 508 -50 q 321 -92 369 -103 q 183 21 211 -51 q 158 196 156 93 q 201 431 158 319 q 221 477 203 433 q 246 535 239 521 q 329 675 269 589 q 449 837 407 793 q 586 946 492 881 q 665 975 618 969 q 758 958 711 981 q 826 883 806 935 q 824 719 857 828 q 732 556 790 610 q 635 579 690 529 q 621 611 618 610 q 626 613 624 613 q 663 672 639 628 q 693 735 688 715 q 702 769 699 754 q 707 793 706 785 q 710 810 708 801 q 712 824 711 819 q 711 833 713 828 q 701 850 711 840 q 653 839 692 860 q 490 682 585 810 q 340 435 369 524 l 325 399 q 308 335 329 376 q 292 156 285 238 q 342 38 299 54 q 358 35 349 35 z "},"":{"ha":493,"x_min":124,"x_max":665,"o":"m 454 664 l 456 678 q 515 751 458 690 q 592 819 572 813 q 613 828 603 825 q 648 808 631 828 q 665 757 665 789 q 605 688 665 738 q 531 618 544 639 q 496 597 517 597 q 454 664 454 597 m 539 392 q 517 340 533 365 q 488 315 501 315 q 475 308 475 315 q 460 299 475 300 q 430 306 446 299 q 411 322 414 313 q 421 373 411 329 q 423 430 431 417 q 389 432 415 443 q 312 356 338 403 q 267 238 286 310 q 250 150 249 167 q 263 118 253 124 q 336 124 304 107 q 421 181 368 140 q 433 196 424 182 q 450 214 442 210 q 483 232 461 232 l 513 232 q 553 199 538 224 q 553 182 558 186 l 546 175 q 497 109 551 164 q 428 54 443 54 q 413 46 413 54 q 370 20 413 40 q 301 -6 328 0 q 184 21 238 -17 q 131 122 131 58 q 153 282 124 186 q 231 436 183 378 q 340 537 301 521 q 424 553 379 553 q 500 506 500 535 l 507 499 q 535 456 519 499 q 539 392 550 413 z "},"":{"ha":669,"x_min":156,"x_max":889,"o":"m 580 1008 q 577 1011 580 1008 q 578 1028 575 1015 q 590 1053 581 1040 q 647 1106 600 1065 q 719 1160 693 1146 q 763 1157 746 1182 q 824 1099 785 1139 q 876 1042 864 1058 q 871 1000 889 1025 q 814 1018 851 972 q 739 1092 786 1051 q 670 1039 715 1078 q 613 996 625 1000 q 592 996 600 992 q 580 1008 585 1000 m 358 35 q 362 36 358 35 q 374 36 367 36 q 394 40 382 36 q 415 47 406 44 q 439 56 424 50 q 463 65 454 61 q 489 78 471 69 q 619 149 586 118 q 678 175 656 175 q 706 164 696 181 q 717 123 717 147 q 690 72 717 99 q 628 24 664 44 q 560 -12 613 8 q 439 -76 508 -50 q 321 -92 369 -103 q 183 21 211 -51 q 158 196 156 93 q 201 431 158 319 q 221 477 203 433 q 246 535 239 521 q 329 675 269 589 q 449 837 407 793 q 586 946 492 881 q 665 975 618 969 q 758 958 711 981 q 826 883 806 935 q 824 719 857 828 q 732 556 790 610 q 635 579 690 529 q 621 611 618 610 q 626 613 624 613 q 663 672 639 628 q 693 735 688 715 q 702 769 699 754 q 707 793 706 785 q 710 810 708 801 q 712 824 711 819 q 711 833 713 828 q 701 850 711 840 q 653 839 692 860 q 490 682 585 810 q 340 435 369 524 l 325 399 q 308 335 329 376 q 292 156 285 238 q 342 38 299 54 q 358 35 349 35 z "},"":{"ha":493,"x_min":124,"x_max":636,"o":"m 297 671 q 360 731 308 685 q 479 803 449 807 q 507 786 497 800 q 569 728 529 768 q 617 678 608 688 q 626 629 636 657 q 593 596 617 601 q 543 617 569 590 q 468 690 515 650 q 357 613 411 658 q 298 610 324 579 q 297 671 272 640 m 539 392 q 517 340 533 365 q 488 315 501 315 q 475 308 475 315 q 460 299 475 300 q 430 306 446 299 q 411 322 414 313 q 421 373 411 329 q 423 430 431 417 q 389 432 415 443 q 312 356 338 403 q 267 238 286 310 q 250 150 249 167 q 263 118 253 124 q 336 124 304 107 q 421 181 368 140 q 433 196 424 182 q 450 214 442 210 q 483 232 461 232 l 513 232 q 553 199 538 224 q 553 182 558 186 l 546 175 q 497 109 551 164 q 428 54 443 54 q 413 46 413 54 q 370 20 413 40 q 301 -6 328 0 q 184 21 238 -17 q 131 122 131 58 q 153 282 124 186 q 231 436 183 378 q 340 537 301 521 q 424 553 379 553 q 500 506 500 535 l 507 499 q 535 456 519 499 q 539 392 550 413 z "},"":{"ha":669,"x_min":156,"x_max":857,"o":"m 704 1153 q 778 1135 743 1192 q 785 1091 789 1107 q 754 1043 781 1075 q 679 1025 717 993 q 663 1053 669 1033 q 658 1079 656 1072 q 696 1144 671 1122 q 704 1153 696 1144 m 358 35 q 362 36 358 35 q 374 36 367 36 q 394 40 382 36 q 415 47 406 44 q 439 56 424 50 q 463 65 454 61 q 489 78 471 69 q 619 149 586 118 q 678 175 656 175 q 706 164 696 181 q 717 123 717 147 q 690 72 717 99 q 628 24 664 44 q 560 -12 613 8 q 439 -76 508 -50 q 321 -92 369 -103 q 183 21 211 -51 q 158 196 156 93 q 201 431 158 319 q 221 477 203 433 q 246 535 239 521 q 329 675 269 589 q 449 837 407 793 q 586 946 492 881 q 665 975 618 969 q 758 958 711 981 q 826 883 806 935 q 824 719 857 828 q 732 556 790 610 q 635 579 690 529 q 621 611 618 610 q 626 613 624 613 q 663 672 639 628 q 693 735 688 715 q 702 769 699 754 q 707 793 706 785 q 710 810 708 801 q 712 824 711 819 q 711 833 713 828 q 701 850 711 840 q 653 839 692 860 q 490 682 585 810 q 340 435 369 524 l 325 399 q 308 335 329 376 q 292 156 285 238 q 342 38 299 54 q 358 35 349 35 z "},"":{"ha":493,"x_min":124,"x_max":593,"o":"m 501 761 q 579 729 542 789 q 588 673 593 693 q 550 614 582 653 q 456 592 504 551 q 435 626 443 603 q 431 658 426 650 q 476 740 440 710 q 483 747 479 742 q 501 761 496 761 m 539 392 q 517 340 533 365 q 488 315 501 315 q 475 308 475 315 q 460 299 475 300 q 430 306 446 299 q 411 322 414 313 q 421 373 411 329 q 423 430 431 417 q 389 432 415 443 q 312 356 338 403 q 267 238 286 310 q 250 150 249 167 q 263 118 253 124 q 336 124 304 107 q 421 181 368 140 q 433 196 424 182 q 450 214 442 210 q 483 232 461 232 l 513 232 q 553 199 538 224 q 553 182 558 186 l 546 175 q 497 109 551 164 q 428 54 443 54 q 413 46 413 54 q 370 20 413 40 q 301 -6 328 0 q 184 21 238 -17 q 131 122 131 58 q 153 282 124 186 q 231 436 183 378 q 340 537 301 521 q 424 553 379 553 q 500 506 500 535 l 507 499 q 535 456 519 499 q 539 392 550 413 z "},"":{"ha":669,"x_min":156,"x_max":874,"o":"m 870 1145 q 872 1141 870 1145 q 873 1128 874 1138 q 869 1109 872 1119 q 810 1056 865 1099 q 724 997 754 1014 q 682 1000 699 979 q 616 1062 658 1021 q 569 1110 574 1103 q 578 1153 560 1135 q 628 1139 596 1172 q 706 1068 635 1129 q 797 1128 769 1106 q 838 1155 824 1150 q 859 1156 851 1160 q 870 1145 867 1153 m 358 35 q 362 36 358 35 q 374 36 367 36 q 394 40 382 36 q 415 47 406 44 q 439 56 424 50 q 463 65 454 61 q 489 78 471 69 q 619 149 586 118 q 678 175 656 175 q 706 164 696 181 q 717 123 717 147 q 690 72 717 99 q 628 24 664 44 q 560 -12 613 8 q 439 -76 508 -50 q 321 -92 369 -103 q 183 21 211 -51 q 158 196 156 93 q 201 431 158 319 q 221 477 203 433 q 246 535 239 521 q 329 675 269 589 q 449 837 407 793 q 586 946 492 881 q 665 975 618 969 q 758 958 711 981 q 826 883 806 935 q 824 719 857 828 q 732 556 790 610 q 635 579 690 529 q 621 611 618 610 q 626 613 624 613 q 663 672 639 628 q 693 735 688 715 q 702 769 699 754 q 707 793 706 785 q 710 810 708 801 q 712 824 711 819 q 711 833 713 828 q 701 850 711 840 q 653 839 692 860 q 490 682 585 810 q 340 435 369 524 l 325 399 q 308 335 329 376 q 292 156 285 238 q 342 38 299 54 q 358 35 349 35 z "},"":{"ha":493,"x_min":124,"x_max":685,"o":"m 664 738 q 600 678 656 725 q 478 604 506 600 q 450 621 460 607 q 387 679 428 639 q 339 729 346 719 q 331 776 321 749 q 364 810 340 804 q 414 790 388 817 q 489 718 432 767 q 600 793 543 749 q 660 797 636 825 q 664 738 685 768 m 539 392 q 517 340 533 365 q 488 315 501 315 q 475 308 475 315 q 460 299 475 300 q 430 306 446 299 q 411 322 414 313 q 421 373 411 329 q 423 430 431 417 q 389 432 415 443 q 312 356 338 403 q 267 238 286 310 q 250 150 249 167 q 263 118 253 124 q 336 124 304 107 q 421 181 368 140 q 433 196 424 182 q 450 214 442 210 q 483 232 461 232 l 513 232 q 553 199 538 224 q 553 182 558 186 l 546 175 q 497 109 551 164 q 428 54 443 54 q 413 46 413 54 q 370 20 413 40 q 301 -6 328 0 q 184 21 238 -17 q 131 122 131 58 q 153 282 124 186 q 231 436 183 378 q 340 537 301 521 q 424 553 379 553 q 500 506 500 535 l 507 499 q 535 456 519 499 q 539 392 550 413 z "},"":{"ha":803,"x_min":60,"x_max":944,"o":"m 937 1145 q 939 1141 937 1145 q 940 1128 940 1138 q 935 1109 939 1119 q 876 1056 932 1099 q 790 997 821 1014 q 749 1000 765 979 q 683 1062 725 1021 q 636 1110 640 1103 q 644 1153 626 1135 q 694 1139 663 1172 q 772 1068 701 1129 q 863 1128 836 1106 q 904 1155 890 1150 q 926 1156 918 1160 q 937 1145 933 1153 m 246 -8 q 244 -21 244 -14 q 288 -29 269 -32 q 338 -25 306 -26 q 433 -4 411 -22 q 579 106 510 46 q 608 122 582 113 q 651 166 615 129 q 692 207 686 203 q 697 226 693 214 q 700 243 700 238 q 750 330 717 261 q 796 449 783 399 q 706 788 846 667 q 610 842 676 813 q 537 869 544 871 q 506 805 529 867 q 439 622 482 743 q 376 446 396 500 q 360 392 371 424 q 335 311 335 318 q 275 100 294 249 q 269 74 272 88 q 263 50 265 60 q 259 31 261 40 q 255 14 257 21 q 251 1 253 7 q 246 -8 249 -8 m 272 939 q 356 974 275 956 q 508 987 438 993 q 683 943 578 981 q 832 838 756 915 q 929 674 908 760 q 941 596 938 643 q 935 530 944 549 q 938 507 925 511 q 926 471 935 501 q 913 429 917 440 q 880 306 908 379 q 826 190 851 233 q 817 185 818 189 q 801 158 817 178 q 784 138 797 156 q 765 117 771 121 q 757 101 764 107 q 744 94 750 94 q 740 89 744 90 q 641 -10 715 53 q 515 -94 567 -74 q 457 -124 508 -100 q 376 -138 449 -132 q 289 -147 303 -144 q 144 -131 236 -156 q 114 -115 124 -126 q 102 -102 104 -104 q 94 -91 100 -100 q 83 -78 88 -82 q 66 -6 60 -47 q 108 42 72 36 q 135 36 118 43 q 143 106 135 75 q 200 281 151 138 q 277 524 249 425 q 328 664 306 622 q 338 696 331 671 q 378 817 354 757 l 388 863 l 372 869 q 335 869 347 861 q 301 883 322 865 q 276 915 279 901 l 272 939 z "},"":{"ha":638,"x_min":103,"x_max":925,"o":"m 901 718 q 869 672 896 704 q 838 639 842 639 q 808 614 833 639 q 765 606 800 606 q 727 607 731 606 q 718 619 724 608 q 738 664 718 647 q 811 774 813 739 q 844 849 808 819 q 911 850 881 879 q 901 718 925 771 m 236 157 q 246 137 233 142 q 288 143 258 132 q 357 184 317 154 q 416 238 397 214 q 446 298 435 261 q 425 363 457 335 q 332 343 386 393 q 236 157 261 279 m 558 -13 q 552 -17 558 -13 q 537 -23 546 -21 q 512 -28 528 -25 q 479 -18 496 -31 q 454 11 463 -6 q 439 147 442 44 l 382 96 q 219 14 294 14 q 163 51 197 18 q 119 108 129 85 q 132 241 103 149 q 211 390 161 333 q 325 477 256 457 q 446 465 394 497 q 496 474 490 443 q 534 593 497 479 q 635 843 571 707 q 692 899 663 901 q 731 887 710 899 q 762 852 753 875 q 756 801 771 829 q 667 597 719 739 q 592 375 614 456 q 565 176 569 294 q 568 40 560 58 q 570 6 571 18 q 558 -13 569 -6 z "},"":{"ha":803,"x_min":60,"x_max":944,"o":"m 246 -8 q 244 -21 244 -14 q 288 -29 269 -32 q 338 -25 306 -26 q 433 -4 411 -22 q 579 106 510 46 q 608 122 582 113 q 651 166 615 129 q 692 207 686 203 q 697 226 693 214 q 700 243 700 238 q 750 330 717 261 q 796 449 783 399 q 706 788 846 667 q 610 842 676 813 q 538 869 544 871 q 522 845 531 867 q 497 783 513 824 q 467 701 482 742 q 431 600 453 661 q 396 500 410 539 q 486 472 454 499 q 496 428 507 451 q 454 410 485 406 l 364 404 q 335 311 335 314 q 275 100 294 249 q 269 74 272 88 q 263 50 265 60 q 259 31 261 40 q 255 14 257 21 q 251 1 253 7 q 246 -8 249 -8 m 218 481 l 267 490 q 328 664 306 622 q 338 696 331 671 q 378 817 354 757 l 388 863 l 372 869 q 335 869 347 861 q 301 883 322 865 q 276 915 279 901 l 272 939 q 356 974 275 956 q 508 987 438 993 q 683 943 578 981 q 832 838 756 915 q 929 674 908 760 q 941 596 938 643 q 935 530 944 549 q 938 507 925 511 q 926 471 935 501 q 913 429 917 440 q 880 306 908 379 q 826 190 851 233 q 817 185 818 189 q 801 158 817 178 q 784 138 797 156 q 765 117 771 121 q 757 101 764 107 q 744 94 750 94 q 740 89 744 90 q 641 -10 715 53 q 515 -94 567 -74 q 457 -124 508 -100 q 376 -138 449 -132 q 289 -147 303 -144 q 144 -131 236 -156 q 114 -115 124 -126 q 102 -102 104 -104 q 94 -91 100 -100 q 83 -78 88 -82 q 66 -6 60 -47 q 108 42 72 36 q 135 36 118 43 q 142 105 135 75 q 238 397 150 135 q 197 404 217 397 q 147 431 163 404 q 150 463 133 451 q 218 481 167 475 z "},"":{"ha":546,"x_min":103,"x_max":783,"o":"m 236 157 q 246 137 233 142 q 288 143 258 132 q 357 184 317 154 q 416 238 397 214 q 446 298 435 261 q 425 363 457 335 q 332 343 386 393 q 236 157 261 279 m 729 653 l 686 650 q 585 351 621 482 q 565 176 569 294 q 568 40 560 58 q 570 6 571 18 q 558 -14 569 -6 q 519 -27 542 -24 q 479 -18 496 -31 q 454 11 463 -6 q 439 147 442 44 l 382 96 q 219 14 294 14 q 163 51 197 18 q 119 108 129 85 q 132 241 103 149 q 211 390 161 333 q 325 477 256 457 q 446 465 394 497 q 496 474 490 443 q 528 574 497 479 q 535 596 531 585 q 543 620 539 607 q 550 640 547 633 q 502 639 533 639 q 450 646 471 639 q 400 674 415 646 q 446 721 374 708 q 494 729 457 722 q 589 740 531 736 q 634 841 606 781 q 692 899 663 901 q 731 887 710 899 q 762 852 753 875 q 760 811 771 829 q 722 736 750 793 q 763 714 746 728 q 772 670 783 693 q 729 653 760 647 z "},"":{"ha":761,"x_min":128,"x_max":950,"o":"m 797 1064 l 656 1058 q 611 1064 628 1058 q 569 1083 581 1064 q 569 1109 558 1101 q 653 1127 579 1117 q 817 1138 726 1138 q 931 1121 908 1138 q 944 1083 950 1100 q 908 1068 938 1065 q 797 1064 867 1064 m 367 72 l 422 68 q 481 79 456 68 q 633 129 589 97 q 647 139 640 132 q 658 146 653 146 q 657 142 657 143 q 683 165 657 142 q 741 194 710 188 q 791 197 772 201 q 811 185 810 192 q 781 108 824 163 q 358 -54 653 -50 q 286 -31 318 -50 q 246 -6 254 -11 q 217 14 238 0 q 193 31 197 28 q 136 153 151 72 q 143 263 128 189 q 178 378 158 336 q 313 614 208 451 l 321 625 q 361 711 321 635 q 381 769 396 749 q 433 835 371 782 q 492 875 461 858 q 556 903 524 900 q 593 890 589 907 q 640 894 606 886 q 685 903 674 901 q 778 925 694 915 l 875 928 q 903 915 885 931 q 933 876 922 900 q 917 833 943 851 q 819 806 890 814 q 692 785 749 797 q 615 769 636 774 q 587 764 593 765 q 567 758 581 763 q 546 747 553 753 q 508 703 524 726 q 453 608 496 694 q 409 549 443 594 q 382 496 375 504 q 426 488 419 488 q 493 503 438 493 q 710 556 682 551 q 748 554 728 569 q 780 506 768 539 q 767 458 792 474 q 648 422 742 443 q 503 386 554 400 q 422 365 451 372 q 369 357 393 358 q 335 361 346 356 q 325 381 324 367 q 290 346 310 388 q 256 196 256 272 q 260 164 256 175 q 367 72 283 96 z "},"":{"ha":451,"x_min":128,"x_max":656,"o":"m 401 450 q 349 420 383 450 q 290 351 315 390 q 336 335 293 335 q 391 341 379 335 q 431 376 403 347 q 461 415 460 404 q 417 450 461 446 l 401 450 m 367 713 q 528 732 454 732 q 635 704 603 732 q 644 660 656 683 q 603 642 633 638 l 394 629 q 346 636 367 629 q 296 663 311 636 q 299 695 282 683 q 367 713 315 707 m 411 551 q 531 512 493 551 q 568 438 568 472 l 568 426 q 529 331 568 397 q 469 269 510 296 q 389 240 429 242 q 312 245 349 239 q 267 251 275 251 q 251 242 258 251 q 242 185 242 226 q 263 131 246 146 q 306 115 281 115 q 353 125 331 115 q 405 160 375 135 q 451 185 435 185 q 485 168 468 185 q 503 136 501 151 q 438 52 499 104 q 301 0 378 0 q 176 44 225 0 q 128 171 128 89 q 131 239 128 203 q 156 328 135 275 q 222 442 176 381 q 321 527 268 503 q 411 551 374 551 z "},"":{"ha":761,"x_min":128,"x_max":947,"o":"m 928 1144 q 867 1021 947 1100 q 745 974 813 968 q 645 1019 678 979 q 622 1113 613 1060 q 659 1174 632 1167 q 690 1154 686 1181 q 685 1121 692 1144 q 695 1065 679 1097 q 767 1035 711 1033 q 821 1067 790 1036 q 869 1129 851 1099 q 903 1161 886 1160 q 928 1144 919 1163 m 367 72 l 422 68 q 481 79 456 68 q 633 129 589 97 q 647 139 640 132 q 658 146 653 146 q 657 142 657 143 q 683 165 657 142 q 741 194 710 188 q 791 197 772 201 q 811 185 810 192 q 781 108 824 163 q 358 -54 653 -50 q 286 -31 318 -50 q 246 -6 254 -11 q 217 14 238 0 q 193 31 197 28 q 136 153 151 72 q 143 263 128 189 q 178 378 158 336 q 313 614 208 451 l 321 625 q 361 711 321 635 q 381 769 396 749 q 433 835 371 782 q 492 875 461 858 q 556 903 524 900 q 593 890 589 907 q 640 894 606 886 q 685 903 674 901 q 778 925 694 915 l 875 928 q 903 915 885 931 q 933 876 922 900 q 917 833 943 851 q 819 806 890 814 q 692 785 749 797 q 615 769 636 774 q 587 764 593 765 q 567 758 581 763 q 546 747 553 753 q 508 703 524 726 q 453 608 496 694 q 409 549 443 594 q 382 496 375 504 q 426 488 419 488 q 493 503 438 493 q 710 556 682 551 q 748 554 728 569 q 780 506 768 539 q 767 458 792 474 q 648 422 742 443 q 503 386 554 400 q 422 365 451 372 q 369 357 393 358 q 335 361 346 356 q 325 381 324 367 q 290 346 310 388 q 256 196 256 272 q 260 164 256 175 q 367 72 283 96 z "},"":{"ha":451,"x_min":128,"x_max":647,"o":"m 401 450 q 349 420 383 450 q 290 351 315 390 q 336 335 293 335 q 391 341 379 335 q 431 376 403 347 q 461 415 460 404 q 417 450 461 446 l 401 450 m 622 813 q 638 742 647 794 q 572 638 629 690 q 442 592 515 586 q 326 640 369 597 q 299 749 283 682 q 356 821 315 817 q 396 793 386 824 q 397 764 400 781 q 392 730 393 747 q 408 700 390 713 q 466 689 426 688 q 548 765 506 690 q 622 813 590 839 m 411 551 q 531 512 493 551 q 568 438 568 472 l 568 426 q 529 331 568 397 q 469 269 510 296 q 389 240 429 242 q 312 245 349 239 q 267 251 275 251 q 251 242 258 251 q 242 185 242 226 q 263 131 246 146 q 306 115 281 115 q 353 125 331 115 q 405 160 375 135 q 451 185 435 185 q 485 168 468 185 q 503 136 501 151 q 438 52 499 104 q 301 0 378 0 q 176 44 225 0 q 128 171 128 89 q 131 239 128 203 q 156 328 135 275 q 222 442 176 381 q 321 527 268 503 q 411 551 374 551 z "},"":{"ha":761,"x_min":128,"x_max":943,"o":"m 751 1153 q 825 1135 790 1192 q 832 1091 836 1107 q 801 1043 828 1075 q 726 1025 764 993 q 710 1053 717 1033 q 706 1079 703 1072 q 743 1144 718 1122 q 751 1153 743 1144 m 367 72 l 422 68 q 481 79 456 68 q 633 129 589 97 q 647 139 640 132 q 658 146 653 146 q 657 142 657 143 q 683 165 657 142 q 741 194 710 188 q 791 197 772 201 q 811 185 810 192 q 781 108 824 163 q 358 -54 653 -50 q 286 -31 318 -50 q 246 -6 254 -11 q 217 14 238 0 q 193 31 197 28 q 136 153 151 72 q 143 263 128 189 q 178 378 158 336 q 313 614 208 451 l 321 625 q 361 711 321 635 q 381 769 396 749 q 433 835 371 782 q 492 875 461 858 q 556 903 524 900 q 593 890 589 907 q 640 894 606 886 q 685 903 674 901 q 778 925 694 915 l 875 928 q 903 915 885 931 q 933 876 922 900 q 917 833 943 851 q 819 806 890 814 q 692 785 749 797 q 615 769 636 774 q 587 764 593 765 q 567 758 581 763 q 546 747 553 753 q 508 703 524 726 q 453 608 496 694 q 409 549 443 594 q 382 496 375 504 q 426 488 419 488 q 493 503 438 493 q 710 556 682 551 q 748 554 728 569 q 780 506 768 539 q 767 458 792 474 q 648 422 742 443 q 503 386 554 400 q 422 365 451 372 q 369 357 393 358 q 335 361 346 356 q 325 381 324 367 q 290 346 310 388 q 256 196 256 272 q 260 164 256 175 q 367 72 283 96 z "},"":{"ha":451,"x_min":128,"x_max":574,"o":"m 401 450 q 349 420 383 450 q 290 351 315 390 q 336 335 293 335 q 391 341 379 335 q 431 376 403 347 q 461 415 460 404 q 417 450 461 446 l 401 450 m 482 761 q 560 729 522 789 q 568 673 574 693 q 531 614 563 653 q 436 592 485 551 q 415 626 424 603 q 411 658 407 650 q 457 740 421 710 q 464 747 460 742 q 482 761 476 761 m 411 551 q 531 512 493 551 q 568 438 568 472 l 568 426 q 529 331 568 397 q 469 269 510 296 q 389 240 429 242 q 312 245 349 239 q 267 251 275 251 q 251 242 258 251 q 242 185 242 226 q 263 131 246 146 q 306 115 281 115 q 353 125 331 115 q 405 160 375 135 q 451 185 435 185 q 485 168 468 185 q 503 136 501 151 q 438 52 499 104 q 301 0 378 0 q 176 44 225 0 q 128 171 128 89 q 131 239 128 203 q 156 328 135 275 q 222 442 176 381 q 321 527 268 503 q 411 551 374 551 z "},"":{"ha":761,"x_min":128,"x_max":943,"o":"m 367 72 l 422 68 q 481 79 456 68 q 633 129 589 97 q 647 139 640 132 q 658 146 653 146 q 657 142 657 143 q 683 165 657 142 q 741 194 710 188 q 791 197 772 201 q 811 185 810 192 q 781 109 824 163 q 672 18 738 56 q 619 -6 646 3 q 556 -67 579 -39 q 528 -108 533 -96 q 531 -139 524 -121 q 556 -147 535 -147 q 618 -124 583 -143 q 667 -97 653 -104 q 706 -115 696 -82 q 692 -172 715 -149 q 681 -180 686 -178 q 639 -197 675 -182 q 511 -246 544 -240 q 419 -160 440 -226 q 458 -46 406 -114 q 358 -54 424 -51 q 286 -31 318 -50 q 246 -6 254 -11 q 217 14 238 0 q 193 31 197 28 q 136 153 151 72 q 143 263 128 189 q 178 378 158 336 q 313 614 208 451 l 321 625 q 361 711 321 635 q 381 769 396 749 q 433 835 371 782 q 492 875 461 858 q 556 903 524 900 q 593 890 589 907 q 640 894 606 886 q 685 903 674 901 q 778 925 694 915 l 875 928 q 903 915 885 931 q 933 876 922 900 q 917 833 943 851 q 819 806 890 814 q 692 785 749 797 q 615 769 636 774 q 587 764 593 765 q 567 758 581 763 q 546 747 553 753 q 508 703 524 726 q 453 608 496 694 q 409 549 443 594 q 382 496 375 504 q 426 488 419 488 q 493 503 438 493 q 710 556 682 551 q 748 554 728 569 q 780 506 768 539 q 767 458 792 474 q 648 422 742 443 q 503 386 554 400 q 422 365 451 372 q 369 357 393 358 q 335 361 346 356 q 325 381 324 367 q 290 346 310 388 q 256 196 256 272 q 260 164 256 175 q 367 72 283 96 z "},"":{"ha":451,"x_min":101,"x_max":568,"o":"m 401 450 q 349 420 383 450 q 290 351 315 390 q 336 335 293 335 q 391 341 379 335 q 431 376 403 347 q 461 415 460 404 q 417 450 461 446 l 401 450 m 411 551 q 531 512 493 551 q 568 438 568 472 l 568 426 q 529 331 568 397 q 469 269 510 296 q 389 240 429 242 q 312 245 349 239 q 267 251 275 251 q 251 242 258 251 q 242 185 242 226 q 263 131 246 146 q 306 115 281 115 q 353 125 331 115 q 405 160 375 135 q 451 185 435 185 q 485 168 468 185 q 503 136 501 151 q 449 62 499 110 q 335 3 399 14 q 263 -66 288 -36 q 233 -108 238 -96 q 235 -139 228 -121 q 260 -147 239 -147 q 322 -124 288 -143 q 371 -97 357 -104 q 410 -115 400 -82 q 396 -172 419 -149 q 385 -180 390 -178 q 344 -197 379 -182 q 215 -246 249 -240 q 124 -160 144 -226 q 224 14 101 -89 q 128 171 128 53 q 131 239 128 203 q 156 328 135 275 q 222 442 176 381 q 321 527 268 503 q 411 551 374 551 z "},"":{"ha":761,"x_min":128,"x_max":943,"o":"m 917 1145 q 919 1141 917 1145 q 920 1128 921 1138 q 916 1109 919 1119 q 857 1056 913 1099 q 771 997 801 1014 q 729 1000 746 979 q 663 1062 706 1021 q 617 1110 621 1103 q 625 1153 607 1135 q 675 1139 643 1172 q 753 1068 682 1129 q 844 1128 817 1106 q 885 1155 871 1150 q 906 1156 899 1160 q 917 1145 914 1153 m 367 72 l 422 68 q 481 79 456 68 q 633 129 589 97 q 647 139 640 132 q 658 146 653 146 q 657 142 657 143 q 683 165 657 142 q 741 194 710 188 q 791 197 772 201 q 811 185 810 192 q 781 108 824 163 q 358 -54 653 -50 q 286 -31 318 -50 q 246 -6 254 -11 q 217 14 238 0 q 193 31 197 28 q 136 153 151 72 q 143 263 128 189 q 178 378 158 336 q 313 614 208 451 l 321 625 q 361 711 321 635 q 381 769 396 749 q 433 835 371 782 q 492 875 461 858 q 556 903 524 900 q 593 890 589 907 q 640 894 606 886 q 685 903 674 901 q 778 925 694 915 l 875 928 q 903 915 885 931 q 933 876 922 900 q 917 833 943 851 q 819 806 890 814 q 692 785 749 797 q 615 769 636 774 q 587 764 593 765 q 567 758 581 763 q 546 747 553 753 q 508 703 524 726 q 453 608 496 694 q 409 549 443 594 q 382 496 375 504 q 426 488 419 488 q 493 503 438 493 q 710 556 682 551 q 748 554 728 569 q 780 506 768 539 q 767 458 792 474 q 648 422 742 443 q 503 386 554 400 q 422 365 451 372 q 369 357 393 358 q 335 361 346 356 q 325 381 324 367 q 290 346 310 388 q 256 196 256 272 q 260 164 256 175 q 367 72 283 96 z "},"":{"ha":451,"x_min":128,"x_max":665,"o":"m 401 450 q 349 420 383 450 q 290 351 315 390 q 336 335 293 335 q 391 341 379 335 q 431 376 403 347 q 461 415 460 404 q 417 450 461 446 l 401 450 m 644 738 q 581 678 636 725 q 458 604 486 600 q 431 621 440 607 q 367 679 408 639 q 319 729 326 719 q 311 776 301 749 q 344 810 321 804 q 394 790 368 817 q 469 718 413 767 q 581 793 524 749 q 641 797 617 825 q 644 738 665 768 m 411 551 q 531 512 493 551 q 568 438 568 472 l 568 426 q 529 331 568 397 q 469 269 510 296 q 389 240 429 242 q 312 245 349 239 q 267 251 275 251 q 251 242 258 251 q 242 185 242 226 q 263 131 246 146 q 306 115 281 115 q 353 125 331 115 q 405 160 375 135 q 451 185 435 185 q 485 168 468 185 q 503 136 501 151 q 438 52 499 104 q 301 0 378 0 q 176 44 225 0 q 128 171 128 89 q 131 239 128 203 q 156 328 135 275 q 222 442 176 381 q 321 527 268 503 q 411 551 374 551 z "},"":{"ha":692,"x_min":157,"x_max":900,"o":"m 591 1008 q 589 1011 591 1008 q 589 1028 586 1015 q 601 1053 592 1040 q 658 1106 611 1065 q 731 1160 704 1146 q 774 1157 757 1182 q 835 1099 796 1139 q 888 1042 875 1058 q 882 1000 900 1025 q 825 1018 863 972 q 750 1092 797 1051 q 681 1039 726 1078 q 624 996 636 1000 q 603 996 611 992 q 591 1008 596 1000 m 860 811 q 835 766 860 789 q 790 743 810 743 q 763 751 769 743 q 647 826 711 826 q 525 772 583 826 q 425 636 467 718 q 351 456 383 554 q 282 122 292 274 q 294 57 282 78 q 349 36 307 36 q 463 77 392 36 q 582 192 535 118 q 642 343 642 304 q 621 365 642 365 q 521 371 551 365 q 481 397 490 376 q 463 431 463 403 q 588 488 463 488 q 719 457 675 485 q 764 344 764 429 q 760 299 764 319 q 685 130 739 207 q 564 6 631 53 q 313 -92 424 -92 q 204 -35 251 -92 q 157 113 157 21 q 214 461 157 296 q 492 913 332 811 q 638 950 551 950 q 689 946 660 950 q 803 893 747 931 q 860 811 860 856 z "},"":{"ha":493,"x_min":75,"x_max":639,"o":"m 431 406 q 388 439 429 446 q 293 364 347 432 q 258 297 272 336 q 263 200 229 213 q 332 215 307 201 q 390 282 357 229 q 431 406 436 346 m 300 671 q 363 731 311 685 q 482 803 451 807 q 510 786 500 800 q 572 728 532 768 q 619 678 611 688 q 629 629 639 657 q 596 596 619 601 q 546 617 572 590 q 471 690 518 650 q 360 613 414 658 q 301 610 326 579 q 300 671 275 640 m 333 535 q 425 549 385 560 q 501 507 458 544 q 579 413 568 440 q 564 325 599 369 q 533 281 546 307 q 515 231 519 254 q 489 139 511 207 q 438 -37 464 67 q 367 -201 407 -143 q 292 -278 326 -258 q 211 -274 254 -293 q 138 -210 168 -254 q 99 -131 122 -189 q 83 -69 75 -74 q 128 -51 92 -49 q 169 -67 165 -53 q 200 -122 182 -103 q 232 -155 214 -146 q 261 -157 250 -164 q 295 -117 283 -140 q 328 -29 307 -93 q 392 164 376 140 q 364 143 383 158 q 300 101 325 111 q 258 89 292 90 q 156 129 188 86 q 131 175 143 147 q 151 346 108 232 q 235 461 178 400 q 333 535 292 522 z "},"":{"ha":692,"x_min":157,"x_max":911,"o":"m 892 1144 q 831 1021 911 1100 q 709 974 776 968 q 609 1019 642 979 q 586 1113 576 1060 q 623 1174 596 1167 q 654 1154 650 1181 q 649 1121 656 1144 q 659 1065 643 1097 q 731 1035 675 1033 q 785 1067 754 1036 q 833 1129 815 1099 q 867 1161 850 1160 q 892 1144 883 1163 m 860 811 q 835 766 860 789 q 790 743 810 743 q 763 751 769 743 q 647 826 711 826 q 525 772 583 826 q 425 636 467 718 q 351 456 383 554 q 282 122 292 274 q 294 57 282 78 q 349 36 307 36 q 463 77 392 36 q 582 192 535 118 q 642 343 642 304 q 621 365 642 365 q 521 371 551 365 q 481 397 490 376 q 463 431 463 403 q 588 488 463 488 q 719 457 675 485 q 764 344 764 429 q 760 299 764 319 q 685 130 739 207 q 564 6 631 53 q 313 -92 424 -92 q 204 -35 251 -92 q 157 113 157 21 q 214 461 157 296 q 492 913 332 811 q 638 950 551 950 q 689 946 660 950 q 803 893 747 931 q 860 811 860 856 z "},"":{"ha":493,"x_min":75,"x_max":669,"o":"m 644 813 q 660 742 669 794 q 594 638 651 690 q 465 592 538 586 q 349 640 392 597 q 322 749 306 682 q 378 821 338 817 q 418 793 408 824 q 419 764 422 781 q 414 730 415 747 q 431 700 413 713 q 488 689 449 688 q 570 765 528 690 q 644 813 613 839 m 431 406 q 388 439 429 446 q 293 364 347 432 q 258 297 272 336 q 263 200 229 213 q 332 215 307 201 q 390 282 357 229 q 431 406 436 346 m 333 535 q 425 549 385 560 q 501 507 458 544 q 579 413 568 440 q 564 325 599 369 q 533 281 546 307 q 515 231 519 254 q 489 139 511 207 q 438 -37 464 67 q 367 -201 407 -143 q 292 -278 326 -258 q 211 -274 254 -293 q 138 -210 168 -254 q 99 -131 122 -189 q 83 -69 75 -74 q 128 -51 92 -49 q 169 -67 165 -53 q 200 -122 182 -103 q 232 -155 214 -146 q 261 -157 250 -164 q 295 -117 283 -140 q 328 -29 307 -93 q 392 164 376 140 q 364 143 383 158 q 300 101 325 111 q 258 89 292 90 q 156 129 188 86 q 131 175 143 147 q 151 346 108 232 q 235 461 178 400 q 333 535 292 522 z "},"":{"ha":692,"x_min":157,"x_max":860,"o":"m 715 1153 q 789 1135 754 1192 q 796 1091 800 1107 q 765 1043 792 1075 q 690 1025 728 993 q 674 1053 681 1033 q 669 1079 667 1072 q 707 1144 682 1122 q 715 1153 707 1144 m 860 811 q 835 766 860 789 q 790 743 810 743 q 763 751 769 743 q 647 826 711 826 q 525 772 583 826 q 425 636 467 718 q 351 456 383 554 q 282 122 292 274 q 294 57 282 78 q 349 36 307 36 q 463 77 392 36 q 582 192 535 118 q 642 343 642 304 q 621 365 642 365 q 521 371 551 365 q 481 397 490 376 q 463 431 463 403 q 588 488 463 488 q 719 457 675 485 q 764 344 764 429 q 760 299 764 319 q 685 130 739 207 q 564 6 631 53 q 313 -92 424 -92 q 204 -35 251 -92 q 157 113 157 21 q 214 461 157 296 q 492 913 332 811 q 638 950 551 950 q 689 946 660 950 q 803 893 747 931 q 860 811 860 856 z "},"":{"ha":493,"x_min":75,"x_max":599,"o":"m 442 761 q 519 729 482 789 q 528 673 533 693 q 490 614 522 653 q 396 592 444 551 q 375 626 383 603 q 371 658 367 650 q 417 740 381 710 q 425 747 419 742 q 442 761 436 761 m 431 406 q 388 439 429 446 q 293 364 347 432 q 258 297 272 336 q 263 200 229 213 q 332 215 307 201 q 390 282 357 229 q 431 406 436 346 m 333 535 q 425 549 385 560 q 501 507 458 544 q 579 413 568 440 q 564 325 599 369 q 533 281 546 307 q 515 231 519 254 q 489 139 511 207 q 438 -37 464 67 q 367 -201 407 -143 q 292 -278 326 -258 q 211 -274 254 -293 q 138 -210 168 -254 q 99 -131 122 -189 q 83 -69 75 -74 q 128 -51 92 -49 q 169 -67 165 -53 q 200 -122 182 -103 q 232 -155 214 -146 q 261 -157 250 -164 q 295 -117 283 -140 q 328 -29 307 -93 q 392 164 376 140 q 364 143 383 158 q 300 101 325 111 q 258 89 292 90 q 156 129 188 86 q 131 175 143 147 q 151 346 108 232 q 235 461 178 400 q 333 535 292 522 z "}}}
